<svg xmlns="http://www.w3.org/2000/svg" width="626" height="351"><path fill="#FCFCFC" d="M0 0h626v351H0V0z"/><path fill="#5092AC" d="M401.938 111.813l3.214-.043C408 112 408 112 411 114c2.435 4.262 2.08 7.295 1 12-1.222 3.384-2.572 6.699-4 10l3 1v4l2.75.75c3.419 1.315 4.992 2.407 7.25 5.25 1.21 3.502 1.167 6.945 1.188 10.625l.042 3.477c-.276 4.683-1.31 9.297-2.23 13.898h37l2-5c3.416-2.583 6.85-3.69 10.965-4.754l3.424-.9 3.548-.909c2.323-.603 4.644-1.209 6.965-1.816l3.11-.799a106.56 106.56 0 006.122-1.89c3.701-1.204 7.387-1.523 11.241-1.87 7.398-.74 14.607-1.892 21.898-3.332 5.224-1.023 10.472-1.884 15.727-2.73-2.728 4.774-5.623 7.324-10.094 10.477-2.721 2.175-4.187 4.515-5.906 7.523l4 3c-.615 4.306-1.59 5.984-4 10l13 2v3c-1.477 1.29-1.477 1.29-3.625 2.625l-2.492 1.586L530 193c-2.254 1.41-4.505 2.825-6.75 4.25l-1.806 1.144c-4.806 3.09-9.275 6.508-13.733 10.075-4.278 3.36-8.73 5.822-13.664 8.082-2.306 1.317-2.306 1.317-2.844 4.117L491 223l2.16-.656c5.458-1.587 10.156-2.723 15.84-2.344 1.498 3.371 2 5.204 2 9h2l1-7 5 1 1-8h1l1 8c2.19-3.285 2.998-6.207 4-10h2v6c1.497-1.497 1.332-2.988 1.563-5.063L530 210h3l-1 8 2-1c1.54-.07 3.083-.085 4.625-.063l2.477.028L543 217l2 4 2.323.06c3.476.095 6.952.205 10.427.315 1.207.03 2.413.062 3.656.094l3.516.117 3.237.095c2.77.311 4.474.896 6.841 2.319v3l-6 2v3l2.813-.188C575 232 575 232 576.875 233.5L578 235c-.71 1.922-.71 1.922-2 4-2.164.828-2.164.828-4.625 1.25l-2.477.453L567 241v2h7v4a88.406 88.406 0 01-5 1l-1-1c-4.716.096-7.197.905-10.875 3.875-11.296 8.998-29.227 9.275-43.118 11.035l-2.585.344-2.294.291c-2.294.49-4.082 1.323-6.128 2.455l.273 2.313C503 270 503 270 501.164 271.625L498.625 273l-2.777 1.527L493 276l-2.504 1.316c-2.48 1.27-4.98 2.487-7.496 3.684l-2.688 1.281C463.745 290 463.745 290 459 290l2 5h5l-1 5h-6l-2-7c-5.07.586-9.525 1.697-14.375 3.375l-2.009.679c-2.673.906-5.33 1.833-7.956 2.872-5.91 2.282-11.914 2.774-18.19 3.252-5.954.518-10.032 2.348-15.158 5.447-4.18 2.486-7.533 2.465-12.312 2.375a84.76 84.76 0 012-7l-7-1 3-6c-5.524.798-10.529 1.648-15.563 4.125-7.316 3.212-15.623 2.181-23.437 1.875 3.214-3.515 6.784-4.852 11.125-6.625l2.188-.945c5.268-2.175 10.003-3.014 15.687-3.43v-2c-8.764 1.369-15.903 4.189-23.775 8.098-8.978 4.398-18.253 8.01-27.555 11.652-5.493 2.157-10.941 4.33-16.291 6.824-16.58 7.668-42.55 19-61.379 16.426-2.157-2.218-2.915-3.504-3.438-6.563.438-2.437.438-2.437 1.95-3.921 3.405-2.075 6.928-3.09 10.738-4.204l2.258-.681c1.828-.551 3.66-1.092 5.492-1.631l-4-1v-4c9.384-7.47 22.588-10.082 34-13-10.336.515-18.624 2.113-27.75 7.063-11.976 6.147-25.64 5.154-38.744 4.82-9.029-.211-15.719.223-23.881 4.305-7.282 2.253-15.334.604-22.625-.938l-2.652-.558c-10.305-2.248-16.49-4.475-23.73-12.32-3.676-3.33-7.75-5.342-12.157-7.55-4.307-2.163-8.065-4.499-11.75-7.595-5.073-3.637-11.2-4.087-17.209-4.995-5.15-.836-9.664-2.27-14.502-4.232v-3l-4-1c-.11-.808-.22-1.616-.332-2.45l-.48-3.238-.458-3.199c-.773-3.297-1.683-5.422-3.73-8.113-1.997-1.211-1.997-1.211-4.188-1.813L81 252l1-4 3.438-.875L89 246l1-2c2.333-3.5 3.208-3.633 7.125-4.688.91-.25 1.82-.502 2.758-.761L102 238c-6.026-1.071-11.89-1.1-18-1l1-3 2-1a124.97 124.97 0 002-5c1-1 1-1 3.875-1.063L96 227h3l1-1a71.98 71.98 0 014.254-.535l2.588-.264 2.72-.263 2.733-.276c2.235-.225 4.47-.445 6.705-.662v-2h11v-2h-13c3.162-2.108 4.507-2.338 8.188-2.625l2.73-.227L130 217c-6.366-.744-12.588-1.204-19-1l-1 1a127.34 127.34 0 01-5.688 1.063l-3.136.535c-3.098.392-6.057.472-9.176.402l-1-5c2.765-1.382 5.046-1.095 8.125-1.063l3.32.028L105 213c.082-3.044-.024-5.072-1-8h4v-2l-4-1c3.755-.79 7.187-1.002 11-.875 4.391.053 7.268-.637 11-3.125l1-2h-18v-1c5.123-.986 10.177-1.31 15.375-1.563l2.52-.13c2.035-.106 4.07-.207 6.105-.307l-11-1v-3c2.265-1.342 3.648-2.01 6.313-1.938 3.093-.071 5.164-.852 8-2.062l2.675-1.125L141 183l-1-2h2v-2l-2-1c6.471-2.575 12.07-3.429 19.004-3.36l2.931-.009c3.22-.004 6.44.012 9.659.028h6.95c6.274-.002 12.548.016 18.822.037 6.562.019 13.125.02 19.687.024 11.01.008 22.02.027 33.029.054a26000.287 26000.287 0 0046.659.075c29.086.031 58.173.084 87.259.151l.113-3.84c.066-1.7.132-3.398.2-5.097l.068-2.518c.346-8.094 1.562-14.88 7.619-20.545 1.268-3.134 1.268-3.134 2-6h4v-3h-3l-1-21c2.711-1.356 4.913-1.17 7.938-1.188z"/><path fill="#63A3B8" d="M158.966 174.64l2.919-.009c3.206-.004 6.411.012 9.617.028h6.92c6.248-.002 12.495.016 18.742.037 6.534.019 13.069.02 19.603.024 10.962.008 21.925.027 32.888.054 11.288.027 22.576.048 33.864.061l2.11.003 10.485.011c28.962.031 57.924.084 86.886.151l-.03 3.533-.025 4.638-.022 2.323c-.018 4.87.365 9.333 1.507 14.083.672 2.858 1.125 5.72 1.57 8.622l.5 3.225c.335 2.187.668 4.375 1 6.562.675 4.339 1.34 8.487 2.617 12.694 1.148 4.319 1.101 8.314 1.008 12.758l-.027 2.505c-.024 2.02-.06 4.038-.098 6.057l-1.363-1.953c-1.846-2.308-2.776-2.652-5.637-3.047v-2l-5.957.195C376 245 376 245 373 243c-6.06-1.193-12.216-1.351-18.375-1.625l-3.059-.156-2.902-.133-2.642-.124c-2.02-.196-2.02-.196-3.022 1.038-2.333.04-4.667.042-7 0v-3c-8.536.238-17.073.481-25.609.73-3.963.116-7.927.23-11.891.34-3.826.106-7.651.217-11.476.33-1.46.043-2.919.084-4.378.124-2.045.055-4.089.117-6.133.179l-3.526.1c-3.189.121-3.189.121-6.987 1.197l10 2v1l-23 1-1 2-2.437-.105c-11.406-.263-22.444 1.205-33.73 2.741-4.268.548-8.548.969-12.833 1.364v2h-20v3l-5 1 6 2c-3.516 4.688-3.516 4.688-5 6h-4v2h-3v2h-4v5c13.99.905 27.99 1.475 42 2l-1 2c-2.747.455-5.421.798-8.187 1.063-1.515.156-3.03.313-4.543.472l-2.197.227c-2.71.311-5.39.754-8.073 1.238v2c-7.729 1.954-15.05 2.224-23 2v2l9 1v3l2.273-.035c6.65-.059 13.127.217 19.727 1.035v1l-7 2 11 1-2 3 2.555.184 3.32.254 3.305.246C208 301 208 301 210 302l-1 3c-2.941.95-2.941.95-6.562 1.688l-3.63.761L196 308c1.623.222 3.249.427 4.875.625l2.742.352L206 309l2-2c1.88-.135 1.88-.135 4.133.023l2.441.157 2.551.195 2.574.172c2.101.142 4.201.296 6.301.453v1l-2.562.113c-7.858.456-13.758 1.547-20.813 5.075-7.282 2.253-15.334.604-22.625-.938l-2.652-.558c-10.305-2.248-16.49-4.475-23.73-12.32-3.676-3.33-7.75-5.342-12.157-7.55-4.307-2.163-8.065-4.499-11.75-7.595-5.073-3.637-11.2-4.087-17.209-4.995-5.15-.836-9.664-2.27-14.502-4.232v-3l-4-1c-.11-.808-.22-1.616-.332-2.45l-.48-3.237-.458-3.2c-.773-3.297-1.683-5.422-3.73-8.113-1.997-1.211-1.997-1.211-4.187-1.812L81 252l1-4 3.438-.875L89 246l1-2c2.333-3.5 3.208-3.633 7.125-4.687l2.758-.762L102 238c-6.026-1.071-11.89-1.1-18-1l1-3 2-1a124.97 124.97 0 002-5c1-1 1-1 3.875-1.062L96 227h3l1-1a71.98 71.98 0 014.254-.535l2.588-.264 2.72-.263 2.733-.276c2.235-.225 4.47-.445 6.705-.662v-2h11v-2h-13c3.162-2.108 4.507-2.338 8.188-2.625l2.73-.227L130 217c-6.366-.744-12.588-1.204-19-1l-1 1c-1.886.402-3.785.747-5.687 1.063l-3.137.535c-3.098.392-6.057.472-9.176.402l-1-5c2.765-1.382 5.046-1.095 8.125-1.062l3.32.027L105 213c.082-3.044-.024-5.072-1-8h4v-2l-4-1c3.755-.79 7.187-1.002 11-.875 4.391.053 7.268-.637 11-3.125l1-2h-18v-1c5.123-.986 10.177-1.31 15.375-1.562l2.52-.131c2.035-.106 4.07-.207 6.105-.307l-11-1v-3c2.265-1.342 3.648-2.01 6.313-1.937 3.093-.072 5.164-.853 8-2.063l2.675-1.125L141 183l-1-2h2v-2l-2-1c6.459-2.568 12.045-3.43 18.966-3.36z"/><path fill="#E3B350" d="M530 210h3l-1 8 2-1c1.54-.07 3.083-.085 4.625-.063l2.477.028L543 217l2 4 2.323.06c3.476.095 6.952.205 10.427.315 1.207.03 2.413.062 3.656.094l3.516.117 3.237.095c2.77.311 4.474.896 6.841 2.319v3l-6 2v3l2.813-.188C575 232 575 232 576.875 233.5L578 235c-.71 1.922-.71 1.922-2 4-2.164.828-2.164.828-4.625 1.25l-2.477.453L567 241v2h7v4a88.406 88.406 0 01-5 1l-1-1c-4.716.096-7.197.905-10.875 3.875-11.296 8.998-29.227 9.275-43.118 11.035l-2.585.344-2.294.291c-2.294.49-4.082 1.323-6.128 2.455l.273 2.313C503 270 503 270 501.164 271.625L498.625 273l-2.777 1.527L493 276l-2.504 1.316c-2.48 1.27-4.98 2.487-7.496 3.684l-2.688 1.281C463.745 290 463.745 290 459 290l2 5h5l-1 5h-6l-2-7c-5.07.586-9.525 1.697-14.375 3.375l-2.009.679c-2.673.906-5.33 1.833-7.956 2.872-5.91 2.282-11.914 2.774-18.19 3.252-5.954.518-10.032 2.348-15.158 5.447-4.18 2.486-7.533 2.465-12.312 2.375a84.76 84.76 0 012-7l-7-1 3-6c-5.524.798-10.529 1.648-15.563 4.125-7.316 3.212-15.623 2.181-23.437 1.875 3.214-3.515 6.784-4.852 11.125-6.625l2.188-.945c5.268-2.175 10.003-3.014 15.687-3.43v-2c-8.764 1.369-15.903 4.189-23.775 8.098-8.978 4.398-18.253 8.01-27.555 11.652-5.493 2.157-10.941 4.33-16.291 6.824-16.58 7.668-42.55 19-61.379 16.426-2.157-2.218-2.915-3.504-3.438-6.563.438-2.437.438-2.437 1.95-3.921 3.405-2.075 6.928-3.09 10.738-4.204l2.258-.681c1.828-.551 3.66-1.092 5.492-1.631l-4-1v-4c9.384-7.47 22.588-10.082 34-13l-2-2h6l-.625-1.875L296 292c2.686-2.686 5.376-3.06 9-4l-1-5 3 2h3l-2 7a834.183 834.183 0 005.688-1.813l3.199-1.019c2.979-1.118 5.413-2.506 8.113-4.168 2.314-.73 4.648-1.401 7-2l2.438-.625L336 282v4h2v-5c6.5-3 6.5-3 11-3l-2-3c.375-2.188.375-2.188 1-4l4 2v2c10.598-1.143 20.838-2.613 31-6v-2h2c1.625-1.458 1.625-1.458 3-3l3 1c.043 1.666.04 3.334 0 5l-1 1h-5l-3 1v2l26 1c-3.006-3.006-5.824-2.596-10-3v-6c5.625-3 5.625-3 9-3l-1 5 7 2-.105-2.45-.082-3.238-.106-3.199c.326-3.467 1.303-5.297 3.293-8.113l2 2-1-8c2.503 2.938 3.47 5.179 4 9l5-2-2-2-2 2c-1.063-1.813-1.063-1.813-2-4l1-3h4l1 4h3v-5l1 4 2.273-.77 3.102-1.042 3.344-1.137C442 246 442 246 444.53 245.418c7.091-1.643 12.204-5.572 17.93-9.84 7.667-5.682 16.603-12.162 26.539-11.578l1-3 1 2 2.16-.656c5.458-1.587 10.156-2.723 15.84-2.344 1.498 3.371 2 5.204 2 9h2l1-7 5 1 1-8h1l1 8c2.19-3.285 2.998-6.207 4-10h2v6c1.497-1.497 1.332-2.988 1.563-5.063L530 210z"/><path fill="#A9D4DE" d="M158.966 174.64l2.919-.009c3.206-.004 6.411.012 9.617.028h6.92c6.248-.002 12.495.016 18.742.037 6.534.019 13.069.02 19.603.024 10.962.008 21.925.027 32.888.054 11.288.027 22.576.048 33.864.061l2.11.003 10.485.011c28.962.031 57.924.084 86.886.151v1H279c1.182 1.386 1.182 1.386 4.5 1.438l3.5.562 1 2-2.562.5c-5.101 2.226-8.939 6.502-11.438 11.5l10 1v1l-22 2v2l-1.875 1.063c-2.455 2.238-2.508 3.018-3.062 6.187-.898 4.836-2.655 8.196-6.063 11.75a131.189 131.189 0 01-5 3c-1.134 2.017-1.134 2.017-2 4-3.286 2.19-6.219 2.95-10 4l-1 1 12 1v1c-3.25.03-6.5.047-9.75.063l-2.79.025-2.694.01-2.476.016c-2.257-.112-4.113-.53-6.29-1.114-5.382-1.169-10.523-1.041-15.992-.879l-2.867.072c-3.005.076-6.01.16-9.016.245l-6.133.158c-4.997.128-9.995.264-14.992.404v3l10 1v2l-2.71.367c-9.922 1.375-19.597 3.12-29.29 5.633v4l-12 3v3h2v2l-2.937 1.375c-3.134 1.283-3.134 1.283-4.063 3.625h6v1l-7 1 9 1v5l-2.887.516-3.8.734-3.762.703c-3.74 1.103-5.756 2.371-8.551 5.047l-1 2 3.14-.035 4.11-.027 2.066-.026c3.377-.016 6.457.032 9.684 1.088v2c-2.513 1.257-4.574 1.29-7.375 1.5-3.822.266-3.822.266-7.556 1.046-3.484.765-6.865-.153-10.319-.796l-2.2-.371c-5.124-.923-9.72-2.434-14.55-4.379v-3l-4-1c-.11-.808-.22-1.616-.332-2.45l-.48-3.237-.458-3.2c-.773-3.297-1.683-5.422-3.73-8.113-1.997-1.211-1.997-1.211-4.187-1.812L81 252l1-4 3.438-.875L89 246l1-2c2.333-3.5 3.208-3.633 7.125-4.687l2.758-.762L102 238c-6.026-1.071-11.89-1.1-18-1l1-3 2-1a124.97 124.97 0 002-5c1-1 1-1 3.875-1.062L96 227h3l1-1a71.98 71.98 0 014.254-.535l2.588-.264 2.72-.263 2.733-.276c2.235-.225 4.47-.445 6.705-.662v-2h11v-2h-13c3.162-2.108 4.507-2.338 8.188-2.625l2.73-.227L130 217c-6.366-.744-12.588-1.204-19-1l-1 1c-1.886.402-3.785.747-5.687 1.063l-3.137.535c-3.098.392-6.057.472-9.176.402l-1-5c2.765-1.382 5.046-1.095 8.125-1.062l3.32.027L105 213c.082-3.044-.024-5.072-1-8h4v-2l-4-1c3.755-.79 7.187-1.002 11-.875 4.391.053 7.268-.637 11-3.125l1-2h-18v-1c5.123-.986 10.177-1.31 15.375-1.562l2.52-.131c2.035-.106 4.07-.207 6.105-.307l-11-1v-3c2.265-1.342 3.648-2.01 6.313-1.937 3.093-.072 5.164-.853 8-2.063l2.675-1.125L141 183l-1-2h2v-2l-2-1c6.459-2.568 12.045-3.43 18.966-3.36z"/><path fill="#3A738E" d="M336 239v3h7l1-2c3.48.111 6.959.242 10.438.375l2.95.094c15.711.63 15.711.63 18.612 3.531 1.347.23 2.704.412 4.063.563L384 245v2l4 1 1-2 1 4 1-8h1v22c-4 1-4 1-6 1l-1 3-2-1v2c-5.297 3.086-10.565 4.118-16.563 5.188l-2.826.537c-4.278.79-8.248 1.37-12.611 1.275l-1-4h-2l1 6a463.78 463.78 0 01-3.813 1.5l-2.144.844C341 281 341 281 338 281v5h-2v-4l-4 3v-2l-2.09.953c-1.96.893-3.92 1.783-5.883 2.672-1.865.847-3.727 1.7-5.586 2.563-3.793 1.74-7.257 3.272-11.441 3.812l1-7h-2v2c-2.986 1.991-5.597 2.941-9 4v4l-1.658.24c-10.005 1.513-19.235 3.205-28.28 7.885-12.05 6.179-24.73 6.553-38.062 5.875l-3-1c-3.01-.364-6.036-.51-9.063-.688l-2.51-.181-2.4-.143-2.195-.14c-2.085-.026-2.085-.026-3.832 2.152-2.348.047-2.348.047-5.063-.25l-2.722-.266L196 309l-1-2 3.027-.586 3.91-.789 3.903-.773L209 304l1-2-2.992-.148-3.883-.227c-1.276-.07-2.552-.14-3.867-.21C196 301 196 301 194 299l2-1-10-1 3-3-17-2v-3l-9-1v-2l23-2v-2c1.579-.494 3.163-.97 4.75-1.438l2.672-.808c5.151-1.085 10.332-1.397 15.578-1.754l-2.58-.076c-3.21-.096-6.422-.195-9.633-.296-1.38-.043-2.76-.085-4.14-.125-8.25-.243-16.44-.622-24.647-1.503-1-3-1-3 0-6h4v-2h3v-2l1.75-.25c2.866-.955 4.25-2.535 6.25-4.75-2.962-1.48-5.835-1.353-9.125-1.563l-3.883-.253L167 259v-1l16-1v-3h20v-2c16.411-3.104 32.253-5.362 49-5l-5-1v-1l21-1-7-1v-1c8.144-2.219 16.178-2.445 24.563-2.625l4.466-.115c15.322-.373 30.646-.361 45.971-.26z"/><path fill="#872932" d="M401.938 111.813l3.214-.043C408 112 408 112 411 114c2.435 4.262 2.08 7.295 1 12-1.222 3.384-2.572 6.699-4 10l3 1v4l2.75.75c3.419 1.315 4.992 2.407 7.25 5.25 3.455 10.16.531 21.982-2 32l-1.02 4.227c-2.656 10.924-2.656 10.924-4.04 14.548-1.07 3.67-1.094 6.601-.952 10.416l.069 2.024c.05 1.403.105 2.805.164 4.208.091 2.136.166 4.273.238 6.411.202 5.486.429 10.78 1.541 16.166.086 1.523.13 3.049.133 4.574l.004 2.522-.012 2.591.012 2.627-.004 2.51-.004 2.284C415 256 415 256 414 258a165.05 165.05 0 00-.563 6.125l-.253 3.32L413 270h-6l-2-4 2-3c-2.83.735-5.46 1.534-8 3-1.14 3.078-1.14 3.078-1 6l3.813-.188c3.91-.02 3.91-.02 6.187 1.688l1 1.5c-1 1-1 1-2.962 1.038l-2.554-.124-2.793-.133-2.941-.156-2.895-.133c-4.393-.22-8.549-.55-12.855-1.492v-2h2l1-2h5c2.652-12.688 1.884-27.44-1-40a4817.33 4817.33 0 01-1.5-6.875l-.777-3.54c-.96-4.763-1.617-9.545-2.246-14.362-.408-2.753-.981-5.343-1.664-8.036-1.495-7.343-.534-14.797.187-22.187l.286-3.004a745.5 745.5 0 011.026-9.621l.32-3.088c.729-6.033 1.835-10.299 5.368-15.287l2-1a101.38 101.38 0 002-6h4v-3h-3l-1-21c2.711-1.356 4.913-1.17 7.938-1.188z"/><path fill="#E6BB57" d="M407 263l-1 5c3.189 2.126 5.831 2.942 9.5 4 3.669 1.058 6.311 1.874 9.5 4v2h-2v2h-3l2 4h2c-.41 2.324-.41 2.324-2 5-3.027 1.406-6.19 2.084-9.438 2.813l-2.642.654c-3.4.823-6.41 1.533-9.92 1.533v2l-2.59-.035c-1.105-.01-2.21-.018-3.348-.027l-3.34-.036c-2.636-.215-2.636-.215-3.722 1.098-1.975.3-3.955.565-5.938.813-4.327.613-7.839 1.377-11.75 3.312-7.237 3.251-15.56 2.179-23.312 1.875 3.214-3.515 6.784-4.852 11.125-6.625l2.188-.945c5.268-2.175 10.003-3.014 15.687-3.43v-2c-8.764 1.369-15.903 4.189-23.775 8.098-8.978 4.398-18.253 8.01-27.555 11.652-5.493 2.157-10.941 4.33-16.291 6.824-16.58 7.668-42.55 19-61.379 16.426-2.157-2.218-2.915-3.504-3.438-6.563.438-2.437.438-2.437 1.95-3.921 3.405-2.075 6.928-3.09 10.738-4.204l2.258-.681c1.828-.551 3.66-1.092 5.492-1.631l-4-1v-4c9.384-7.47 22.588-10.082 34-13l-2-2h6l-.625-1.875L296 292c2.686-2.686 5.376-3.06 9-4l-1-5 3 2h3l-2 7a834.183 834.183 0 005.688-1.813l3.199-1.019c2.979-1.118 5.413-2.506 8.113-4.168 2.314-.73 4.648-1.401 7-2l2.438-.625L336 282v4h2v-5c6.5-3 6.5-3 11-3l-2-3c.375-2.188.375-2.188 1-4l4 2v2c10.598-1.143 20.838-2.613 31-6v-2h2c1.625-1.458 1.625-1.458 3-3l3 1c.043 1.666.04 3.334 0 5l-1 1h-5l-3 1v2l26 1c-3.006-3.006-5.824-2.596-10-3v-6c5.625-3 5.625-3 9-3z"/><path fill="#444A52" d="M531.813 155.875l2.394.055L536 156c-1 3-1 3-3.313 4.813-2.972 2.419-4.693 4.938-6.687 8.187l4 3c-.615 4.306-1.59 5.984-4 10l13 2v3c-1.477 1.29-1.477 1.29-3.625 2.625l-2.492 1.586L530 193c-2.254 1.41-4.505 2.825-6.75 4.25l-1.806 1.144c-4.807 3.092-9.276 6.512-13.737 10.077-4.222 3.312-8.595 5.757-13.465 7.982-2.513 1.457-2.513 1.457-3.691 4.61C489 224 489 224 486.426 225.108l-3.113.641c-10.21 2.71-18.704 8.815-27.102 15.066C453 243 453 243 450 243l-1-5h4v-3h-2v-2l3-1v4c3.51-1.407 4.721-2.76 6.375-6.125 1.672-3.22 3.426-6.038 5.688-8.875 2.22-2.827 3.663-5.477 5-8.813 1.286-3.121 1.814-4.09 4.562-6.25C478 205 478 205 480 205v-3l3-1 1-2a3131.85 3131.85 0 00-18.176-3l-6.137-1-3.126-.5c-5.315-.872-10.424-1.877-15.561-3.5 2.455-6.032 7.9-10.2 13-14 3.137-1.234 5.619-1.618 9-2l1-1 3.438-.188c3.804-.393 5.768-1.547 8.812-3.812 5.095-3.319 9.245-3.365 15.125-3.375 11.387-.061 20.419-3.914 30.625-8.625 3.494-1.574 5.979-2.24 9.813-2.125z"/><path fill="#73B1C2" d="M279 176c8.98-.023 17.958-.04 26.938-.052 4.169-.005 8.338-.012 12.507-.023 4.02-.011 8.04-.017 12.06-.02 1.537-.002 3.074-.005 4.61-.01 2.146-.008 4.292-.009 6.437-.009l3.708-.006C348 176 348 176 349 177a71.98 71.98 0 004.254.535l2.588.264 2.72.263 2.733.276c2.235.225 4.47.445 6.705.662v1l-3.465.367-4.473.508-2.287.238c-1.934.226-3.857.55-5.775.887l-1 2 10 1v1h-23v-1l-14-2-1 4c-1.188 2.688-1.188 2.688-3 5-3.188.813-3.188.813-6 1v2l-2.875-.188L308 195l-2 3h-2l-.75 2.125c-1.439 3.31-3.01 6.042-5.25 8.875h-4v2h-2v2l-3 2-1 3h16v2l-3.98.008c-1.736.037-3.472.076-5.207.117l-2.62-.008c-2.529.078-4.75.218-7.193.883l-2.426 2.992c-2.906 3.396-3.424 3.488-7.648 3.887-1.974.077-3.95.116-5.926.121l-2.948.027c-3.963 0-7.924-.07-11.886-.154-5.22-.059-9.237.228-14.166 2.127-2.555.195-2.555.195-4.875.125l-2.367-.055L231 230c2.581-3.367 4.572-4.265 8.625-4.938 2.35-.376 2.35-.376 4.375-1.062 1.325-2.395 1.325-2.395 2-5a791.206 791.206 0 015-3c3.444-4.133 4.612-7.756 5.41-12.95.705-2.45 1.6-3.486 3.59-5.05h2v-2h-5v-1l17-1-1-2c.95-1.339 1.91-2.671 2.875-4l1.617-2.25L279 184h2l.75-1.938C283 180 283 180 285.125 179.25L287 179l-3.438-.375L280 178l-1-2z"/><path fill="#DBAE4F" d="M502 264l1 6c-6.51 4.03-13.085 7.711-20 11l-2.688 1.281C463.745 290 463.745 290 459 290l2 5h5l-1 5h-6l-2-7c-5.07.586-9.525 1.697-14.375 3.375l-2.009.679c-2.673.906-5.33 1.833-7.956 2.872-5.91 2.282-11.914 2.774-18.19 3.252-5.954.518-10.032 2.348-15.158 5.447-4.18 2.486-7.533 2.465-12.312 2.375a84.76 84.76 0 012-7l-7-1c1.453-3.39 3.04-5.76 6-8 4.185-.38 7.926.012 12 1v-2l1.988-.487c2.967-.738 5.927-1.5 8.887-2.263l3.129-.766 2.988-.78 2.761-.7c2.408-.825 2.408-.825 3.56-3.11L424 284h-2c-1.625-2.5-1.625-2.5-3-5l4 1v-2h2c-2.646-3.334-5.685-4.038-9.688-5.188l-3.574-1.042L409 271l4-1v-3l2.787.02c8.694.06 17.388.106 26.083.135 4.47.016 8.938.037 13.408.071 4.318.033 8.636.05 12.954.059 1.643.005 3.285.016 4.927.032 9.603.092 19.945-4.178 28.841-3.317z"/><path fill="#E1AE4B" d="M530 210h3l-1 8 2-1c1.54-.07 3.083-.085 4.625-.063l2.477.028L543 217l2 4 2.323.06c3.476.095 6.952.205 10.427.315 1.207.03 2.413.062 3.656.094l3.516.117 3.237.095c2.77.311 4.474.896 6.841 2.319v3l-6 2v3l2.813-.188C575 232 575 232 576.875 233.5L578 235c-.71 1.922-.71 1.922-2 4-2.164.828-2.164.828-4.625 1.25l-2.477.453L567 241v2h7v4a88.406 88.406 0 01-5 1l-1-1c-4.716.096-7.197.905-10.875 3.875-9.34 7.494-22.53 8.578-34.125 8.125v-2c4.069-1.852 7.89-2.546 12.313-3.125l3.8-.508L542 253c-.742.01-1.483.02-2.247.032-3.355.041-6.71.067-10.066.093-1.167.017-2.334.034-3.537.05l-3.388.02-3.127.032C517 253 517 253 514 251c-.293-1.91-.293-1.91-.188-4.063.133-2.467.133-2.467.188-4.937h-2a879.267 879.267 0 01-4-21l2 1c.407 2.322.744 4.657 1 7h2l1-7 5 1 1-8h1l1 8c2.19-3.285 2.998-6.207 4-10h2v6c1.497-1.497 1.332-2.988 1.563-5.063L530 210z"/><path fill="#162234" d="M383 196a5172.796 5172.796 0 016.64 1.465 74.17 74.17 0 014.282 1.094c2.721.578 5.298.573 8.078.566l3.125.008c2.49-.115 4.49-.489 6.875-1.133l.168 3.042c.207 3.737.418 7.473.632 11.21l.27 4.844c.128 2.327.261 4.652.395 6.978l.117 2.176A73.295 73.295 0 00415 237c.086 1.523.13 3.049.133 4.574l.004 2.522-.012 2.591.012 2.627-.004 2.51-.004 2.284C415 256 415 256 414 258a165.05 165.05 0 00-.563 6.125l-.253 3.32L413 270h-6l-2-4 2-3c-2.83.735-5.46 1.534-8 3-1.14 3.078-1.14 3.078-1 6l3.813-.188c3.91-.02 3.91-.02 6.187 1.688l1 1.5c-1 1-1 1-2.962 1.038l-2.554-.124-2.793-.133-2.941-.156-2.895-.133c-4.393-.22-8.549-.55-12.855-1.492v-2h2l1-2h5c2.652-12.688 1.884-27.44-1-40a4817.33 4817.33 0 01-1.5-6.875l-.773-3.523c-.967-4.792-1.652-9.602-2.297-14.446A266.64 266.64 0 00383 196z"/><path fill="#5C9EB2" d="M166 258c2.438.114 4.875.24 7.313.375l2.091.094c3.666.212 5.475.45 8.596 2.531-2.25 2.5-2.25 2.5-5 5h-4v2h-3v2h-4v5c13.99.905 27.99 1.475 42 2l-1 2c-2.747.455-5.421.798-8.188 1.063-1.514.156-3.028.313-4.542.472l-2.197.227c-2.71.311-5.39.754-8.073 1.238v2c-7.729 1.954-15.05 2.224-23 2v2l9 1v3l2.273-.035c6.65-.059 13.127.217 19.727 1.035v1l-7 2 11 1-2 3c1.265.09 1.265.09 2.555.184l3.32.253 3.305.247C208 301 208 301 210 302l-1 3c-2.941.95-2.941.95-6.563 1.688-1.197.25-2.395.502-3.628.761L196 308c1.623.222 3.249.427 4.875.625l2.742.352L206 309l2-2c1.88-.135 1.88-.135 4.133.023l2.441.157 2.551.195 2.574.172c2.101.142 4.201.296 6.301.453v1l-2.563.113c-7.857.456-13.757 1.547-20.812 5.075-7.282 2.253-15.334.604-22.625-.938l-2.652-.558c-10.31-2.249-16.584-4.49-23.832-12.364-4.525-4.187-9.988-6.67-15.516-9.328.313-3.375.313-3.375 1-7l3-2c1.205-2.552 1.205-2.552 2-5h2l-1-3h8v2l2.688-2.375c2.646-2.217 5.06-3.427 8.312-4.625l1.813-1.5c3.201-2.195 6.404-2.68 10.187-3.5l-3-2 3-1-10-1v-2z"/><path fill="#83742C" d="M524 170c2.688.313 2.688.313 5 1 .75 2.125.75 2.125 1 5-1.938 3.313-1.938 3.313-4 6l13 2v3c-1.477 1.29-1.477 1.29-3.625 2.625l-2.492 1.586L530 193c-2.254 1.41-4.505 2.825-6.75 4.25l-1.806 1.144c-4.807 3.092-9.276 6.512-13.737 10.077-4.222 3.312-8.595 5.757-13.465 7.982-2.513 1.457-2.513 1.457-3.691 4.61C489 224 489 224 486.426 225.108l-3.113.641c-10.21 2.71-18.704 8.815-27.102 15.066C453 243 453 243 450 243l-1-5h4v-3h-2v-2l3-1v4c3.51-1.407 4.721-2.76 6.375-6.125 1.672-3.22 3.426-6.038 5.688-8.875 2.22-2.827 3.663-5.477 5-8.813 1.286-3.121 1.814-4.09 4.562-6.25C478 205 478 205 480 205v-3l3-1c1.459-1.29 1.459-1.29 3-3l5-5 1.363-1.512c1.966-1.787 3.91-2.698 6.325-3.8 4.159-2.014 7.676-4.286 11.296-7.141 2.9-2.225 5.962-4.178 9.036-6.152 2.02-1.324 2.02-1.324 3.574-3.09L524 170z"/><path fill="#447E98" d="M471 210l1 2c-2.55 6.098-6.129 11.123-10.098 16.387-1.96 2.577-1.96 2.577-3.46 5.445L457 236h-3l-1-3h-2v2h2l1 3-2 2-2-1v4l2 1c-7.273 2.269-14.598 4.198-22 6-1.334.332-2.667.665-4 1l-1-4h-2c-1.298 2.224-1.298 2.224-1 6l3-2 2 4-6 1-3-6 1 6-4-2-.184-3.438-.253-4.562-.12-2.254c-.28-4.953-.778-9.83-1.443-14.746l4-1v-5l2-1v7h2v-5l1 4c8.162.339 15.95-.701 24-2v-6l10-2c-3.478-1.16-6.188-1.113-9.855-1.098l-2.005.005c-2.11.005-4.218.018-6.327.03-1.432.006-2.864.01-4.295.014-3.506.011-7.012.028-10.518.049v-1c4.799-1.17 9.587-1.343 14.5-1.563l2.757-.128c9.914-.422 19.822-.4 29.743-.309l1-4z"/><path fill="#294D64" d="M330 248c2.042 1.692 2.918 2.637 3.512 5.262l.175 2.425.2 2.45L334 260h2v4h4l1 4h3l1-3 1 4 2.188-.188c3.374.225 4.995 1.382 7.812 3.188 2.191.696 2.191.696 4 1l1-3 1 3h4v-2l13-1c-2.34 2.34-3.419 2.471-6.613 3.07l-2.783.528-2.916.527-2.881.55c-4.344.808-8.376 1.427-12.807 1.325l-1-4h-2l1 6a463.78 463.78 0 01-3.813 1.5l-2.144.844C341 281 341 281 338 281v5h-2v-4l-4 3v-2l-2.09.953c-1.96.893-3.92 1.783-5.883 2.672-1.865.847-3.727 1.7-5.586 2.563-3.793 1.74-7.257 3.272-11.441 3.812l1-7h-2v2l-3 1v-5h-2l-1 3v-2l-2-1c-1.125-2.063-1.125-2.063-2-4l6-2-2-2 3-1v-5l26-1c.035-6.616.035-6.616-1-13l-2-1c-1.762-1.927-3.357-3.968-5-6 1.673.65 3.339 1.32 5 2l2.063.688c2.893 1.96 2.975 4.09 3.687 7.437l.734 3.32L333 265c-.504-2.27-1.003-4.541-1.5-6.813l-.844-3.832C330 251 330 251 330 248z"/><path fill="#E3B04E" d="M538.625 216.938l2.477.027L543 217l2 4 2.323.06c3.476.095 6.952.205 10.427.315 1.207.03 2.413.062 3.656.094l3.516.117 3.237.095c2.77.311 4.474.896 6.841 2.319v3l-6 2v3l2.813-.188C575 232 575 232 576.875 233.5L578 235c-.71 1.922-.71 1.922-2 4-2.164.828-2.164.828-4.625 1.25l-2.477.453L567 241v2h7v4a88.406 88.406 0 01-5 1l-1-1c-5.805.355-9.95 2.229-15 5-5.679 3-5.679 3-9 3l1-9-2-1 1-3h2l.375-1.75c.625-2.25.625-2.25 1.75-4.313 1.204-2.081 1.204-2.081-.125-4.937l-1-3h-2v-2l-3 1v-3l-1.813-.813C538 222 538 222 535 219l-2 20-5 1 2-4h-3c-1-3-1-3-1-5h-2l-1 3-1-8h3l1 2 2-7 2 3 .875-2.938c1.654-4.502 3.329-4.188 7.75-4.125zM547 223c1.773 2.18 1.773 2.18 4.023 2.266l2.352-.016 2.336.016c2.686-.18 2.686-.18 6.289-2.266h-15z"/><path fill="#EDCD6A" d="M509 220c.108 2.103.186 4.208.25 6.313l.14 3.55C509 233 509 233 507.11 234.918 505 236 505 236 503 236a125.024 125.024 0 01-4-6l1 6c-7.178 3.81-14.105 7.009-22 9l-1-5-2 4-1-4-.5 2.813c-1.5 3.187-1.5 3.187-4.625 5-4.795 1.516-9.728 1.517-14.711 1.702-6.48.318-12.157 2.039-18.164 4.485v-6l3.008-.742c10.038-2.685 17.155-6.745 25.334-13.034 7.13-5.261 15.503-10.763 24.658-10.224l1-3 1 2 2.16-.656c5.458-1.587 10.156-2.723 15.84-2.344z"/><path fill="#16263B" d="M383 196c3 1 3 1 4.094 3.066 1.105 3.58 1.783 7.185 2.406 10.871.645 3.798 1.3 7.482 2.555 11.137 1.072 3.32 1.357 6.323 1.57 9.801l.227 3.492L394 237l3-3 1 5c1.521-3.042 1.374-6.28 1.563-9.625l.13-2.14c.106-1.745.207-3.49.307-5.235h2c3.483 13.856 5.804 26.695 5 41l-1.715.544-2.223.757-2.214.731c-2.237.895-2.237.895-2.848 4.156V272l3.813-.188c3.91-.02 3.91-.02 6.187 1.688l1 1.5c-1 1-1 1-2.962 1.038l-2.554-.124-2.793-.133-2.941-.156-2.895-.133c-4.393-.22-8.549-.55-12.855-1.492v-2h2l1-2h5c2.652-12.688 1.884-27.44-1-40a4817.33 4817.33 0 01-1.5-6.875l-.773-3.523c-.967-4.792-1.652-9.602-2.297-14.446A266.64 266.64 0 00383 196z"/><path fill="#709AA8" d="M542 152c-1.313 2.5-1.313 2.5-4 5-2.249.07-2.249.07-4.922-.152-6.87-.157-11.877 2.249-18.015 5.09-9.108 3.974-16.585 5.87-26.491 5.792-6.028.01-9.609 1.253-14.529 4.91-3.24 2.156-6.216 2.091-10.043 2.36l-3 2-3.29.285c-4.728.911-6.757 2.838-10.085 6.153l-1.613 1.525c-2.88 2.73-2.88 2.73-5.012 6.037l-2-1c2.625-5.75 2.625-5.75 6-8 .73-2.563.73-2.563 1-5l-3 1v-2h-23v-1h37l2-5c3.416-2.583 6.85-3.69 10.965-4.754l3.424-.9 3.548-.909c2.323-.603 4.644-1.209 6.965-1.816l3.11-.799a106.56 106.56 0 006.122-1.89c3.701-1.204 7.387-1.523 11.241-1.87 10.47-1.05 20.697-2.867 30.938-5.312C539 151 539 151 542 152z"/><path fill="#CEA046" d="M502 264l1 6c-6.51 4.03-13.086 7.71-20 11l-2.898 1.387c-8.729 4.083-8.729 4.083-13.102 4.613-1.813-1.313-1.813-1.313-3-3v-2h3v-3l9-5v-2a22485.848 22485.848 0 00-14.167-.574c-6.132-.248-12.265-.478-18.4-.68l-3.701-.125c-2.378-.08-4.756-.156-7.134-.228l-3.278-.112-2.898-.092C424 270 424 270 421 269l-1 4-11-2 4-1v-3l2.787.02c8.694.06 17.388.106 26.083.135 4.47.016 8.938.037 13.408.071 4.318.033 8.636.05 12.954.059 1.643.005 3.285.016 4.927.032 9.603.092 19.945-4.178 28.841-3.317z"/><path fill="#363C44" d="M501 185l3 1c-1.622.838-3.248 1.67-4.875 2.5l-2.742 1.406C494 191 494 191 492 191l-.75 1.75c-1.558 2.805-2.582 4.403-5.25 6.25-7.943-.515-15.79-2.08-23.625-3.438l-3.89-.658-3.774-.65-3.397-.584c-3.517-.711-6.878-1.642-10.314-2.67.688-1.938.688-1.938 2-4 4.592-1.419 9.417-1.144 14.176-1.133l2.679-.003c1.866 0 3.733.001 5.6.006 2.837.005 5.674 0 8.512-.007 1.82 0 3.64.002 5.459.004l2.545-.006c3.885.015 7.633.168 11.483.71 3.642.44 4.538.212 7.546-1.571z"/><path fill="#483A29" d="M499 212v2l-5.176 2.54c-2.097 1.453-2.097 1.453-3.199 4.5-1.625 2.96-1.625 2.96-4.2 4.07l-3.113.64c-10.208 2.71-18.703 8.815-27.101 15.066C453 243 453 243 450 243l-1-5h4v-3h-2v-2l3-1v4c3.51-1.407 4.721-2.76 6.375-6.125 2.122-4.08 4.557-7.631 7.39-11.246 1.308-1.621 1.308-1.621 2.235-3.629 3.875 1.75 3.875 1.75 5 4 5.649-1.218 7.946-2.733 12-7 4.396-2.418 7.548-2.226 12 0z"/><path fill="#2E5E77" d="M303 270a538.18 538.18 0 019.25-.25l2.645-.102c6.473-.098 6.473-.098 9.605 2.133 2.03 3.004 3.2 5.837 4.5 9.219-3.203 2.834-5.78 3.52-10 4v2h-3v2l-6 2 2-10c-4.219-.436-4.219-.436-7.75 1.5L303 284h-2l-1 3v-2l-2-1c-1.125-2.063-1.125-2.063-2-4l6-2-2-2 3-1v-5z"/><path fill="#4D565F" d="M531.813 155.875l2.394.055L536 156c-1 3-1 3-3.25 4.75-2.603 2.13-3.253 3.122-4.75 5.938-1.716 2.453-2.564 3.221-5.54 3.841l-3.085.155-3.52.187c-7.695.257-15.393.44-23.093.53-2.171.028-4.341.074-6.512.122l-3.86.06c-3.565.439-5.5 1.34-8.39 3.417l-1-3c5.768-4.824 11.113-5.285 18.313-5.313 11.392-.111 20.475-3.973 30.687-8.687 3.494-1.574 5.979-2.24 9.813-2.125z"/><path fill="#EBE6E1" d="M445 296l-1 5 1.934.969c6.499 3.974 6.499 3.974 7.59 7.933.653 4.69.618 9.374.476 14.098a88.406 88.406 0 01-5 1c-1-1-1-1-1.063-3.563L448 319l-3.813.625c-3.588.588-3.938.541-7.187-1.625.398-2.886.79-3.822 3.063-5.75L442 311h-9l-1 2v-3l2-1-10-1c2-2 2-2 4.207-2.23 8.718.143 8.718.143 12.793 1.23-.77-3.488-.77-3.488-2-7l-3-1v2c-7.05 2.08-12.738 3.536-20 2v-1l2.633-.367 3.492-.508 3.445-.492c3.3-.61 6.279-1.494 9.43-2.633 3.707-1.335 6.009-2 10-2z"/><path fill="#EFCF6D" d="M304 283l3 2h3l-2 7a834.183 834.183 0 005.688-1.813l3.199-1.019c2.98-1.118 5.414-2.504 8.113-4.168 3.488-1.143 6.327-2 10-2v4l-3.5-.375c-4.68-.008-6.732 1.792-10.215 4.707C316.483 294.837 310.003 298 304 298v2l-9 3v-2h-3v2l-3 1-1 5-1-3-4 1-1-6 11-3-2-2h6l-.625-1.875L296 292c2.686-2.686 5.376-3.06 9-4l-1-5z"/><path fill="#FAF9F5" d="M517 200l2 1-2 3 2 1-4 1 .07 3.254c.02 1.436.037 2.872.055 4.309.017.704.034 1.408.05 2.134.045 4.822-.647 8.726-2.175 13.303h-2l-2-9-2.887.621-3.8.816-3.762.81A591.164 591.164 0 01490 224c-.125-2.625-.125-2.625 1-6 3.106-2.394 6.56-4.132 10-6 5.76-3.573 10.948-7.485 16-12z"/><path fill="#422529" d="M401.938 111.813l3.214-.043C408 112 408 112 411 114c2.427 4.248 2.17 7.32 1 12-1.505 3.104-3.195 6.062-5 9-3.781-.719-3.781-.719-5.75-3.25-1.305-2.871-1.516-4.641-1.25-7.75h-2l-1 2-.402-1.828-.536-2.422-.527-2.39A249.124 249.124 0 00394 113c2.711-1.356 4.913-1.17 7.938-1.188z"/><path fill="#45778A" d="M418 222h1v7h2v-5h1v19h3v-2l2 1c1.329.352 2.662.688 4 1l.375 1.938L432 247l2 1-.91-2.082-1.152-2.73-1.16-2.708C430 238 430 238 431 235l1.438 2.938c1.264 2.867 1.264 2.867 2.562 4.062.04 2.333.042 4.667 0 7l-9 2-1-4h-2c-1.298 2.224-1.298 2.224-1 6l3-2 2 4-6 1-3-6 1 6-4-2-.184-3.438-.253-4.562-.12-2.254c-.28-4.953-.778-9.83-1.443-14.746l4-1-.063-2.438C417 223 417 223 418 222z"/><path fill="#ECFAFC" d="M113.225 214.978l2.904.143 3.135.147 3.298.17 3.311.158c2.71.13 5.418.265 8.127.404-4.67 2.474-8.74 2.585-14 3l10 1v2h-11l1 3-34-1 2-2h4v-3c10.644-1.982 10.644-1.982 15.125-2.562 2.872-.438 3.374-1.433 6.1-1.46z"/><path fill="#7AB4C2" d="M221 229v1h-22v2h3v2l-2.438.375L197 235l-1 2 3 1v1h-18v-2h-5v-1h6v-2l-10-1v-3c4.823-.933 9.57-1.224 14.469-1.352l2.42-.07c1.68-.047 3.361-.092 5.042-.136 2.561-.067 5.122-.145 7.682-.223 1.64-.045 3.279-.09 4.918-.133l2.302-.072c4.186-.098 8.063.147 12.167.986z"/><path fill="#CD9F48" d="M467 280v2l-2 2 2 3c-5.75 3-5.75 3-8 3l2 5h5l-1 5h-6l-2-7-11 1-1-5c6.091-5.502 13.738-9 22-9z"/><path fill="#457E95" d="M401 224c6.31 12.054 6.559 25.731 6 39l-9 3c.884-9.476.884-9.476 1.5-12.268.561-3.068.713-6.009.816-9.127l.127-3.642.12-3.775.13-3.834c.106-3.118.208-6.236.307-9.354z"/><path fill="#632330" d="M396 156c2.554 4.508 2.423 8.544 2.438 13.625l.011 2.714c-.123 7.047-1.49 11.723-5.449 17.661l17 1-1 2c-2.723.633-2.723.633-6.063 1.125l-3.347.508L397 195c4.607 1.867 7.99 3 13 3v-2h3v5l-2-2-3 1c-7.871.623-14.612-.254-22-3l4-1-.125-3.75c-.012-3.266.268-5.465 2.125-8.25h2c.788-3.535 1.175-6.902 1.316-10.52l.127-3.095.12-3.197.13-3.256c.106-2.644.208-5.288.307-7.932z"/><path fill="#8E272F" d="M391 157c3.875.875 3.875.875 5 2 .252 3.242.185 6.5.188 9.75l.037 2.75c.01 4.595-.013 8.339-2.225 12.5h-2l-2 12-6 1-1-5h2l1-6h2c1.797-5.84 2.12-10.915 2.004-17.012-.005-4.063.46-7.963.996-11.988z"/><path fill="#FBFBF8" d="M457 292c1.765 3.088 2 4.233 2 8h5v2h-3l2 1v2c-1.412.534-2.83 1.052-4.25 1.563l-2.39.878c-2.65.628-3.85.57-6.36-.441-1.922-1.41-1.922-1.41-3.75-3.063l-1.86-1.66L443 301c.563-2.813.563-2.813 2-6 4.051-2.293 7.341-3.424 12-3z"/><path fill="#71AFC3" d="M353 192h24v1l-2.3.043c-6.086.032-6.086.032-10.825 3.27-.717 2.2-1.313 4.441-1.875 6.687l-25-2 1-3-2-1c3.315-1.105 6.204-1.321 9.688-1.563l3.574-.253L352 195l1-3z"/><path fill="#9F2F36" d="M390 144c.625 1.875.625 1.875 1 4l-2 2c-.307 2.9-.512 5.718-.625 8.625l-.117 2.43A859.923 859.923 0 00388 167l2-1c2.387 7.16.942 13.257-2 20h-2l-1 6h-3c.39-9.915 1.185-19.766 2.313-29.625.105-1.018.21-2.037.32-3.086.729-6.05 1.932-10.233 5.367-15.289z"/><path fill="#E8F0E7" d="M295 297c-3.784 3.577-8.215 4.233-13.125 5.375-6.436 1.582-12.25 3.33-18.063 6.61C262 310 262 310 259 311v4l5-1-1 3c-2.836 1.168-2.836 1.168-6.375 2.188l-3.523 1.042C250 321 250 321 247 321v-2c1.266-.532 2.538-1.05 3.813-1.563l2.144-.878C255 316 255 316 258 317c-.776-3.075-.776-3.075-3-5l1-1h-24v-1l1.693-.152c2.582-.235 5.163-.479 7.744-.723l2.663-.238c8.809-.845 16.392-2.309 24.275-6.387 8.743-4.289 16.881-5.868 26.625-5.5z"/><path fill="#3F3731" d="M470 215l2 1-1 7 5-1v3c-2 2-2 2-4.625 2.125L469 227l.488 2.137c-.584 3.424-1.186 3.744-3.883 5.758-1.46.99-2.934 1.962-4.418 2.917-.737.503-1.475 1.005-2.236 1.522C453.44 243 453.44 243 450 243l-1-5h4v-3h-2v-2l3-1v4c3.51-1.407 4.721-2.76 6.375-6.125 2.122-4.08 4.557-7.631 7.39-11.246 1.308-1.621 1.308-1.621 2.235-3.629z"/><path fill="#E6B04A" d="M546 239l2.3.219 3.013.281 2.988.281c2.746.26 2.746.26 5.699.219v3l4 1c-2.386 1.892-4.072 3.024-7 4l-2.375 2.438c-3.403 3.32-5.88 4.562-10.625 4.562l1-9-2-1 1-3h2v-3z"/><path fill="#3D7189" d="M391 242h1v22c-4 1-4 1-6 1l-1 3-2-1v2c-3.595 2.26-6.566 2.209-10.75 2.125l-3.547-.055L366 271v2h-4l-1-3 2.703-.148 3.547-.227 3.516-.21c2.94-.377 4.733-.892 7.234-2.415l-3-1v-2l13-1-1-3c-1.187-4.086-1.149-7.763-1-12h2l1-2 1 4 1-8z"/><path fill="#E0BF6C" d="M261 318l-1.813.563c-3.912 2.57-4.76 7.154-6.187 11.437h11v1c-1.874.34-3.75.671-5.625 1l-3.164.563c-3.142.428-6.046.633-9.211.437-2.341-2.107-2.91-3.469-3.438-6.563.438-2.437.438-2.437 1.875-4.062 5.12-2.747 10.673-4.945 16.563-4.375z"/><path fill="#629FB5" d="M212 252h34v1h-14v4h2v3h-8v2l-10-2v-4l4-1-8-2v-1z"/><path fill="#E6C163" d="M283 302v5l2 1-2 3h-3l-1 2h-5v-2h-2l-1-3-3-1-1 3a70.134 70.134 0 01-4 1l-1 2h3l-1 2h-5v-4c5.714-5.632 16.104-9.384 24-9z"/><path fill="#DDB96C" d="M543 252l-1 2c-2.984.598-2.984.598-6.75 1.063-4.122.521-8.187 1.06-12.25 1.937v2h5v1a2300.053 2300.053 0 00-10.188 1.375l-2.908.383-2.822.39-2.587.35c-2.67.537-5 1.42-7.495 2.502l1-4h6v-5c4.234-2.117 9.531-2.014 14.188-2.563l3.408-.42c5.504-.656 10.86-1.202 16.404-1.017z"/><path fill="#1E394F" d="M383 196c3 1 3 1 4.094 3.066 1.105 3.58 1.783 7.185 2.406 10.871.65 3.82 1.311 7.517 2.582 11.192 2.079 6.502 1.385 14.27-.082 20.871h-1l-.332-2.133c-.903-5.622-1.93-11.183-3.168-16.742-1.309-5.962-2.265-11.92-3.07-17.969A266.64 266.64 0 00383 196z"/><path fill="#9F9173" d="M530 210h3c-.283 2.251-.577 4.5-.875 6.75l-.492 3.797c-.539 2.94-1.113 4.924-2.633 7.453l-1-5-2 7-3-4v9h-2v2h-2c-.027-2.73-.047-5.458-.063-8.188l-.025-2.33c-.017-3.967.102-7.608 1.088-11.482h1l1 8c2.19-3.285 2.998-6.207 4-10h2v6c1.497-1.497 1.332-2.988 1.563-5.063L530 210z"/><path fill="#4A869B" d="M245 248l-2 4-2.766.06c-3.402.078-6.803.165-10.204.257-1.47.039-2.939.073-4.408.105-2.118.046-4.235.104-6.352.164l-3.857.095c-3.25.304-5.453 1.029-8.413 2.319-3.313.125-3.313.125-6 0l2-1v-2c3.603-.654 7.207-1.296 10.813-1.938l3.044-.552c9.492-1.679 18.573-3.135 28.143-1.51z"/><path fill="#37667B" d="M272 290h3c2.5 3.333 3 4.733 3 9a1186.031 1186.031 0 01-9.063 4.438l-2.568 1.275c-7.538 3.638-14.082 4.432-22.369 4.287l1-2c2.582-.598 2.582-.598 5.813-1.063 4.572-.673 8.804-1.476 13.187-2.937.733-2.015.733-2.015 1-4h2l2-1.5c2-1.5 2-1.5 4-1.5l1-5-2-1z"/><path fill="#50767D" d="M415 234h5l.184 3.395.253 4.417.12 2.237c.187 3.182.43 5.913 1.443 8.951l3-2 2 4-6 1-3-6 1 6-4-2v-20z"/><path fill="#8AC2D1" d="M176 233h24l-4 4 3 1v1h-18v-2h-5v-1h6v-2h-6v-1z"/><path fill="#5289A2" d="M294 255l27 1-3 2-1 3c-7.094.097-13.982.1-21-1v-4l-2-1z"/><path fill="#E5B962" d="M538.688 216.875l2.449.055L543 217l2 4 26 1v1l-2.124.044c-3.188.075-6.376.171-9.563.268l-3.342.069-3.233.107-2.967.08c-3.177.495-5.138 1.627-7.771 3.432v-3l-1.813-.813c-2.16-1.172-3.545-2.38-5.187-4.187l-1 5h-2l-1 2c-.188-3.375-.188-3.375 0-7 3.204-2.136 4.02-2.231 7.688-2.125z"/><path fill="#4F8497" d="M450 193c23.789 2.962 23.789 2.962 34 6l-1 3h-3v3c-4.222 3-4.222 3-7 3l-1 2-1-5h2v-2l2.438-.875c2.695-.858 2.695-.858 3.562-3.125l-2.25.563c-2.829.45-4.048.152-6.75-.563a154.5 154.5 0 00-4.75-.563l-2.422-.253L461 198v-2l-11-1v-2z"/><path fill="#DCBA61" d="M407 263l-1 5c3.224 2.15 5.984 3.025 9.688 4.125l3.574 1.07L422 274v1h-5l-1 2-2.25-1.375c-4.872-2.483-10.396-2.889-15.75-3.625v-6c5.625-3 5.625-3 9-3z"/><path fill="#1E3545" d="M392 245h2c1.06 3.178 1.115 5.426 1.098 8.762l-.01 3.388-.026 3.538-.013 3.572c-.012 2.913-.03 5.827-.049 8.74h-11l1-3h5c1.03-5.284 1.316-10.511 1.563-15.875l.13-2.664A2327 2327 0 00392 245z"/><path fill="#CEBB76" d="M388 264l3 1c.043 1.666.04 3.334 0 5l-1 1h-5c-1.343.29-2.682.61-4 1v2l-6-1-1 3-2.152-.035c-.92-.01-1.839-.018-2.786-.027l-2.777-.036c-2.25-.161-2.25-.161-3.285 1.098-2.02.072-4.042.084-6.063.063l-3.347-.028L351 277v-1l2.292-.427c3.445-.645 6.889-1.297 10.333-1.948l3.605-.672 3.497-.664 3.205-.603c3.113-.696 6.061-1.626 9.068-2.686v-2h2c1.625-1.458 1.625-1.458 3-3z"/><path fill="#E6E2CC" d="M440 302c4.875 4.625 4.875 4.625 6 8h2l1 7h-2l-1-3-5-1 1-2h-9l-1 2v-3l2-1-10-1c2-2 2-2 4.207-2.23 8.718.143 8.718.143 12.793 1.23l-1-5z"/><path fill="#4A5E54" d="M347 269c4.609.72 8.672 2.313 13 4l1-3 1 3h4v-2l13-1c-2.34 2.34-3.419 2.471-6.613 3.07l-2.783.528-2.916.527-2.881.55c-4.344.808-8.376 1.427-12.807 1.325l-1-4h-2l1 6c-1.266.532-2.538 1.05-3.813 1.563l-2.144.878C341 281 341 281 338 280l4-1v-2l4-1-1-5h2v-2z"/><path fill="#BD9136" d="M413 267l2.598.199c10.61.765 21.207 1.109 31.84 1.363l5.142.131c4.14.106 8.28.207 12.42.307l-1 2c-9.052.06-18.079-.102-27.125-.438l-3.648-.119-3.485-.127-3.13-.11C424 270 424 270 421 269l-1 4-11-2 4-1v-3z"/><path fill="#3A5D64" d="M312 281c.074 3.343.065 5.804-1 9l5-1v-2h3v-2c3.823-1.423 6.913-2.24 11-2-6.618 4.412-15.004 8.968-23 10l1-7h-2v2l-3 1v-8c3.478-1.16 5.459-.708 9 0z"/><path fill="#89C3D6" d="M332 209l-1 5c-4.663.05-9.326.086-13.99.11-1.586.01-3.173.024-4.76.04-2.279.025-4.557.036-6.836.045l-2.156.032c-1.754 0-3.508-.105-5.258-.227l-2-2 1.924-.06c2.9-.096 5.8-.205 8.701-.315.999-.03 1.998-.062 3.027-.094 7.782-.309 14.574-2.8 22.348-2.531z"/><path fill="#305C78" d="M336 264h4l1 4h3l1-3c2 3.75 2 3.75 2 6h-2l2 6h-5v2h-5c.888-3.699 1.946-7.346 3-11h-2l-1 2-1-6z"/><path fill="#7DB7C8" d="M346.188 195.938l3.855.027L353 196l-1 3 5 1 5 1v2l-25-2 1-3-2-1c3.56-1.187 6.438-1.097 10.188-1.063z"/><path fill="#AD8D3F" d="M508 221l2 1c.407 2.322.744 4.657 1 7h2l1-7 1 3 3-1v14l-2-3-2 7h-2a879.267 879.267 0 01-4-21z"/><path fill="#DAB35E" d="M554 250l2 1c-5.412 6.071-15.285 7.063-23 8-3.343.139-6.658.13-10 0v-2c4.012-1.815 7.77-2.542 12.125-3.125l3.695-.508C542 253 542 253 545 253l-1 2c1.48-.643 2.96-1.29 4.438-1.938l2.496-1.09c2.01-.803 2.01-.803 3.066-1.972z"/><path fill="#7D2A34" d="M395 175c1.033 2.788 1.045 3.868.063 6.75L394 184h-2l-2 12-6 1-1-5h2l.188-2.75c1.013-4.056 2.552-4.785 5.812-7.25 1.205-2.552 1.205-2.552 2-5l2-2z"/><path fill="#D28E7D" d="M395 117c2.36 2.36 2.491 3.779 3 7h2l.938 3.313A169.836 169.836 0 00403 134h5v2h-10v-2h-3v-17z"/><path fill="#FAF0C2" d="M375 290v2l-2.824.664c-8.98 2.234-16.887 5.142-25.176 9.336l5 1v1h-14c1.97-1.97 3.246-2.694 5.746-3.805l2.273-1.013 2.418-1.057 2.462-1.08c17.77-7.73 17.77-7.73 24.101-7.045z"/><path fill="#DDEDEF" d="M112 225v1l-2.52.148-3.293.227c-1.078.07-2.157.14-3.269.21-3.104.227-3.104.227-5.918 2.415l-1-1c-2-.04-4-.043-6 0l-1.313 2.813C86.23 235.457 86.23 235.457 84 237c-2.688.188-2.688.188-5 0 1.142-3.426 2.118-4.018 5-6l1-1-8-1c2.873-1.915 3.758-2.293 6.992-2.633l2.37-.254 2.513-.238 2.562-.257A162.03 162.03 0 01112 225z"/><path fill="#D9EBEC" d="M119 222l1 3-34-1c6.825-6.825 24.055-2.684 33-2z"/><path fill="#FCF4D8" d="M548 257c-6.693 3.652-14.478 4.173-21.969 4.754-2.096.138-2.096.138-4.031 1.246-1.373.15-2.753.248-4.133.316l-2.441.127-2.551.12-2.574.13c-2.1.107-4.2.207-6.301.307 3.522-2.348 5.941-2.632 10.117-3.254l2.104-.32c2.217-.337 4.435-.663 6.654-.988 2.211-.332 4.422-.665 6.633-1 2.01-.302 4.023-.6 6.034-.897 2.1-.329 4.196-.697 6.275-1.138 2.398-.443 3.89-.167 6.183.597z"/><path fill="#F9F3DA" d="M502 270l1 3c-4.866 3.235-9.706 5.89-15.117 8.105-2.063.852-2.063.852-3.883 2.895-2.82.633-2.82.633-6.125 1.125l-3.32.508L472 286c1.305-2.61 2.152-2.558 4.875-3.5 8.75-3.326 16.9-8.067 25.125-12.5z"/><path fill="#447689" d="M401 224c1.705 3.285 2.767 6.406 3.688 10l.824 3.125c.47 2.764.42 4.273-.512 6.875l-1-4h-2v18h-2l-1 2 .465-3.621c.718-6.464.887-12.944 1.098-19.442l.13-3.779c.106-3.052.208-6.105.307-9.158z"/><path fill="#79713D" d="M524 170c2.75.25 2.75.25 5 1 .688 2.25.688 2.25 1 5-1.313 2.313-1.313 2.313-3 4h-2c0-4 0-4 2-6l-3-1-2 2.125c-5.382 5.336-10.5 9.312-18 10.875 3.888-4.425 8.343-7.23 13.379-10.254 2.687-1.657 2.687-1.657 4.789-3.976L524 170z"/><path fill="#A64248" d="M390 144c.625 1.875.625 1.875 1 4l-2 2c-.307 2.9-.512 5.718-.625 8.625l-.117 2.43A859.923 859.923 0 00388 167l2-1c.25 2.313.25 2.313 0 5-2 1.813-2 1.813-4 3-2-2-2-2-2.082-5.379.075-1.395.166-2.79.27-4.184l.15-2.186C384.891 155.484 386.2 149.7 390 144z"/><path fill="#E6F6FA" d="M217 310h-3v2l-11 3v2c-20.532-.617-20.532-.617-30-4v-1c10.2.853 10.2.853 14.063 1.563 8.737 1.3 14.937.091 22.937-3.563 3.133-1.044 3.99-.934 7 0z"/><path fill="#EECF73" d="M298 292l4 3c-2.395 2.9-4.312 3.502-8 4v2h-2v2l-3 1-1 5-1-3-4 1-1-6c1.729-.481 3.458-.96 5.188-1.438l2.917-.808A117.265 117.265 0 01298 297v-5z"/><path fill="#4A8CA3" d="M184 292h14l1 7 8 1v1c-1.791.054-3.583.093-5.375.125l-3.023.07C196 301 196 301 194 299l2-1-10-1 3-3-5-1v-1z"/><path fill="#203749" d="M407 253c1.991 2.986 2.941 5.597 4 9h2v8h-6l-2-4 1-1c.234-2.016.413-4.038.563-6.063l.253-3.347L407 253z"/><path fill="#F3EFDE" d="M458 296l1 4h5v2h-3l2 1v2c-1.437.081-2.874.14-4.313.188l-2.425.105C454 305 454 305 452.25 303.656c-1.613-2.137-1.895-4.032-2.25-6.656l6 2 2-3z"/><path fill="#711C26" d="M396 156c2.588 4.547 2.368 8.628 2.375 13.75l.074 2.633c.029 6.28-1.265 10.205-4.449 15.617l-2-1v-3h2c.788-3.535 1.175-6.902 1.316-10.52l.127-3.095.12-3.197.13-3.256c.106-2.644.208-5.288.307-7.932z"/><path fill="#C5A962" d="M385 297l1 3h2v3l4 1-1 5h5v-2h5c-1 2-1 2-3.625 3.125-3.593.932-6.68 1.023-10.375.875a84.76 84.76 0 012-7l-7-1 3-6z"/><path fill="#C1B275" d="M417 247c2.503 2.938 3.47 5.179 4 9l5-2 2 2-13 2 1 4c-.438 2.25-.438 2.25-1 4l5 1c-3.01.934-3.867 1.044-7 0-.324-5.504-.533-9.437 3-14l2 2-1-8z"/><path fill="#FBF2D5" d="M472 287l-1.953 1.176c-2.256 1.663-2.256 1.663-2.656 4.304l-.141 2.707-.172 2.731L467 300l-2-1 1-4h-5l-2-5c1.41-.702 2.828-1.386 4.25-2.063l2.39-1.16c2.62-.863 3.809-.707 6.36.223z"/><path fill="#4D757D" d="M347 265c5.053.632 9.296 2.135 14 4l-1 4c-6.75-.75-6.75-.75-9-3-2.57-.648-2.57-.648-5-1l1-4z"/><path fill="#D6B369" d="M442.563 312.938L446 313l2 6c-7.625 1.25-7.625 1.25-11-1 1.126-4.985 1.126-4.985 5.563-5.063z"/><path fill="#FBEABB" d="M543 252l-1 2c-2.313.594-2.313.594-5.355 1.07l-3.327.528-3.505.527-3.448.55c-5.186.806-10.106 1.426-15.365 1.325l1-2c5.247-1.713 10.6-2.42 16.063-3.125l2.037-.266c4.323-.524 8.548-.688 12.9-.609z"/><path fill="#CAC6BF" d="M513 208h2c.369 14.781.369 14.781-2 21h-2l-1-7h2l-3-10 3 3 1-7z"/><path fill="#DEAF4E" d="M499 227c1.523 2.937 2.801 5.917 4 9l6-3v6l-6 1v2h-2a681.79 681.79 0 01-1.563-5.813l-.878-3.269C498 230 498 230 499 227z"/><path fill="#5593A7" d="M166 258c2.438.114 4.875.24 7.313.375.69.03 1.38.062 2.091.094 3.666.212 5.475.45 8.596 2.531-2.25 2.5-2.25 2.5-5 5h-4v2h-3v2l-3-1c4.75-3.875 4.75-3.875 7-5l-3-2 3-1-10-1v-2z"/><path fill="#1E303F" d="M414 237h1v19l-4-3v-2h-2c-.625-2.375-.625-2.375-1-5l2-2 3 1 1-8z"/><path fill="#DDB359" d="M565 241l1 2h8v4a88.406 88.406 0 01-5 1l-1-1c-4.333.417-8.035 1.198-12 3 1-3 1-3 3.938-4.5L563 244l2-3z"/><path fill="#759EAA" d="M495 159l1 4-5 1 11 1v1h-17l2-1v-2h-5c4.063-2.709 8.1-4 13-4z"/><path fill="#61502A" d="M397 266h1v6l3.813-.188c3.91-.02 3.91-.02 6.187 1.688l1 1.5c-1 1-1 1-3.041 1.022l-2.65-.143-2.862-.147-3.01-.17-3.021-.158c-2.472-.13-4.944-.265-7.416-.404v-1h10v-8z"/><path fill="#3F7084" d="M375 264c2.763.523 5.326 1.109 8 2v3c-3.595 2.26-6.566 2.209-10.75 2.125l-3.547-.055L366 271v2h-4l-1-3 2.703-.148 3.547-.227 3.516-.21c2.94-.377 4.733-.892 7.234-2.415l-3-1v-2z"/><path fill="#FBF6E6" d="M457 292l1 1a176.79 176.79 0 01-1 7l-3.188-1.438c-2.914-1.255-5.66-2.084-8.812-2.562 4.213-2.809 6.828-4.42 12-4z"/><path fill="#3C6572" d="M290 288l1.563.438c3.51.81 6.837.622 10.437.562l-1.938.688L298 291l-1 5-13 1c4-3 4-3 7.25-2.688L294 295v-3h-4l-1-3 1-1z"/><path fill="#AD2A33" d="M388 150l3 1v15l-4 2 1-18z"/><path fill="#6C939B" d="M415 234h5v7l-2 1c-.392 2.291-.392 2.291-.5 4.938-.279 4.84-.279 4.84-2.5 7.062v-20z"/><path fill="#3F342F" d="M490 217l-1 7a329.01 329.01 0 01-4.438-.375c-.823-.07-1.647-.14-2.496-.21L480 223l-1-2c1-2 1-2 3.25-3.125 2.766-.88 4.87-1.04 7.75-.875z"/><path fill="#D1E7EA" d="M115.375 214.813l2.398-.043C120 215 120 215 123 217l-15 1v2H96c2.62-2.62 4.43-2.547 8.063-3.063 4.197-.603 7.18-2.091 11.312-2.125z"/><path fill="#D6E9EB" d="M114 202l-5 2 3 2c0 2 0 2-2.375 4.625C107 213 107 213 105 213l.063-2.313c.066-2.789.066-2.789-1.063-5.687h4v-2l-4-1c3.663-.75 6.424-1.238 10 0z"/><path fill="#D4BE8A" d="M451 309h2l1 15-5 1c-1-1-1-1-1.063-3.563L448 319h3v-10z"/><path fill="#DFBE72" d="M351 299l2 1v1c1.98-.14 3.959-.287 5.938-.438 1.102-.08 2.204-.162 3.34-.246 2.633-.02 2.633-.02 3.722-1.316 2-.04 4-.043 6 0-4.035 3.314-7.164 4.135-12.328 4.098l-2.422-.01-2.5-.026-2.547-.013c-2.068-.012-4.135-.03-6.203-.049 1.634-1.708 2.87-2.935 5-4z"/><path fill="#F6F3E7" d="M519 213c1.338.312 2.671.648 4 1h3c-1.857 8.714-1.857 8.714-5 11l-1-5-1 3h-2c.14-1.48.288-2.959.438-4.438.08-.823.162-1.647.246-2.496C518 214 518 214 519 213z"/><path fill="#68A9BC" d="M336 181h16l-1 3 10 1v1h-23c3.204-2.136 4.02-2.231 7.688-2.125l2.449.055L350 184v-2h-14v-1z"/><path fill="#74B0C1" d="M143 279c-.313 1.938-.313 1.938-1 4l-3 1c-.733 2.015-.733 2.015-1 4l-3-1c-1.188-3.563-1.188-3.563-2-7 3.406-.778 6.508-1.1 10-1z"/><path fill="#A5B097" d="M429 246l1 4h2v5c-3.576 0-5.053-1.088-8-3l-2 2c-1.063-1.813-1.063-1.813-2-4l1-3h4l1 4h3v-5z"/><path fill="#4F8BA3" d="M389 230c1.812 3.625 2.249 4.595 2.195 8.328l-.02 2.422-.05 2.5-.027 2.547A916.47 916.47 0 01391 252l-1.363-1.922C387.9 247.873 386.56 247.06 384 246l2-1v-7c2 2 2 2 3 5v-13z"/><path fill="#EEF8FA" d="M95 236c2.343.256 4.678.593 7 1l1 2c-7.625 2-7.625 2-11 2l-1 4-2-2a88.982 88.982 0 00-4-2c3.285-2.19 6.207-2.998 10-4v-1z"/><path fill="#588495" d="M207 307l19 1v1l-2.563.113c-8.057.467-13.869 1.81-21.187 5.137-2.594.865-3.687.504-6.25-.25l2.152-1.023 2.786-1.352 2.777-1.336c2.414-1.081 2.414-1.081 3.285-3.289z"/><path fill="#6AA8BF" d="M189 277h21l-1 2c-8.16 1.491-16.738 1.12-25 1v-1l5-1v-1z"/><path fill="#D5BB7D" d="M458 290c1.75 1.313 1.75 1.313 3 3v2h5l-1 5h-6l-.813-3.375c-.845-3.843-.845-3.843-4.187-5.625 1.813-.688 1.813-.688 4-1z"/><path fill="#428499" d="M180 286l-3 1-1 5h-4v-3l-9-1v-2c2.083-.196 4.166-.381 6.25-.563l3.516-.316c2.753-.103 4.654.017 7.234.879z"/><path fill="#5C96A7" d="M157 303l1.723.586c4.73 1.595 9.465 3.083 14.277 4.414l1-3 1 2-1 3 2 1c-7.146-.161-12.43-1.331-18-6l-1-2z"/><path fill="#1A242B" d="M396 260h3l-2 14h-15v-2l13 1a853983180500685.2 853983180500685.2 0 000-12l1-1z"/><path fill="#C09237" d="M544 228h3c2.19 2.19 2.74 2.963 3 6-1.438 2.75-1.438 2.75-3 5l-3-3-2 2 2-10z"/><path fill="#F7F5E0" d="M546 211h5v5h-6v3h-2v-2l-11 1v-2l2.555-.078 3.32-.172 3.305-.14c2.953-.298 2.953-.298 4.203-2.657L546 211z"/><path fill="#BCC39B" d="M304 283l3 2h3l-2 7h-2v-2l-7 2-1 5h-7v-1h6l-.625-1.875L296 292c2.686-2.686 5.376-3.06 9-4l-1-5z"/><path fill="#546167" d="M527 156h9c-1.25 3.75-2.933 4.575-6 7a115.013 115.013 0 00-4 5v-4h2v-4l-2-2 1-2z"/><path fill="#844048" d="M420 150l2 1c.205 8 .135 15.261-2 23l-1-2h-2l1-4h2v-18z"/><path fill="#3F7D99" d="M208 301h3l-1 5h-3l-1 4a402.219 402.219 0 01-4.938-.375c-.916-.07-1.833-.14-2.777-.21L196 309l-1-2 3.027-.586 3.91-.789 3.903-.773L209 304l1-2-2-1z"/><path fill="#D8CE89" d="M335 283v4l-3.5-.25c-4.296-.038-7.025 1.254-10.64 3.473-2.339.977-3.514.602-5.86-.223 14.927-7.655 14.927-7.655 20-7z"/><path fill="#C6B36C" d="M376 273l-2 3c-2.348.258-2.348.258-5.063.125A125.1 125.1 0 00364 276l-1 1c-2.02.072-4.042.084-6.063.063l-3.347-.028L351 277v-1c3.414-.701 6.831-1.384 10.25-2.063l2.934-.603 2.832-.557 2.602-.523c2.434-.26 4.071-.005 6.382.746z"/><path fill="#73A5B5" d="M138 289l3.75.563c3.013.384 5.35.524 8.25-.563l-2 5 4 1c-2.996.889-4.516 1.196-7.457.004l-2.356-1.442-2.394-1.433L138 291v-2z"/><path fill="#F5DFA3" d="M354 296l2 2-9 4 5 1v1h-14c2.643-2.643 5.729-3.72 9.125-5.125l1.996-.84c1.625-.683 3.252-1.36 4.879-2.035z"/><path fill="#4A605A" d="M330 283c-6.618 4.412-15.004 8.968-23 10 1-2 1-2 2.848-2.633l2.214-.492 2.223-.508L316 289v-2h3v-2c3.823-1.423 6.913-2.24 11-2z"/><path fill="#335561" d="M453 232l1 4 4-1c-1.625 5.75-1.625 5.75-5 8h-3l-1-5h4v-3h-2v-2l2-1z"/><path fill="#69A4B6" d="M196.688 241.813l3.574.082L203 242l-2 3c-3.258.293-3.258.293-7.125.188l-3.883-.083L187 245c2.693-3.704 5.336-3.317 9.688-3.188z"/><path fill="#608FA2" d="M419 176h22v3l-3-1a73.19 73.19 0 00-4.012-.316l-2.295-.127-2.38-.12-2.417-.13c-1.965-.106-3.93-.207-5.896-.307l-1 6-3 1 2-8z"/><path fill="#E7BB55" d="M250 323v2l2 1-2 6-4-1-1-6c3-2 3-2 5-2z"/><path fill="#1F3248" d="M392 245h2c1.187 3.56 1.097 6.438 1.063 10.188l-.028 3.855L395 262l-1-4h-2v-13z"/><path fill="#FBF8E0" d="M510 216c2 2 2 2 2 6h-3v-2l-2.887.621-3.8.816-3.762.81A591.164 591.164 0 01490 224v-2l2.336-.621 3.039-.816 3.023-.81c2.556-.655 2.556-.655 4.602-1.753 2-.04 4-.043 6 0l1-2z"/><path fill="#33687C" d="M232 305h7v2l4-1-1 4h-9l-1-5z"/><path fill="#E0BF65" d="M370 293v2l-3 1-1 2c-2.066.414-2.066.414-4.563.625l-2.503.227L357 299l-1-2c1.58-.675 3.164-1.34 4.75-2l2.672-1.125C366 293 366 293 370 293z"/><path fill="#3E7F99" d="M403 249h1c.197 1.415.382 2.832.563 4.25l.316 2.39c.121 2.365-.183 4.111-.879 6.36h-3v2h-2l1-6h2l-.063-3.938A59.19 59.19 0 01402 250l1-1z"/><path fill="#416576" d="M406 245h1v18l-9 3 1-4v2h2l-1-3 5-1 1-15z"/><path fill="#997937" d="M519 222c3.375 4.5 3.375 4.5 3.688 8.75l.199 2.422L523 235h-2v2h-2v-15z"/><path fill="#E2C875" d="M484.5 225.813L486 227c-5.563 2.66-10.933 3.962-17 5 4.112-3.726 9.767-8.05 15.5-6.188z"/><path fill="#648B96" d="M480 163h7v2l15 1v1c-3.292.029-6.583.047-9.875.063l-2.84.025-2.715.01-2.507.016C482 167 482 167 480 166v-3z"/><path fill="#DEAB94" d="M395 117c2.36 2.36 2.491 3.779 3 7h2c-.25 2.375-.25 2.375-1 5l-4 2v-14z"/><path fill="#54797C" d="M430 235c3.444 3.444 4.944 5.862 5.188 10.813L435 249l-5 1v-4h-3v-2l4-1 .375 1.938L432 247l2 1-.875-2.082-1.125-2.73-1.125-2.708C430 238 430 238 430 235z"/><path fill="#A2D7E9" d="M331 209l-2 1v3h-13c4.208-4.208 9.313-4.227 15-4z"/><path fill="#DDC177" d="M270 305l2 1-1.938.313L268 307l-1 3a70.134 70.134 0 01-4 1l-1 2h3l-1 2h-5v-4c1.645-1.45 1.645-1.45 3.813-2.688l2.144-1.261C267 306 267 306 270 305z"/><path fill="#E0BD65" d="M368 289c2.333.037 4.667.048 7 0v1l-2.633.586-3.492.789-3.445.773c-3.214.798-6.306 1.76-9.43 2.852v-2l5-1-2-1v-2c3.055-1.527 5.663-.492 9 0z"/><path fill="#C49E45" d="M408 273c5.75 1.875 5.75 1.875 8 3l-1 3c-4.03-.553-8.02-1.156-12-2v-1l5-1v-2z"/><path fill="#2C5D77" d="M321 249c1.673.65 3.339 1.32 5 2l2.094.75C330 253 330 253 330.828 255.383l.422 2.742c.15.91.3 1.82.453 2.758L332 263l-3-1-.375-2.938L328 256l-2-1c-1.762-1.927-3.357-3.968-5-6z"/><path fill="#D9E9EA" d="M89 244v2l-3.438 1.313L82 249l-1 3 2 1-5-1-1-4a562.649 562.649 0 014.313-2l2.425-1.125C86 244 86 244 89 244z"/><path fill="#45819A" d="M276 244l1 2-1.864.076c-2.796.116-5.59.239-8.386.362l-2.934.119-2.832.127-2.602.11c-2.232.193-4.232.594-6.382 1.206v-1l-5-1v-1l29-1z"/><path fill="#E1B462" d="M575 233l3 2c-.5 1.875-.5 1.875-2 4-2.652.985-5.205 1.46-8 2v-5h7v-3z"/><path fill="#F5F3E8" d="M507 208l2 1-3 6h-2l-1 2c-2.867-.573-3.861-.861-6-3l1.934-1.059 2.503-1.379 2.497-1.37c1.99-1.029 1.99-1.029 3.066-2.192z"/><path fill="#78612D" d="M413 267c2.929.628 5.361 1.586 8 3l-1 3-11-2 4-1v-3z"/><path fill="#FCF6DC" d="M575 232l5 1c1 3 1 3 .063 5.688C578 241 578 241 576.015 241.32c-2.008-.007-4.015-.156-6.016-.32l1.813-.875c2.38-1.172 2.38-1.172 5.187-3.125l-2-5z"/><path fill="#4E91AB" d="M447 235l2 4c-1 1-1 1-3.938 1.125C442 240 442 240 440 239v-3c2.463-1.231 4.28-1.072 7-1z"/><path fill="#8EC3CF" d="M185.375 228.938l3.773.027L192 229v1c-.957.09-.957.09-1.934.184l-2.504.254-2.496.246c-2.053.105-2.053.105-3.066 1.316-1.682.233-3.371.413-5.063.563l-2.785.253L172 233v-3c4.518-.883 8.775-1.106 13.375-1.063z"/><path fill="#63303F" d="M417 173l3 1-4 18h-1c.14-2.792.287-5.583.438-8.375l.119-2.406c.33-5.992.33-5.992 1.443-8.219z"/><path fill="#F6EACC" d="M439 299h-3v2c-7.05 2.08-12.738 3.536-20 2v-1l2.633-.367 3.492-.508 3.445-.492c3.445-.554 3.445-.554 6.711-1.727 2.829-.943 3.986-.957 6.719.094z"/><path fill="#5E9CB5" d="M216 258h16c-4 2-4 2-6 2v2l-10-2v-2z"/><path fill="#B68836" d="M535 219c2.313 3.47 2.04 4.983 1.426 8.992-.526 2.48-1.351 4.716-2.426 7.008h-1c-.207-5.789.408-10.43 2-16z"/><path fill="#701D26" d="M397 191h13l-1 2c-2.882.96-4.699 1.106-7.688 1.063l-2.449-.028L397 194v-3z"/><path fill="#3E5A58" d="M360 270l2 1v2h4v-2l13-1c-3.534 3.534-8.728 3.89-13.594 4.125-2.136 0-4.271-.057-6.406-.125l1-4z"/><path fill="#29536D" d="M330 268c.625 1.875.625 1.875 1 4l-2 2c-4 0-4 0-5.75-1.375C322 271 322 271 322 269l3.438.063c3.378.353 3.378.353 4.562-1.063z"/><path fill="#FAECE3" d="M394 124h1v10h3v3h-5v-3c-.317-2.336-.648-4.67-1-7h2v-3z"/><path fill="#FAEFD4" d="M412 304c-12.214 7.229-12.214 7.229-16.438 6.688L394 310l3.25-1.313c2.928-1.245 5.242-2.716 7.75-4.687 3.133-1.044 3.99-.934 7 0z"/><path fill="#40839A" d="M195 294l3 1c.688 2.063.688 2.063 1 4l8 1v1c-1.791.054-3.583.093-5.375.125l-3.023.07C196 301 196 301 194 299l2-1-4-2 3-2z"/><path fill="#A5D6DF" d="M140 277v2c-3.05 1.525-5.642 1.236-9 1-1.938-1.5-1.938-1.5-3-3 4.256-1.16 7.684-.762 12 0z"/><path fill="#658A89" d="M452 244c-5.658 1.81-11.087 3.357-17 4v-4l2.082.035 2.73.028 2.708.035c8.692-.343 8.692-.343 9.48-.098z"/><path fill="#C3DFE2" d="M101 273l1.063 1.5c2.88 2.23 5.407 1.7 8.937 1.5l1 4a319.241 319.241 0 01-4.75-.813l-2.672-.457c-2.77-.784-4.404-1.876-6.578-3.73h3v-2z"/><path fill="#2C5C76" d="M330 248c2.042 1.692 2.918 2.637 3.512 5.262l.175 2.425.2 2.45L334 260h2v4l-3 1c-.504-2.27-1.003-4.541-1.5-6.813l-.844-3.832C330 251 330 251 330 248z"/><path fill="#E4C273" d="M538.688 216.875l2.449.055L543 217v1h-8l-1 6h-2l-1 2c-.188-3.375-.188-3.375 0-7 3.204-2.136 4.02-2.231 7.688-2.125z"/><path fill="#D4A243" d="M536 219c3.07 2.477 3.937 3.667 4.688 7.625L541 230l1 2-2 2-2-7-2 1v-9z"/><path fill="#7299A9" d="M126 74h3v2l-2 1-2 4-9-1 1-2 2.813.25L123 78c1.705-1.94 1.705-1.94 3-4z"/><path fill="#34667A" d="M222 304l2 1zm-4 1c4.714.48 8.666.968 13 3v1l-15-1 2-3z"/><path fill="#4F7376" d="M389 260l1 2h2l-1 3h-5l-1 3-5-2 1-2c2.322-.407 4.657-.744 7-1l1-3z"/><path fill="#6FACBE" d="M171 254l12 1v2c-4.41 1.102-8.484 1.077-13 1l4-1v-2l-3-1z"/><path fill="#D7AF50" d="M381 272l1 2h5v1h-6v3l-6-2v-3l6 1v-2z"/><path fill="#E7F4F7" d="M124.25 195.75l2.75.25-1 3c-3.563 1.688-3.563 1.688-7 3l-2-2c2.41-2.967 3.347-3.95 7.25-4.25z"/><path fill="#4D393E" d="M410 114c2.321 3.482 2.699 5.862 3 10l-2 2h-2v-4l-.063-3.125C409 116 409 116 410 114z"/><path fill="#F9F4D3" d="M383 303l6 1a84.76 84.76 0 01-2 7h5v1h-7l.125-3.375c.286-3.669.286-3.669-2.125-5.625z"/><path fill="#D5B95F" d="M348 279l-1 3h-4v2l-4 1c1.457-4.615 1.457-4.615 3.938-6.375C345 278 345 278 348 279z"/><path fill="#434234" d="M412 262h1v8h-6l-2-4 3-2v5h3l1-7z"/><path fill="#4F829D" d="M303 266l18 2v1h-18v-3z"/><path fill="#E6B144" d="M496 258h6v6l-4 1v-5h-2v-2z"/><path fill="#406D7C" d="M401 240h1v18h-2l-1 2 2-20z"/><path fill="#F2CD69" d="M436 249c6.055-.195 6.055-.195 8 0l2 2-10 3v-5z"/><path fill="#D0B76B" d="M503 220h6c.125 2.875.125 2.875 0 6l-2 2c-4-5.75-4-5.75-4-8z"/><path fill="#D0E6E7" d="M99.125 212.938l3.32.027L105 213v1l-1.898.078-2.477.172-2.46.14c-2.353.402-2.353.402-3.454 2.657L94 219l-3-1v-4c2.765-1.382 5.046-1.095 8.125-1.063z"/><path fill="#B79235" d="M499 227l2 4 1.688 3.125L504 237c-1 2-1 2-3 3a428.65 428.65 0 01-1.563-4.813l-.878-2.707C498 230 498 230 499 227z"/><path fill="#C3953E" d="M518 224v14c-2.108-3.162-2.338-4.507-2.625-8.188l-.227-2.73L515 225c2-1 2-1 3-1z"/><path fill="#847B45" d="M534 184h5v3c-1.75 1.387-1.75 1.387-4 2.688l-2.25 1.324L531 192c.313-1.938.313-1.938 1-4l3-1-1-3z"/><path fill="#53322F" d="M397 113l2 2c2.069.643 2.069.643 4 1l-1.938.688c-2.334 1.165-2.334 1.165-2.812 3.937L398 123l2 1h-2l-1 2-2-12 2-1z"/><path fill="#DEBE61" d="M348 296h6c-3.625 3.172-7.512 4.429-12 6l-1-3 7-1v-2z"/><path fill="#BA923E" d="M421 270l6 2v4c-4.75-.875-4.75-.875-7-2l1-4z"/><path fill="#BECA98" d="M349 268l9 1 1 4c-4.752-.432-6.92-1.328-10-5z"/><path fill="#D1E8ED" d="M90 255c3 1 3 1 5 4 .195 2.262.195 2.262.125 4.688l-.055 2.449L95 268l-2 1-.148-1.793c-.417-4.398-.902-8.176-2.852-12.207z"/><path fill="#D9C17C" d="M466 233l2 2-2.152 1.242-2.786 1.633-2.777 1.617c-2.392 1.305-2.392 1.305-3.285 3.508l-4-1 13-9z"/><path fill="#5B857E" d="M480 203v2c-4.385 3-4.385 3-7 3l-1 2-1-5c3.371-1.498 5.204-2 9-2z"/><path fill="#847B3A" d="M518 194l5 2c-2.755 2.96-5.466 5.037-9 7l-1-2h2v-2l3-3v-2z"/><path fill="#89262E" d="M386 186h2v8l-4 1-1-3h2l1-6z"/><path fill="#CEE7E8" d="M149 177l-1.875 1.25c-2.193 1.806-3.053 3.16-4.125 5.75-2-1-2-1-3-3h2v-2l-2-1c5.625-2.125 5.625-2.125 9-1z"/><path fill="#FCF3D6" d="M318 313c-1.188 1.5-1.188 1.5-3 3-2.688.188-2.688.188-5 0v2h-6c2.25-2.25 4.063-3.005 7-4.188l2.688-1.105C316 312 316 312 318 313z"/><path fill="#FBF2CE" d="M381.188 296.875L385 297c-1.293 2.884-2.66 4.872-5 7l1-5h-7c3.089-2.06 3.71-2.239 7.188-2.125z"/><path fill="#C9A456" d="M416 300v1h-8v3l-7 3c.295-2.853.812-3.836 3-5.75 4.063-1.693 7.66-1.505 12-1.25z"/><path fill="#FEF5CC" d="M521.25 254.938l2.703.027L526 255c-3.266 1.913-5.994 2.357-9.75 2.625l-2.984.227L511 258c1-2 1-2 2.734-2.621 2.547-.426 4.935-.475 7.516-.441z"/><path fill="#737D5A" d="M418 247h2l2 6 3-2 2 4-6 1-3-9z"/><path fill="#1D4056" d="M390 227c1.52 1.113 1.52 1.113 3 3 .074 2.918.074 2.918-.313 6.188l-.363 3.292L392 242h-1c-.36-2.311-.714-4.624-1.063-6.938l-.597-3.902L389 228l1-1z"/><path fill="#4B3E22" d="M489 212c-.188 1.875-.188 1.875-1 4-2.5 1.125-2.5 1.125-5 2l-1 2-2-2a482.758 482.758 0 013.375-3l1.898-1.688C487 212 487 212 489 212z"/><path fill="#897F4A" d="M525 171l5 1c-.547 3.375-1.055 5.082-3 8h-2c0-4 0-4 2-6l-2-1v-2z"/><path fill="#F9F8E8" d="M441 302c3.402 1.628 6.168 3.483 9 6v2h-4c-1.484-1.75-1.484-1.75-2.75-4l-1.297-2.25L441 302z"/><path fill="#D5C188" d="M388 264l3 1v5h-4l-1-5 2-1z"/><path fill="#A9A271" d="M429 246l1 4h2v5h-3l-2-4h2v-5z"/><path fill="#DBBA76" d="M569 243h5v4c-4.054 1.158-6.218.837-10-1v-1l8 1v-2l-3-1z"/><path fill="#78B2C0" d="M197 234l-1 3h-12c4.718-2.359 7.763-3.145 13-3z"/><path fill="#538CA3" d="M386 216h1l2 13h-3c-.838-4.655-1.016-8.37 0-13z"/><path fill="#EFECDF" d="M517 200l2 1-2 3 2 1-4 1v2h-2l-1-4 5-4z"/><path fill="#62919F" d="M210 310l-4 2-3 1.688c-3.227 1.411-3.832 1.33-7 .312 4.774-2.714 8.344-4.566 14-4z"/><path fill="#F1D582" d="M298 292l4 3c-2.395 2.9-4.312 3.502-8 4v2l-3-1c3.625-3 3.625-3 7-3v-5z"/><path fill="#DEBA70" d="M538 254v2l3 1-7 1v-1l-6-1v-1c3.435-.625 6.49-1 10-1z"/><path fill="#5694A9" d="M253 246l-1 2c-1.625.054-3.25.093-4.875.125l-2.742.07C242 248 242 248 240 246c4.63-1.016 8.345-.838 13 0z"/><path fill="#3F3426" d="M471 216h2v5l6-1c-2.463 2.463-4.707 2.998-8 4-1.097-3.29-.8-4.713 0-8z"/><path fill="#4389A6" d="M452.063 194.938L455 195l1 3-6 1-2-3c1-1 1-1 4.063-1.063z"/><path fill="#786F3F" d="M499 189v2l-2.813 1.25c-3.068 1.684-4.377 2.835-6.187 5.75l-2-1c2.824-4.81 5.089-8 11-8z"/><path fill="#EEE9CE" d="M527 178l2 1v3l6-1 1 3c-7.75-.875-7.75-.875-10-2l1-4z"/><path fill="#DEF0F5" d="M217 310h-3v2l-9 2 1-3c3.914-1.477 6.994-2.602 11-1z"/><path fill="#F9F1D4" d="M451 309v10h-3v-9c2-1 2-1 3-1z"/><path fill="#6C9CA8" d="M157 303l9 3v2h2v2c-4.993-1.277-7.576-3.173-11-7z"/><path fill="#886B2C" d="M402 272l6 1v3h-8l3-1-1-3z"/><path fill="#2D5C7A" d="M361 270h15v1h-10v2h-4l-1-3z"/><path fill="#3B4242" d="M470 215l2 1-2 7h-5l5-8z"/><path fill="#CAE5E8" d="M110 205l2 1v2h-2v-3zm-5 3h5c-1.375 2.5-1.375 2.5-3 5h-2v-5z"/><path fill="#A2614F" d="M399 128l2 2c-.375 2.625-.375 2.625-1 5l-5-1v-3c2-1.688 2-1.688 4-3z"/><path fill="#EFE1BB" d="M445.563 310.813C448 311 448 311 449 312c.04 1.666.043 3.334 0 5h-2l-1-3-5-1c2-2 2-2 4.563-2.188z"/><path fill="#D3B56F" d="M385 297l1 3h2l-1 4-5-1 3-6z"/><path fill="#E1C879" d="M330 283h5v4h-7v-2h2v-2z"/><path fill="#508EA5" d="M189 277l3 2-12 1v-2c3.419-1.614 5.416-2.434 9-1z"/><path fill="#354141" d="M391 267h1v6h-8l1-3h5l1-3z"/><path fill="#F9E7C5" d="M575 227v5h-6v-3c3.75-2 3.75-2 6-2z"/><path fill="#CEE5E5" d="M129 188l-2 4h-5v-3c3.625-2.125 3.625-2.125 7-1z"/><path fill="#4C493E" d="M523 169c0 3 0 3-1.313 4.387L517 177l-2-1c4.625-5.875 4.625-5.875 8-7z"/><path fill="#6F959E" d="M523 156l-1 3c-3.063 1.188-3.063 1.188-6 2l-1-4c2.928-.976 4.956-1.082 8-1z"/><path fill="#FBF4E7" d="M441.188 310.313L443 311l-2.375 1.875c-2.593 2.024-2.593 2.024-4.625 4.125 0-4 0-4 1.25-5.813C439 310 439 310 441.188 310.313z"/><path fill="#FCFAE7" d="M261.188 307.75L264 308l-2.375 1.875c-2.593 2.024-2.593 2.024-4.625 4.125l-2-2c1.823-3.241 2.362-3.95 6.188-4.25z"/><path fill="#666445" d="M334.563 280.938L338 281v5h-2v-4l-4 3v-2l-2-1c1-1 1-1 4.563-1.063z"/><path fill="#C8BA7D" d="M348 271l4 2-2 5c-1.563-1.25-1.563-1.25-3-3 .313-2.188.313-2.188 1-4z"/><path fill="#DDBF69" d="M399 265c2.063.438 2.063.438 4 1l-1 5h-4a99.984 99.984 0 010-5l1-1z"/><path fill="#EFCC61" d="M505 229h3l1 4-5 3c-.125-4.75-.125-4.75 1-7z"/><path fill="#6F8A9C" d="M416 186h1c.108 1.603.186 3.207.25 4.813l.14 2.707c-.39 2.48-.39 2.48-2.406 4.304L413 199l.434-1.703a292.268 292.268 0 001.628-7.047l.536-2.422L416 186z"/><path fill="#E2EAE5" d="M268.313 304.875L270 306c-3.83 1.802-6.781 2.196-11 2 2.817-2.817 5.38-4.613 9.313-3.125z"/><path fill="#D2B15E" d="M461 296h5l-1 4-5-1 1-3z"/><path fill="#FBECB2" d="M364.438 292.75L366 294c-1.266.532-2.538 1.05-3.813 1.563l-2.144.878C358 297 358 297 355 296c6.4-4.185 6.4-4.185 9.438-3.25z"/><path fill="#5090A8" d="M203 252h9l-4 2-1 1c-2 .04-4 .043-6 0l2-1v-2z"/><path fill="#D8E9E7" d="M87 233c-1.188 2-1.188 2-3 4-2.688.25-2.688.25-5 0l1-3c2.463-1.231 4.28-1.072 7-1z"/><path fill="#D3D2CA" d="M519 213l2 2c-.242 1.945-.242 1.945-.875 4.125l-.617 2.195L519 223h-2c.14-1.48.288-2.959.438-4.438.08-.823.162-1.647.246-2.496C518 214 518 214 519 213z"/><path fill="#873B45" d="M410 137l.25 1.875c.563 2.31.563 2.31 2.813 3.375L415 143c-1 1-1 1-3.563 1.063L409 144c0-2.621.313-4.51 1-7z"/><path fill="#648284" d="M240 69l2 1-2 4-10-2v-1l3.875.125c2.144.117 2.144.117 4.125-.125l2-2z"/><path fill="#D0B363" d="M443.688 293.75c1.438.064 2.876.142 4.312.25-2.855 1.903-4.42 2.462-7.688 3.125l-2.449.508L436 298c1.847-3.941 3.592-4.276 7.688-4.25z"/><path fill="#D6AC49" d="M441 290c1.938.313 1.938.313 4 1l1 3-6 1 1-5z"/><path fill="#EBD26D" d="M306 290v2h-2l-1 3-4-2v-2c4.75-1 4.75-1 7-1z"/><path fill="#F2ECD2" d="M472 287l-2 1.313-2 1.687v3h-2v-4l-2-1c3.067-1.862 4.597-2.215 8-1z"/><path fill="#8CBAC5" d="M132 280l-2 5-5-2v-2c2.463-1.231 4.28-1.072 7-1z"/><path fill="#608077" d="M400 261l7 1c-2.938 2.503-5.179 3.47-9 4l1-4v2h2l-1-3z"/><path fill="#386579" d="M430 235c3.21 3.21 4.927 5.704 5.188 10.313L435 248l-2-4-1.625-3.063C430 238 430 238 430 235z"/><path fill="#69A7B9" d="M249 228l-2 1-1 3v-2h-6l1-2c3.284-.95 4.697-1.101 8 0z"/><path fill="#D9B368" d="M567 223l8 1v3l-3 1-5-5z"/><path fill="#F9EEC8" d="M258 312l1 3 5-1-1 3-5 1v-6z"/><path fill="#FBF2E3" d="M445 296l-2 5-4-2v-2c2-1 2-1 6-1z"/><path fill="#4689A6" d="M441.125 242.938c1.087.291 1.087.291 2.195.59L445 244v1c-6.055.195-6.055.195-8 0l-2-2c2.547-1.274 3.428-.802 6.125-.063z"/><path fill="#DDEEEF" d="M95 240l-3 1c-.733 2.015-.733 2.015-1 4l-2-2a88.982 88.982 0 00-4-2c3.406-.778 6.508-1.1 10-1z"/><path fill="#D8B56F" d="M575 233l3 2-2 4-4-2 3-1v-3z"/><path fill="#DEC874" d="M510 222l4 1-1 6h-2l-1-7z"/><path fill="#5B98B0" d="M420 180h3v4l-6 3 1-4h2v-3z"/><path fill="#FCFAE4" d="M241 322l4 1-2 2c-.643 2.069-.643 2.069-1 4l-3-1 2-6z"/><path fill="#D2C776" d="M314 292l-2 3-6-1 1-2c4.475-1.262 4.475-1.262 7 0z"/><path fill="#FCFCF5" d="M463 289h3l1 5-5-1 1-4z"/><path fill="#376773" d="M277 290h5v4c-1.938-.313-1.938-.313-4-1l-1-3z"/><path fill="#C4A65E" d="M478 283c-5.625 3-5.625 3-9 3l1-3c2.958-1.224 4.997-.965 8 0z"/><path fill="#8F977B" d="M383 267l4 1v2l3 1-9-1 2-1v-2z"/><path fill="#417F94" d="M232 254v3h-7l-1-2c5.75-1 5.75-1 8-1z"/><path fill="#FAEFD0" d="M556 250l2 1-7 6-3-2 2.875-1.375c3.128-1.427 3.128-1.427 5.125-3.625z"/><path fill="#DFB45E" d="M509 227h1c2.429 7.429 2.429 7.429 1 11v-2h-2v-9z"/><path fill="#E5B356" d="M536 229c2 3 2 3 1.625 5.688L537 237h-2c-.042-2.333-.04-4.667 0-7l1-1z"/><path fill="#997936" d="M526 221h2l-2 9c-2-4-2-4-1.125-6.75L526 221z"/><path fill="#473F41" d="M493 213l3 1h-2v3c-2 1.688-2 1.688-4 3l-1-4c1.813-1.563 1.813-1.563 4-3z"/><path fill="#FAF9E7" d="M529 171h3v6l-4 1 1-7z"/><path fill="#71939E" d="M510 162v2c-4.625 2.125-4.625 2.125-8 1 4.625-3 4.625-3 8-3z"/></svg>