<svg xmlns="http://www.w3.org/2000/svg" xml:space="preserve" viewBox="0 0 626 351"><path fill="#FDFDFD" d="M279 352H1V1H627v351c-90 0-180 0-270.4-.4.3-6.5 1-12.6 1.7-19l-.1-3.8-.1-1.2c-.2-5.8-.5-11.2-.4-16.6l13.6 2.3.7-14.5-.6-2.1c0-4.2-.1-8 .1-11.7.8 0 1.2 0 1.6.3l1 2.2c0 7.5 0 7.5 7 7.9 5.2 1 10.3 1.4 16 2v11c2.9 2.3 5.8 4.2 8.5 6-.7.3-2.2.6-3.8 1l1.3 1.2 5 2.1.4-5 .6-7.1c.4-2.5.7-4.6 1.5-6.6 3.1.4 5.8 1.2 8.5 1.1 3 0 7.8.3 8.6-1.3 2.7-5 7-2.9 10.6-3.7 1.7-1.2 3.3-2.6 5-4 .8.4 1.3.6 1.8 1v.2c2.5.2 5.5 1 7-.2a12 12 0 0 1 8.3-3.2c10.3.1 9.5 1.6 9.7-9.4v-.8c.4-.8.7-1.3 1.3-1.8 3 1.8 5.6 3.9 8.4 5.3 1 .5 3.5-.2 4.2-1.2 1.7-2.4 2.8-5.3 4.5-8 4-2.8 7.7-1 11.3.4 8.9 3.2 11 2.2 15.7-6.7 2.5-.5 4.9-.8 7-1-.4-.8-.7-1.6-.7-2.5 2.4-.1 4.3-.3 6.5-.3.6 0 1.1 0 1.6-.2l-.1-.4c-.6 0-1.2 0-2.1-.2l-14.2-2c-.3-1.2-.3-3.7-1.3-4.2-4.3-2-3-5.7-3-9-.1-4.4-.2-8.9 0-13.4.1-3.7-1.7-4.5-5-4.2-3.3.3-6.7.2-10.2 0-1.1-.2-2-.2-3.2-.2-.9 0-1.4.2-2 .4h-.4c-.2 0-.4.3-.7.3-1 0-1.8-.2-2.5-.7v-33.3c-3.5 0-6.3 0-9.4-.2l-3-2.1-8.7 2.8v31.2c-.2 4-.2 7.7-.5 11.4-1 0-1.7 0-2.3-.5-.2-6.4-.3-12.4-.3-18.8v-5.9c-.2-.6-.4-.8-.8-1.1v-2c-.2-2-.6-3.8-.7-5.7.5-4 .6-8 1-12 .3-1.2.4-2 .5-3.3 0-2 .2-3.6 0-5.1l-.8-13.8c0-.2 0-.6.3-.9.2-2.6.6-5.1 0-7.4-.4-1.7-2.1-4.2-3.2-4.2-4.7 0-9.4 1-14.1 1.1-.4-4.4-.8-8.3-1-12.6l-.3-2-.6-1.5-2.2-9.6a87 87 0 0 0-.8-6c-.3-.8-.7-1.3-1-1.8v-.5a102.8 102.8 0 0 0-15-33.6c-.3-.5-.6-.6-1-1l-1.1-1.3-.4-.8c-2.5-4.1-5-7.9-7.8-12-4-4.4-8-8.5-12-13l-2.8-1.8v-.3c-5.5-4.6-10.7-9.4-16.5-13.1-31.1-19.5-64.7-24-100.1-15.6-16.3 3.9-31.6 10.1-45 21l-1.8 1.2-1.4 1C224 65 216 73.2 207.7 81.5c-6.7 9.7-13.8 19-17.2 30.6-2.6 8.1-4.9 16-7.3 24.2l-1.8 9.2-.3 5v25.8l.2 3c1.5 7.2 3 14 4.7 21.2 0 8.5 0 16.5-.2 24.7-1.8 0-3.3-.1-4.7-.7V216c-5.1 0-9.7 0-14.3-.3h-2l-.5.1c-4.3 2.2-5.4 5.7-5.2 10 .2 6.2-1.8 11.7-6.3 16.5-.4.2-.6.3-1 0-.4-.7-.5-1-.5-1.6.1-23.2.2-45.8 0-68.5 0-1.5 1.5-4.5-2.8-3.9l-13.1-.4-4.8.3c-.8 1-1.6 2-1.6 3l.1 79.2c-.4 2-.8 3.8-1.6 5.5a16 16 0 0 1-5-1.3l.1-6.3c.3-5.4-.3-6-6-4.5-.6 3.6-1.3 7.3-2.3 11.2-.4 2.5-.5 4.7-.7 7.3-1.2 1.2-2.4 2.3-3.6 2.6-2.1.3-4.3 0-6.4 0l.1 1.7h56.7c4.2.2 7.9.1 12 .2l5.3 1.2-1.9.1-1.3-.1-16 .1h-14.9l-30-.1v1.1c5.4.4 10.8.7 16.3 1.3 0 .2 0 .6-.2.8.4 2 .8 4 1 6 .2.7.6 1.7 1 1.7l13.8-.2 2.7.1c3-.4 5.5-1 8.3-1.7l8-2.9c-1.6-1.5-3-3-4.2-4.5 2.8-.2 5.2-.3 7.6 0a286.9 286.9 0 0 1 .3 4.6l2.7 1c-.6 2-1.3 3.6-2 5.3l4.6 1.4c1.4 0 2.5 0 3.3.3l-4.7 1.3 3.7.6c0 1.2-.7 2.7-.2 3.1 2.7 2.4 5.6 4.5 8 6.8-.6 1.9-1 3.7-1.2 5.4l4.5.6h3.4c7.8.2 7.8.2 7.8-8 0-.3 0-.6.3-1l1.7.6c1.5.7 3.6 2.2 4.3 1.8 1.3-1 2.2-3 2.5-4.6.4-2.3 0-4.6.2-7.2 2.5.2 4.7.8 7 1.7.2 1.8.6 3.2.9 5v8c.2 6-2 12.2 5.3 15.1.7.3.9 1.8 1.2 2.7 1.4-1.9 2.6-3.8 4.1-5.1 3.2-2.7 5-5.9 4.6-10.4 5.8-1.8 3.3-6.3 3.8-10 .1-1.1.1-1.8.6-2.6a29 29 0 0 1 6.5.3v4.9c-.1 6-1.5 12.2 5.6 15.4 3.9-4.8 4.2-10 2.4-16.1 0-2 .1-3.7.6-5.4 1 2.2 1.7 4.5 2.4 7.2 0 2.6.2 4.9-.2 7-.8 4.8 3.7 5.7 6 8.1.2.3 3.3-2.3 5.4-3.6.8-.4 1.3-.6 1.8-.5.4 6.5 1 12.6.8 18.6-.3 6.1.3 8.3 9 9.4L279 352m-132-67h-13c-3.4-.2-4.7 1.2-4.3 5.4 3.8-.6 7.4-1 10.8-1.8 3.5-.9 7-2.2 11-3.6h-4.4m-4.6-4h12.3v-.7h-24.6v.7h12.3m9.5 1h-21.8v.6h24.5v-.5l-2.7-.1m15.5-5.6s0 .1 0 0z"/><path fill="#2E2942" d="M279.5 352a260 260 0 0 1-4.5-21c0-6.6.2-12.2.6-18.3 0-2.8-.2-5.3-.3-8 0-.3-.3-.7-.2-1 .1-.8.1-1.2.4-2v-3.3l-3.7-8.7-5.8-8-.8-2.1-1-1.9-.3-1-1.6-2.2c-.6-1.3-1-2.3-1.4-3.7 1.4-6.3-2-10.4-4.9-15.2 0-1.1 0-1.9.3-2.8-.8-3.1-2-6-3.1-9 10.3.7 10.3.7 9.5-10.9 1.8.7 3.4 1.4 5.1 1.9 5.6 1.5 10.5-2.7 9-8.1-.6-2-2.8-3.5-4.1-5.4-1.2-1.6-2-3.5-3-5.2l1.4-1 6.1 5.8c-.3-6.6.4-12-1-16.6-1.3-3.9-5.2-7-7.9-10.5-2.6-3.5-1.7-5.8 3.1-6.9 2.5 1.2 4.6 2.3 6.6 3.6 2.4 1.7 4 2.7 5.2-1.4 1.7-5.6-2-8.5-4.9-12-.4-.5-.2-1.4 0-2 7.3 3.5 14.2 6.9 21.2 10.1 1 .4 2.3 0 3.8-.2.8 0 1.2 0 1.7.4a9.5 9.5 0 0 1-1.4 3.6c-3.3.7-6.2 2-9.1 1.8-4.9-.1-5.8 3-6.5 6.5l-.8 4.4-3.1 22c2.5-6.7 3.8-13.6 5.8-20.4 2-6.9 6-12.1 14.6-12.3l12 1.4c2.2.2 4.4.4 6.5 1a27 27 0 0 1-3.4 5.5c-1.8-.3-3.2-.6-4.8-1.2-1.5-.1-3.3-.5-3.9.2-3.5 4.4-7 9-10.1 13.7-1.5 2.2-1.5 4.6 1.8 6 1.1.4 2.2 2.3 2.3 3.5.2 5.8 0 11.6 7.5 12.6l-6.2 4.1 3.8 4.7c.7.8 1.6 1.3 2 2.2 2.4 4.1 6.5 4.7 10.6 5.3l7.8 1c7.6 1 11.9-2.6 11.5-10.3-.3-9.3-1.2-18.5-1.5-27.7 1 0 1.8 0 2.6.4a27 27 0 0 0 1.8 3.2l2-.3v16.5h2.2c0-4.5 0-9.2.4-13.8l2.8-2.1 1-.8c.8.4 1.3.6 1.8 1.3 0 1.8 0 3.2-.3 4.9.6 5.4 1.4 10.5 2.3 15.7l1.5-.2 2.4-3.7c1.4 4.4 3.3 8.7 4 13.2.5 4.1 2.2 4 5.2 3.2 2.4-.7 5-1 8.7-1.8l-5.1 15.3a78 78 0 0 0-2.7 5.3v4.2c-.3 4-1.5 6.8-5.6 7.7-1 .2-1.6 1.8-2.7 3-1.3 1-2.3 2-3.7 3-1.3-.1-2.1-.2-3-.6-2.3-5.1.6-12-6.4-14.5 4.1-3.9 4.1-5.8 0-10-1.6 2.7-4 5.3-4.3 8.1-.4 3.4-1.5 4.8-4.6 6-1.8.6-3 2.8-4.5 4.4 1.7 1 3.3 2.6 5.2 3.2 1.7.6 3.7.1 5.5.2l4 .6.3 1.7c-4 1.5-8 3.1-12 4.4-4.2 1.4-8.5 2.5-12.8 3.8l.5 1.9c8.3-1.8 16.7-3.6 25.2-5-2.3 6.8-.6 13.2.7 19.8 1.2 6.3 1 12.8 1.2 19.2.1 3 1.3 4 4 2.6l-2 18.6c-10 .4-20 .4-30.5 0-.6-12.1-5.7-22.4-9-34.3L312 344c-.5 2.6-.6 5.3-.9 7.9h-31.5m14.3-60.2c-5.4-1-10.7-4.7-17-1.6 7.8 6.5 30.7 7.8 43.2 5.8-2.5-1-5-1.6-7.7-2l-18.5-2.2z"/><path fill="#F4F3F6" d="M311.5 352c-.2-2.6 0-5.3.4-7.9l4.7-26.8c3.2 11.9 8.3 22.2 8.4 34.3-4.4.4-8.7.4-13.5.4z"/><path fill="#FB8E45" d="M208 81.3c8-8 16-16.2 24.6-24.4.9-.4 1.1-.7 1.4-1 .4-.3.8-.7 1.7-.8 4.3.8 8 1.5 11.7 1.8 6.2.4 12.4.3 18.6.6 8.6.4 17.2 1.2 25.8 1.3 9.1 0 18.3-.8 27.5-.6 9.4.2 18.8 1.3 28.2 1.8 5.7.3 11.4 0 17.1.4 10.9.7 21.7 1.6 32.6 2.4v.4l2.9 1.7c3.9 4.2 7.8 8.3 11.8 13.1l.1 7.3h-9.3V87c2.3 0 4.7-.4 6.9 0 3.4.7 6.8 2 10.2 3 0 0 .3.2.4.7.4.7.7 1 1 1.2.4.2.7.3.6.8-4.6.3-8.8.4-13 .4l-33 .1c-6.1.1-12.2.7-18.3.6-11.5 0-23-.3-34.4-.8-8.3-.4-17 2.4-25-2.4-.6-.4-1.5-.5-2.3-.6-5.6-.3-11.1-.9-16.7-1-9.9-.1-19.8.1-29.7 0-2.8-.2-5.6-1.8-8.5-2-5.9-.2-11.8.3-17.7 0-5-.4-10.1-1.3-15.2-2V81.3m181.7.6c-2.4-.3-4.9-.9-7.3-.8a2896 2896 0 0 0-57.1 2c-.6 0-1.2.6-1.8.9 15.8 1.7 31.5 2.6 47.2 2.8 3.6.1 7.3-2.1 11-2.7 5.4-.8 10.9-1 16.3-1.6V82h-8.3z"/><path fill="#FC9F47" d="M208 85c5 .7 10.1 1.6 15.2 2 5.9.3 11.8-.2 17.7 0 2.9.2 5.7 1.8 8.5 2 10 .1 19.8-.1 29.7 0 5.6.1 11.1.7 16.7 1 .8 0 1.7.2 2.3.6 8 4.8 16.7 2 25 2.4 11.5.5 23 .7 34.4.8 6 .1 12.2-.5 18.3-.6h33l13.1-.3a85.3 85.3 0 0 1 15 33.5c-2.2.4-3.9.5-5.5.2-6.8-1.1-13.5-2.5-20.4-3.6-7.4-1.1-15-2-22.4-3l-29.8-4c-6.2-.8-12.4-1.8-18.6-2.4-2.7-.2-6-1.5-7.7 2.3-1-1.4-1.7-2.8-2.6-4-3.6-4.3-7.4-8.5-14.4-7.7l-13.6 4a38 38 0 0 0-4 4.8h-.3c-.7 0-1.1 0-1.7-.4-6.5-.7-13-1-19.5-1.2-1.6 0-3.7.8-4.8.1-2.8-2-5.1-1.3-7.8 0-1.4.6-3.3.5-5 .2-10.8-2-21.7-1.7-32.6 0-7.2 1.2-14.7 4.3-21.5 1-5-2.6-9.2-2.8-14-.8 3.2-11.4 10.3-20.7 17-30.4.3.8.3 1.8.2 3.2 0 .4 0 .3.1.3z"/><path fill="#FA7941" d="M397.1 62.5c-10.8-.5-21.6-1.4-32.5-2.1-5.7-.4-11.4-.1-17.1-.4-9.4-.5-18.8-1.6-28.2-1.8-9.2-.2-18.4.7-27.5.6-8.6 0-17.2-.9-25.8-1.3-6.2-.3-12.4-.2-18.6-.6-3.7-.3-7.4-1-11.4-1.9 12.9-11 28.2-17.3 44.5-21.2 35.4-8.3 69-4 100 15.6 6 3.7 11 8.5 16.6 13.1z"/><path fill="#FDB34A" d="M181.4 178.9c0-.7-.2-1.5 0-2.9.1-9 0-17.5-.2-26 0-1.4 0-2.7.6-4.6 1.1-3.4 1.7-6.4 2.7-9.4l31.8-2 1.3 5.5c1.1-5.2 3-7.9 8.5-4.7.4.2 1.2-.2 1.9-.3 3.2-.5 6.4-1.2 9.7-1.5 7.5-.7 15.1-1.2 22.7-2 5.7-.5 11.4-2.3 17-1.6 5.4.7 10 .3 14.6-2 .4 3.8.4 7.2 1.1 10.5.5 2.2 1.8 4.2 3 6.5l.9 1c0 .2 0 .6-.4.8-5 1-9.6 2.1-14.3 2.9l-43.3 7c-4.9.7-9.8 1.3-14.9 1.6-4-2-4-5.5-4.2-9-.1-1.7-1.3-3.3-2-4.9l-2.1.6c-.8 5.8-1.5 11.5-2.5 17.4l-2.7 4.3c-4.6 2.3-8.8 4.8-13.3 6.8-5.2 2.3-10.6 4-15.9 6z"/><path fill="#FDA548" d="M332.8 116.1c1.4-4 4.7-2.7 7.4-2.5 6.2.6 12.4 1.6 18.6 2.4l29.8 4c7.5 1 15 1.9 22.4 3 6.9 1 13.6 2.5 20.4 3.6 1.6.3 3.3.2 5.4.2.4 0 .4 0 .4.3.3.9.6 1.4 1 1.8l-.1.4c.2 2.2.5 4 .8 5.7.8 3 1.6 5.9 2.3 9.5.2 1 .4 1.2.6 1.5 0 .4.2.9-.1 1.8-1.9 2.1-3.2 4-5 5.3-1.7 1.2-4.5 2.7-5.8 2-2.4-1.2-4-4-6.4-6h-2.9l-3-.1H396c-6 .8-11.4 1-16.5-2.1-3.2-2-6.7-4-10.3-4.6-5.5-.9-11.2-.4-16.7-.6-3 0-6-.4-9-.6l.2-1.5 7-2.3c-1.2-1-2.1-1.1-3-1.3-4.6-1-9.1-2-13.4-3.3l3.4-2.5c5.1-3.6 4.9-8-.8-11.5a60 60 0 0 0-4-2.6z"/><path fill="#FDA747" d="M292 127a21.6 21.6 0 0 1-14.7 2.4c-5.5-.7-11.2 1.1-16.9 1.7-7.6.7-15.2 1.2-22.7 2-3.3.2-6.5.9-9.7 1.4-.7 0-1.5.5-2 .3-5.3-3.2-7.3-.5-8.4 4.7l-1.3-5.4-32 1.9h-1c2.3-8 4.6-15.8 7.2-23.9 5-2.2 9.2-2 14.2.5 6.8 3.4 14.3.3 21.5-.8 10.9-1.8 21.8-2 32.7 0 1.6.2 3.5.3 4.9-.3 2.7-1.3 5-2 7.8 0 1 .7 3.2-.2 4.8-.1 6.5.2 13 .5 19.5 1.6 0 1.5 0 2.2-.3 3-1.5 3.7-2.6 7.4-3.6 11z"/><path fill="#735575" d="M471 277.9c-.3.5-.6 1-1.4 1.9-3 .2-5.7 0-8.5-.4-4.2-1.4-8.8-1.9-7.2-8.5-4 0-7.5 0-10.7-.3 2-3.8 3.6-7.4 5.8-10.7 2.9-4.3 2.1-11.7 10-11.4 0 1.9-.2 3.4.3 4.8.2.8 1.6 1.6 2.4 1.6 1.1 0 3.1-1 3-1.4-.1-4.5 2.5-9.4-1-13.7.1-3.6.1-7.2.5-11 .5 1.2.7 2.7.8 4.2.3 5.1 1.7 6 6.2 3.4 7.5-4.3 13.8-9.4 11.9-19.5-.5-2.4-.3-5 0-7.5.5-6-.4-10.8-7-12.6h9v33.7c-.8 3.6-1 6.6-2.4 8.8-5.3 8.2-9 16.9-11 26.5l-.7.4v.4c1.6.2 3.3.3 5 .9l-5 9.7v.7z"/><path fill="#985278" d="M459 248c-7.9.2-7.1 7.6-10 11.9-2.2 3.3-3.8 7-6.2 10.7-3.7.5-6.9 1.3-9.8.7-4.5-.9-4.2 1.3-3.8 4 3.2 1 6 1.9 8.5 3-3.3 1-6.4 1.8-9.6 2.3v-2l-5.1-6c-1.3-2.8-2.7-5.2-3.6-7.6h1.9l2-1h6c.8 0 1.2 0 2 .2.7-.5 1.6-1.2 1.6-2 .2-3.4.1-6.8.5-10.2 5-3.8 6.2-9.1 7.7-14.5 1.3-4.8-.3-11.3 6.8-13.3.6-.1.7-2 1.6-3l11.3-.2c.1 6 .2 12 .1 18.7l-2 8.3z"/><path fill="#8B4E75" d="M131 168.2c1.5 0 3-.3 4.4-.3 4.2 0 8.5.2 13.1.8.5.8.5 1 .5 1.8 0 17.8 0 35.1-.5 52.5-6-1-11.8-2-17.5-3.5v-51.3z"/><path fill="#9D4973" d="m181 225 5 .2c.8-.2 1-.2 1.2.1 0 1.2 0 1.9-.4 2.5l-4.5.9c.6 1.3 1.1 2.7 2 3.9 1 1.5 2.7 2.7 3.6 4.3 2.5 4.3 4.8 8.7 7.1 13.6 0 11-1.2 9.4 8 9.9 2 3.5 4 6.5 5.6 9.6l-4.1.1c-4.8-.4-9.2-.7-13.7-1.3-4.7-7.5-9.8-14.5-13.6-22-2-4-2-5-5.6-2l-3 2.4c-2-2.6-3.8-4.9-5.6-7.6 0-.7 0-1.1.4-1.7.8-3.4 1.5-6.8 1.5-10.1.3-8.3 1.7-9.7 10-9.9 3.7 0 5.8.7 5.2 5-.1.6.6 1.4 1 2z"/><path fill="#FBC360" d="M181.3 179.3c5.4-2.4 10.8-4.1 16-6.4 4.5-2 8.7-4.5 13.3-6.4.4 20 .3 39.6 0 59.3l-1 .2-5.9-.2-.7.2.1-.3v-1c0-.2 0-.4.3-.8.3-7.9.3-15.4.4-23.4v-14.7H197c-11.7 0-11.7 0-10.7 12.4a87 87 0 0 0-.3 1.9c-1.6-6.8-3.2-13.6-4.7-20.8z"/><path fill="#855378" d="M475.7 196.6c7 2 8 6.9 7.3 12.8-.2 2.5-.4 5 0 7.5 2 10.1-4.3 15.2-11.8 19.5-4.5 2.5-5.9 1.7-6.2-3.4-.1-1.5-.3-3-.7-4.7-.3-10.5-.3-20.8-.3-31 2.8-1 5.5-1.8 8.8-2.8l3 2.1z"/><path fill="#5D4E6D" d="M528 263.8c-2 .1-4 .3-6.8.3-3.3 0-5.8-.3-8.3 0-2 .3-4 1.2-6.5 1.8-6.4 0-12.4 0-18.3-.4.3-7.8.6-15.1 1.3-22.5h4.8c.3-2.8.5-4.9.9-7.3l-1-5c3.3-.2 6.7-.1 10-.4 3.3-.3 5.1.5 5 4.2-.2 4.5-.1 9 0 13.5 0 3.2-1.3 6.9 3 9 1 .4 1 3 1.3 4 4.7.7 9.3 1.3 14.2 2.2l.4.6m-24-11 1.3 1.8c.6-1 1.5-1.9 1.6-2.8.2-4.2.1-8.3 0-12.5 0-1-.5-2.2-.8-3.3l-2.1.1v16.7z"/><path fill="#724F74" d="M163 238v2.1a33.8 33.8 0 0 0 9 26.6c-3.7 0-7.4 0-11.7-.4-2.4-.7-4.4-.8-6.2-1.4-1.4-.4-3.4-.9-4-2-2-3.8-3.4-8-5.1-12.3a85 85 0 0 1 4.2-7.7l2-1.8c0 .3.2.5.8 1.2.7.4 1 .2 1-.1a22.5 22.5 0 0 0 6-16.5c0-4.2 1-7.7 5.4-9.4-.1 7.4-.7 14.6-1.4 21.7z"/><path fill="#985278" d="M151.3 240.7a6 6 0 0 1-2.5 2.2c-6.4.1-12 0-17.8-.4V220c5.7 1 11.4 2 17.6 3.5.4 5.4.4 10.3.4 15.3 1-22.2 1-44.4 1-66.6 0-.7-.7-1.4-1-2.2v-1.2c3.8-1.1 2.4 2 2.4 3.4l-.1 68.5z"/><path fill="#FDB352" d="M424.9 149c2 2.2 3.6 4.9 6 6.1 1.3.7 4.1-.8 5.8-2 1.8-1.2 3.1-3.2 5-5 .6 3.9 1 7.8 1 12.3l-5 2.9c-.4 4.1-.4 8-.5 12l.7 1v1.7l-.1.1c-.1.8 0 1.3.2 2.3 0 3.8 0 7.2-.5 10.6l-4 .1c-3.1 0-5.8-.2-8.5-.5v-1l-.1-29.9V149z"/><path fill="#5D4E6D" d="M145 251c1.7 4 3.2 8 5.2 12 .5 1 2.5 1.5 4 2 1.7.5 3.7.6 5.6 1.2-18.6.4-37.3.4-56.1.4V265c2 0 4.2.2 6.3-.1 1.2-.3 2.4-1.4 4-2.5 2.8 1.2 3.9.2 4.3-2.3 3.2 1 6.1 1.6 9.6 2.5v-6.7c.4-1.7.8-3.4 1.5-5.5.8-.4 1.2-.4 1.9-.1 4.8.4 9.2.6 13.7.7z"/><path fill="#665074" d="M489 243a342 342 0 0 1-1.4 22.5c-5.5.4-10.6.3-15.6.2a71.7 71.7 0 0 1 10.7-26.4c1.4-2.2 1.6-5.2 2.4-8.3.7-.4 1.4-.3 2.6 0l.9.3-.2-.8.6.1c.9 0 1.4-.3 2-.5.9 0 1.8 0 2.9.3.6 1.8 1 3.4.9 5.5-3.6 1.6-9 1-5.8 7.1z"/><path fill="#8A5178" d="M172.4 266.8c-7.1-7.4-10.1-16-9.4-26.4 1.8 1.9 3.6 4.2 5.6 6.8l3-2.3c3.6-3 3.6-2.2 5.6 1.9 3.8 7.5 8.9 14.5 13.2 22-4.3 0-8.3-.4-12.3-.8l-5.7-1.2z"/><path fill="#C45D76" d="M186 200.5c0-1 .2-1.4.5-2.5.7-1 1-1.5 1.5-1.6 1 1.5 2 3.3 3.2 3.5 3.5.3 7.2 0 11 .3.5.4 1 .6 1.5.8 0 7.5 0 15-.8 22.8-5.7.6-10.7.9-15.7 1.2h-.9c-.3-8-.3-16-.3-24.5m15.4 16.4.4-.5-.4-.3h-8.3c.4-.8.8-1 1.2-1 2.5-1 6.1 2 7.6-2.3-2.6-.6-5-1.7-7.6-1.7-2.6 0-8.6-2.1-4.6 4.8h-1.4l.9 1h12.2z"/><path fill="#D2B8BA" d="M177 282c-1 0-2 0-3.2-.3 3.4-.6 7-.9 10.6-1.2v-1.1l-5.8-.7c2-.9 4.3-1.8 7-2.7 3.7 0 7 0 10.3.4-1.4 1-2.8 1.8-5.5 3.2 3.6.2 5.6.4 7.6 1V291l.1 1c0 8.2 0 8.2-7.8 8H187l-4.5-.6c.3-1.7.6-3.5 1.5-5.4 2.1-1 3.5-2 5-3l-5.9-.3 3.9-4.6-4.6-.7 3.2-1.1-4-.8 2.6-1-.2-.6h-7z"/><path fill="#E97279" d="M438 191a5404 5404 0 0 1 0-13h.3c.8 0 1.3 0 1.7.4.5 1.4 1 3.4 1.6 3.4 4.8.3 9.5.3 14.3 0 1 0 2-1.1 3.1-2.2l.7-4.6c-6 0-11.7.2-17.4-.1-1.1-.1-2.2-1.9-2.8-2.9h20.6l.9 13.5c0 1.5 0 3.1-.4 5.1-7.8.4-15.3.4-22.7.3z"/><path fill="#C9BAC5" d="m461.3 279.7 8.3.4c.4 0 .4.2.4.4-.2 11 .6 9.5-9.7 9.4a12 12 0 0 0-8.4 3.2c-1.4 1.2-4.4.4-6.5.3l2.1-1.4-.9-.9-1.6 2c-.5-.4-1-.6-1.8-1.4a18 18 0 0 1-.3-4.2c-.1-3.3-.1-6 4.4-5.8l-3.9-1.7 17.9-.3z"/><path fill="#EFE7E6" d="M397 308v-10.6c-5.7-.6-10.8-1-15.6-2.1l2.6-2.6.2-1c.7-.4 1.3-.5 2-.5l5.1-3.3c3.2-1.3 5.5-1.2 6.6 2.5-1 2.6-.4 4.2 2.2 3.5 2.9-.7 8 3 8.1-3.9.3 0 .7 0 .9.4l1 4v5.5c-.4 2.1-.7 4.2-1.5 6.7-4.2.8-7.9 1.1-11.6 1.4z"/><path fill="#635574" d="M471 277c1.6-3 3.3-6.1 5.4-9.6a973.5 973.5 0 0 1 38.7.6c-4.3 8.6-6.5 9.6-15.4 6.4-3.6-1.4-7.2-3.2-11.4-.7-2-.4-4.3-1.2-5-.4-3.5 3.6-7.9 3.5-12.3 3.7z"/><path fill="#DFC7C9" d="m371.9 299-.7 14.3c-5.1-.9-9.1-1.6-13.6-2.7-1.2-6.4-1.8-12.5-2.2-18.3 4.7 1.7 9.2 3.2 13.7 5 1 .9 1.9 1.3 2.8 1.7z"/><path fill="#EFDBD2" d="m275.4 313-.5 17.6c-8.7-.3-9.3-2.5-9-8.6.3-6-.4-12-.6-18.7.5-.7.6-1 1-1.3 2.4 3.5 4.9 5.6 8.7 2 0 0 .2.4.1 1.1 0 3.1.2 5.5.3 8m-2.3-1.4c1.3-4.9 1-5.1-4.3-4.3l.5 4.5 3.8-.2z"/><path fill="#C46566" d="M460.1 194c-.1 4-.2 7.8-1.1 11.9-4.8.1-8.9.1-13.1-.2.1-5-3.3-7.8-4.5-11.6l18.7-.1z"/><path fill="#E3D9D9" d="M230 299c.6 4.2-1.2 7.4-4.4 10-1.5 1.4-2.7 3.3-4.1 5.2-.3-.9-.5-2.4-1.2-2.7-7.2-3-5.1-9.2-4.8-15 5.6-1.6 10 .5 14.5 2.5z"/><path fill="#D1A0A7" d="m198 280.1-7.6-.5 6-3.2c2.8-.7 5.3-1 8.4-1.4-1.5-1-2.1-1.5-2.4-2 5.5 1.3 10.6 2 16.1 0 3.2 0 5.8 0 8.5.4a9 9 0 0 1-.5 3.6h-8.7c-3.2.2-3.6 1.7-1.7 4.3 0 .3-.1.7-.4.7l-1.7 1c-2.2-.5-4.4-1-7.2-1.3-3.4-.4-6-1-8.7-1.6z"/><path fill="#4D3153" d="m355.1 292 2 18.6c.4 5.8.7 11.2.7 17.1a32.1 32.1 0 0 1 .4 4.9c-2.9 1.8-4 .8-4.2-2.2-.3-6.4 0-13-1.2-19.2-1.3-6.6-3-13-.5-20.1 1.3-1.8 2.5-3 3.7-4.1.9 0 1.7 0 2.8.5a31 31 0 0 1-3.7 4.6z"/><path fill="#D9545F" d="M438 163c1.4-.7 2.8-1.4 4.7-2.1 5-.7 9.8-1.6 14.5-1.7 1 0 2.8 2.5 3.2 4.2.6 2.3.2 4.8 0 7-.8-1.4-1.3-2.7-1.4-3.1h-20c0 1 0 2.3-.3 3.3-.4-2.7-.6-5.1-.7-7.6z"/><path fill="#724F74" d="M131 250h-1.5c-.4-26.2-.5-52.5-.5-78.8 0-1 .8-2 1.6-3 .4 17 .4 34 .4 51.3a12501.4 12501.4 0 0 1 0 30.5z"/><path fill="#D9AEB0" d="M355.4 292.3c1-1.7 2.3-3 3.8-4.8 1.2-1.2 2.2-2.2 3.8-3.2l8.1.7c0 3.8.1 7.5-.2 11.7a4 4 0 0 1-1.9.3l-13.6-4.7z"/><path fill="#EFE7E6" d="M263 304c-1.8 1.2-4.9 3.8-5.1 3.5-2.3-2.4-6.8-3.3-6-8.2.4-2 .1-4.3.6-6.9 3.8-.8 7.1-1.1 10.5-1V304z"/><path fill="#ECCFCC" d="m263 291-10.5 1c-1.1-2.3-1.8-4.6-3-7.3-.5-1.5-.5-2.6-.5-4.1 1.2-.6 2.2-1 3.3-1l10.2.4 2.7-.1c.3.5.6 1 .6 1.9-.4.6-.6.8-1.1 1.2-.8 2.7-1.3 5.3-1.7 8z"/><path fill="#5D4E6D" d="M147.8 278.7c-.6 0-1.3 0-2.3-.3-1.1-.7-1.8-1.1-2.2-1.8 2.5-1.5 3.7-3.1 1.7-6-.3-1-.6-1.7-1-2.4 4.7 0 9.4 0 14.7.4.9.7 1 1 1.2 1.2l4.6 4.4c-3.3 1.2-5.5 2-8.4 2.8l-8.3 1.7z"/><path fill="#DFC7C9" d="M230.2 298.7c-4.7-1.7-9.1-3.8-14.7-2.7-.5-2.4-.5-4.8 0-7.6 6.5 0 12.5.3 18.5.6-.5 3.4 2 8-3.8 9.7m-7.5-9.7H217l.1 1.2c2.1-.3 4.2-.7 5.6-1.2z"/><path fill="#BAAEB8" d="M410.5 300a11 11 0 0 1 0-5.6c6.2-.4 11.8-.4 18-.4l9.5 1.9c-3.4 1-7.7-1-10.4 3.9-.8 1.6-5.6 1.3-8.6 1.3-2.7 0-5.4-.7-8.5-1.1z"/><path fill="#D8B6B3" d="M234 288.6c-6 0-12-.3-18.5-.6-.8-1.4-1.2-2.8-1.5-4.6.5-.7 1-1 2-1 4.6-.4 9.5.1 12.5-2 1.8-1.3 3.3-2.3 5.5-2a6393.9 6393.9 0 0 1 0 10.2z"/><path fill="#B990A3" d="m202 273 2.8 2-8.4 1c-3.8 0-7 0-11.1-.3-1.9-.4-3-.6-4-1 1.1-.6 2-.8 1.5-.7l-6.7-5.8 1.6-.2 12.8 1c4.8.4 9.2.7 13.9 1.5-3.4 1-7.1 1.6-10.8 2.2l.2 1.5 8.2-1.2z"/><path fill="#E3D9D9" d="M249 291c1.9 5.6 1.6 11-2.3 15.7-7-3.2-5.7-9.3-5.2-15.4 2.8-.3 5.2-.3 7.6-.3z"/><path fill="#B19DAC" d="M438.2 296.1c-3.2-.9-6.3-1.5-10-2.4-2.5-.5-4.3-.8-7.7-1.2 5-.8 8.5-1.6 7.5-6.5h.5l14.4 2v3.6c-1.4 1.9-3 3.3-4.7 4.5z"/><path fill="#ECCFCC" d="M234.6 286.1c-.5-2.4-.5-4.8-.6-8 .7-3.3 1.4-5.6 2.4-8 1.4 0 2.4 0 3.5.4.7 1.4 1.4 2.4 2 4l.1 7.9-1 3.6-6.4.1z"/><path fill="#DFC7C9" d="M198 280.6c2.8.1 5.4.7 8.5 1.4.4 2.3.8 4.6.4 6.9-.3 1.6-1.2 3.7-2.5 4.6-.7.4-2.8-1.1-4.3-1.8l-1.7-.6a96 96 0 0 1-.4-10.5z"/><path fill="#C46566" d="m459.9 212 .3 1.8c.2.8.4 1 .6 1.1l-.2 2c-1.6 1.5-3 2.8-4.3 3-3.7.3-7.5.1-11.2-.2 0-1.2 0-2 .4-2.7h12.3v-.6c-4.2-.4-8.4-.8-12.7-1.6.3-1.2.6-2 1.4-2.8H460z"/><path fill="#D9AEB0" d="M391 288c-1.6 1.1-3.1 2.3-5 3-4.3-1.7-8.2-2.8-12.1-4-.3-.4-.6-1-.6-1.9.4-1 .6-1.6 1.2-2.1 5.5 0 10.5 0 15.6.4l.8 4.5z"/><path fill="#635574" d="m114.6 254.8 2-11c5.7-1.4 6.3-1 6 4.5l-.3 6.4c-.2.8-.3 1-.7 1.3l-7-1.2z"/><path fill="#E05772" d="M439 170.9v-3.6h20a53.6 53.6 0 0 1 1 4.4c-6.6.3-13.3.3-20.5.3-.5 0-.5 0-.5-.3v-.8z"/><path fill="#7B6C86" d="M471 277.2c4.4-.4 8.8-.3 12.3-4 .7-.7 3 .1 4.7.5-1.3 3-2.4 5.9-4 8.3-.8 1-3.3 1.7-4.3 1.2-2.8-1.4-5.4-3.5-8.4-5.3-.3 0-.3-.5-.3-.7z"/><path fill="#DF7281" d="M460 211.7a97 97 0 0 1-13.6 0c-.5-2.1-.4-3.9-.3-5.7h12.6c.8 1.8 1.2 3.6 1.4 5.7z"/><path fill="#B990A3" d="M459 248.5c.5-3 1-5.5 1.9-8.3 1-.3 1.6-.3 2.6-.3 3.7 4.2 1 9 1.3 13.6 0 .5-2 1.4-3 1.4s-2.3-.8-2.5-1.6c-.5-1.4-.2-3-.3-4.8z"/><path fill="#EFE7E6" d="M176.8 282.3c2.5-.3 4.8-.3 7.1-.3l.2.6-2.6 1 4 .8-3.2 1.1 4.6.7-3.9 4.6 6 .3-4.7 3c-3.1-2.3-6-4.4-8.7-6.8-.5-.4.1-1.9.2-3l-3.7-.7 4.7-1.3z"/><path fill="#8A5178" d="M163.4 238c.3-7.1.9-14.3 1.4-21.9-.1-.4 0-.4.3-.3l1.8.2h14.2v8.5c-.4-.2-1.1-1-1-1.7.6-4.2-1.5-5-5.2-4.9-8.3.2-9.7 1.6-10 9.9 0 3.3-.7 6.7-1.5 10.1z"/><path fill="#EFE7E6" d="M181.1 275c1.2 0 2.3.3 3.7.7-2 1.2-4.1 2.1-6.2 3l5.8.7v1.1c-3.6.3-7.2.6-11 1.2-1.8-.2-3.3-.7-4.5-1 .7-1.8 1.4-3.4 2.5-5.4 3.6-.3 6.6-.4 9.7-.4z"/><path fill="#F4F3F6" d="M397 308.4c3.7-.7 7.4-1 11.6-1.4.2 2.2 0 4.5-.2 6.7l-.4 5-5-2c-.4-.2-.7-.7-1.3-1.2l3.8-1c-2.7-1.9-5.6-3.8-8.5-6.1zM147.5 285h4c-4 1.4-7.5 2.7-11 3.6-3.4.9-7 1.2-10.8 1.8-.4-4.2 1-5.6 4.4-5.5 4.3.2 8.6.1 13.4.1z"/><path fill="#817A90" d="M145 271c2 2.5.8 4.1-2.1 5.7-1.4.3-2.2.2-3-.2-.6-1-1.2-2-2-2.4-2.6-1.2-5.3-2.1-8-3.1l.2-1c5.2 0 10 .5 15 1z"/><path fill="#D8B6B3" d="M241 286.4a15 15 0 0 1 1.4-4c2.4-.8 4.5-1.1 6.5-1.5l.3 3.9-.1 5.8c-2.4.4-4.8.4-7.5.3-.4-1.4-.5-2.8-.5-4.5z"/><path fill="#DFC7C9" d="M374 287.5c3.8.7 7.7 1.8 11.8 3.2-.3.5-.9.6-1.8 1.1-.2.7-.1 1 0 1.2l-2.7 1.9c-7.3 0-7.3 0-7.4-7.4z"/><path fill="#D8B6B3" d="m374 283-.7 1.8c-.7.2-1.1.2-1.9.2-2.8-.2-5.4-.5-8.2-.9.6-1 1.2-2.7 2.2-2.9 4.1-.9 5.3-3.8 6-7.7 1.2 3 1.9 6.2 2.6 9.5z"/><path fill="#FC9F47" d="M419.7 89.6c-3.3-.6-6.7-1.9-10.1-2.5-2.2-.5-4.6-.1-7-.1v-1.7h9.4v-7c2.6 3.4 5.2 7.2 7.7 11.3z"/><path fill="#C9BAC5" d="M181.3 274.7c-3.3.2-6.3.3-9.9.3-1.3-.1-2.2-.3-2.8-.7 2.6-.3 5-.3 7.3-.3v-1h-8c0-1 0-2 .4-3.4a41.3 41.3 0 0 1 7.5-1.5l7 6c.5-.2-.4 0-1.5.6z"/><path fill="#7B6C86" d="m145 270.7-14.9-.8c-5.7 0-11.1-.4-16.6-.8V268l30.1.1c.8.8 1 1.5 1.4 2.6z"/><path fill="#F4F3F6" d="M263 291.4c.4-3 .9-5.7 1.7-8 .6 2.4.9 4.5 1.2 7.1l.1 11.5c0 .3-.2.6-.7.9l-2 1c-.3-4-.3-8-.3-12.5z"/><path fill="#EA8388" d="M460.4 193.8c-6.3.2-12.4.2-19.3.1-2.9-.7-5-1.3-7-2.1l-.2-.6 3.6-.2h23c.3.9.2 1.7 0 2.8z"/><path fill="#817A90" d="M122 256c0-.3 0-.5.4-.8l5.1.7c.4 1.7.4 3.5.4 6.7-3.5-.9-6.4-1.6-9.6-2.8 1-1.6 2.4-2.7 3.7-3.9zM515.4 267.7a5 5 0 0 1-3.2-.2c-2-.8-3.7-1.2-5.3-1.6 2-.6 4-1.5 6-1.8 2.5-.3 5 0 8 0 .8 1 1.1 1.8 1.5 2.6-2.1.2-4.5.5-7 1z"/><path fill="#B19DAC" d="m121.6 256-3.6 3.6c-.1 3-1.2 4-4 2.4-.2-2.3 0-4.5.3-7 2.5.2 4.7.6 7.3 1z"/><path fill="#7B6C86" d="M129.7 271.2c2.9.8 5.6 1.7 8.1 2.9.9.4 1.5 1.3 1.7 2.5-3.1.4-5.8.4-8.5.4-.5-1.9-1-3.7-1.3-5.8z"/><path fill="#FBC360" d="M181 150.5c.4 8 .5 16.4.4 25.2-.3-8.1-.4-16.5-.3-25.2z"/><path fill="#B19DAC" d="m130.7 277.2 8.8-.3h3.2c1 .4 1.7.8 2.4 1.5-4.4.3-8.8.5-13.3.5-.5 0-.9-1-1-1.7z"/><path fill="#E3D9D9" d="M142 281h-11.8v-.7h24.6v.7H142z"/><path fill="#EFE7E6" d="m152.4 282 2.3.1v.5h-24.5v-.6h22.2z"/><path fill="#E5798C" d="M445 220c3.8 0 7.6.2 11.3-.1 1.4-.2 2.7-1.5 4.3-2.6.3.8.3 1.9.3 3.3-3.7.4-7.4.5-11.8.5l-4-1z"/><path fill="#FBC360" d="M183.2 136.3c.1-.4.5-.3.7-.3-.4 3-1 6-2 9 .2-2.7.6-5.5 1.3-8.7z"/><path fill="#7B6C86" d="m174.5 268-6.2 1.2-8 .5c-.6-.2-.7-.4-1.1-1 4.8-.6 9.8-.7 15.3-.7z"/><path fill="#B19DAC" d="M148.2 278.8c2.1-.7 4.7-1.2 7.6-1.7-2.1.7-4.6 1.3-7.6 1.7z"/><path fill="#EFE7E6" d="M168 273.3c2.6-.3 5.2-.3 7.9-.3v1h-7.5c-.4 0-.4-.5-.4-.7z"/><path fill="#E3D9D9" d="M369 297.4c.5-.4 1-.4 1.9-.4.6.5.8 1 1 1.8-1-.2-1.9-.6-2.8-1.4z"/><path fill="#FC9F47" d="M439 134.6z"/><path fill="#817A90" d="m528.2 264-.3-.6 1.8-.1.1.4c-.5.1-1 .3-1.6.2z"/><path fill="#FA7941" d="M400 64.7a8 8 0 0 1-2.8-1.6 8 8 0 0 1 2.7 1.6z"/><path fill="#FC9F47" d="M438.2 128.6c-.4-.1-.7-.6-1-1.4.3.1.7.6 1 1.4z"/><path fill="#5D4E6D" d="M490.7 230c-.3.3-.8.6-1.6.7.2-.4.7-.5 1.6-.6z"/><path fill="#724F74" d="M166.8 215.7c-.4.3-.8.2-1.7.1.3-.1 1-.2 1.7 0z"/><path fill="#2E2942" d="M358 328.8c-.1 0-.3-.3-.2-.7.2 0 .2.2.3.7z"/><path fill="#FA7941" d="M233.7 56c0 .2-.2.5-.7.9 0-.3.2-.5.7-.9z"/><path fill="#FC9F47" d="M421.1 91.6c-.2 0-.5-.2-.9-.7.2 0 .5.2 1 .7z"/><path fill="#FDB352" d="M441.8 145.7c-.2 0-.4-.3-.6-.8.2 0 .4.2.6.8z"/><path fill="#EFE7E6" d="M167.6 276.5z"/><path fill="#E5798C" d="M460.9 214.7c-.3.1-.5-.1-.7-.6.3-.2.5 0 .7.6z"/><path fill="#5D4E6D" d="m488.3 230.5.3.8c-.2 0-.3 0-.5-.3-.2-.2 0-.5.2-.5z"/><path fill="#985278" d="M152.8 242.3c.1.2 0 .4-.6.4l.6-.4z"/><path fill="#452F51" d="M340 213c.7 9.2 1.6 18.4 2 27.7.3 7.7-4 11.3-11.6 10.2l-7.8-1c-4.1-.5-8.2-1-10.5-5.2-.5-.9-1.4-1.4-2-2.2-1.4-1.5-2.6-3.1-3.9-4.7l6.2-4.1c-7.5-1-7.3-6.8-7.5-12.6 0-1.2-1.2-3-2.3-3.5-3.3-1.4-3.3-3.8-1.8-6 3-4.7 6.6-9.3 10.1-13.7.6-.7 2.4-.3 4 .2 2 3.4 4 5.8 7.7 4.8 4.3-1.2 7.4.4 9.4 4.5 1.1 2.3 2.7 4.4 4.3 7 .3 6.3.2 12.4.2 18.6 0 1.2.5 2.5.8 3.8l.7-.3c0-9.2 0-18.3.3-27.5l1 .2c.4 1.4.6 2.6.7 3.8z"/><path fill="#E06976" d="M256 253c0 .7 0 1.5-.3 2.8-.5 1.4-.8 2.3-1.5 3.1-3.1 0-5.8-.1-8.4.1-5.3.5-7.7-1.8-7.8-7.4 0-2.6-.4-5 .4-6.8 1.2-3-.1-4.5-2-6 .9-1.8 1.6-3.7 1.6-5.5.1-20.7.1-41.5.5-62.4 3-.4 5.8-.6 8.5-.4V214c2.3-1.6 3.5-2 3.7-2.7 1.2-5 2.1-10.2 2.9-13.8l1.5 11.9c-1.9 8.3-4.1 16-5.5 24-.6 3.5.7 7.3 1.1 11.3 1.8 3 3.6 5.6 5.4 8.2z"/><path fill="#422E4B" d="M256.3 252.8a41 41 0 0 1-5.4-8.4l8-36.6 1 .2-.3 6c4.3-2.6 3.2-6.4 3.3-10 0-1.8 0-3.8.3-5.7.4-2.9 1-5.8 1.9-8.6.5-1.6 1.5-3.2 2.7-4.3.3-.3 2.1 1 3.3 1.5-4.5 1.1-5.4 3.4-2.8 7 2.7 3.4 6.6 6.5 7.8 10.4 1.5 4.7.8 10 1.1 16.6l-6.1-5.8-1.5 1 3 5.2c1.4 1.9 3.6 3.4 4.2 5.4 1.5 5.4-3.4 9.6-9 8-1.7-.4-3.3-1.1-5.1-1.8.8 11.6.8 11.6-9.5 11 1.1 3 2.3 5.8 3.1 8.9z"/><path fill="#4D3153" d="m373.9 263.9 4.9-15.2c-3.8.8-6.3 1.1-8.7 1.8-3 .8-4.7 1-5.3-3.2-.6-4.5-2.5-8.8-4-13.2-.5 1-1.4 2.3-2.3 3.7l-1.5.2c-.9-5.2-1.7-10.3-1.9-15.7a87 87 0 0 1 10-3v3c1.8 0 3.8.1 5.4-.7 4.2-2.1 6.2-1.8 7.4 2.7 1.4 5.6 2.2 11.3 3.3 17.2 0 .2-.1.5-.4.6a3 3 0 0 0-.7 1.6c.3 7.8.5 15-6 20.3l-.2-.1z"/><path fill="#C55876" d="M419 265c1.3 2.4 2.7 4.8 3.5 7.6-4.8 1.1-9.2 1.8-14 2.5-.6-.1-1-.2-1.5-.5-1.1-3.3-3-2.7-5.4-1.5h-2c-2 .4-3.8.6-5.6.7l-11.4.2-6 1.4c-.3-1.1-.3-2.5-1-3.2-1.3-1.3-3-2.2-4.5-3.2a31 31 0 0 1 2-3.6c.4-.4 1-.4 1.1 0 1.6 1 3.2 2.6 4.6 2.5 6.5-.6 12.9-2.1 19.4-2.3 6.7-.2 10.3-4.3 13.6-9.2 1-1.5 2.1-3 3.2-4 0 3.3.2 6 0 8.8-.3 3.2 1.2 4.1 4 3.8z"/><path fill="#633452" d="M271.4 187c-1.5-.6-3.3-1.9-3.6-1.6a10.6 10.6 0 0 0-2.7 4.3c-.9 2.8-1.5 5.7-2 8.6-.2 2-.2 3.9-.2 5.8 0 3.5 1 7.3-3.3 10l.3-6.1-1-.2-8 36.2c-.6-3.2-1.9-7-1.3-10.5 1.4-8 3.6-15.7 5.8-24.2a453 453 0 0 0 3.5-10l2.3-7.4c2.6-8.4 7.1-15.3 15.7-19 .5.4.8.7 1.1 1.3v.7c0 .8 0 1.7.3 2.2 2.8 3.5 6.6 6.4 5 12-1.2 4-2.9 3.1-5.3 1.4-2-1.3-4.1-2.4-6.6-3.6z"/><path fill="#452F51" d="M356 286.6c-1.2 1.5-2.4 2.7-3.8 4.1l-25.3 5.7-.5-2c4.3-1.2 8.6-2.3 12.9-3.7 4-1.3 7.9-3 11.9-4.4l-.3-1.7-4-.6c-1.8-.1-3.8.4-5.5-.2-1.9-.6-3.5-2.1-5.2-3.2 1.5-1.6 2.7-3.8 4.5-4.5 3-1.1 4.2-2.5 4.6-5.9.3-2.8 2.7-5.4 4.3-8.1 4.1 4.2 4.1 6.1 0 10 7 2.5 4 9.4 6.4 14.5z"/><path fill="#703256" d="m365 219-9.6 3a16 16 0 0 1-.4-5c0-2-.2-3.1-.3-4.3h-1l-.8 3.3c0 .3-.3.5-1 .6-.6-2-1-3.9-.8-5.6.8-4.3 2.6-8.6-2.5-11.6 0 0 .3-.9.8-1.4 2.3-2.3 4.2-4.7 6.7-7.7v7.3c1.3-.7 2-1.2 2.9-1.2l2 9 4 13.6z"/><path fill="#CC8490" d="M371 269.4c1.6.6 3.3 1.5 4.6 2.8.7.7.7 2 1 3.2 1.5-.4 3.5-.9 6-1 5.7 4.5 11.7 4.6 18.3 4.4l-.9-5.8c.5 0 .9 0 1.7.4 1.4 1.1 2.4 2 3.4 3.1-.8 4.6-2.5 6.5-7.4 5-2.1-.8-5 1-7.7 1.5h-15.5c-1.2-3.3-2-6.5-3-9.8a9.6 9.6 0 0 1-.5-3.8z"/><path fill="#4D3153" d="m339 209-.9-.3c-3-5.1-5.5-10-7.7-14.7l7 2h1.6v.3c.3.8.7 1.2 1 1.7v.4l1.1 4.4 2.3-.8c1.4 0 2.5 0 3.6.4l2 16.6v13.9h-2.3v-16.6l-1.9.3c-.6-1-1.2-2-1.8-3.6-1-2.8-2-5-3-7.3-.5-1-1-1.5-1.4-2l-.7.4 1.1 2.3v2.6z"/><path fill="#6E385D" d="M305 185a6 6 0 0 1-1.9-.2c-7.7-4.1-15-8-21.8-11.8 1.5-3 7-.3 7-4.8 5.5.4 10.6.6 15.7 1.3-.4 2-.7 3.8-1.4 5.5l-13.8-1.6c6 7 13.7 8.4 21.3 10.1.2 0 .6-1 1.3-1.5 1.4.3 2.5.7 3.7 1.2.7.1 1.3 0 1.9-.2h.3c1.5.3 2.6.6 3.3 1-5.5.4-10.6.8-15.7 1z"/><path fill="#452F51" d="m294.3 291.9 18 2.1c2.6.4 5.2 1 7.7 2-12.5 2-35.4.7-43.2-5.8 6.3-3.1 11.6.6 17.5 1.7z"/><path fill="#4D3153" d="M305 185.4c5-.6 10-1 15.9-1.4l2.5-1c1.8-.3 3.2-.7 4.5-.7.2 1.6.5 2.8 1 4.7l-7.5-.6c1 2.5 1.8 4.5 2.4 6.6h-.8l-6.4-.6c-3.9-.5-7.8-1-12.1-1.8-.5-.7-.5-1.2-.5-1.6l1-3.6z"/><path fill="#ECCFCC" d="M266.3 302c-.3-3.7-.4-7.3 0-11.5 2.1-.5 3.8-.5 5.5-.5 1.3 2.7 2.5 5.4 3.5 8.7v3.4l-.2 1.6c-3.9 3.9-6.4 1.8-8.8-1.7z"/><path fill="#452F51" d="M303.6 189c.4.4.4.9.4 1.6-8.1.6-12 5.8-14.1 12.7-2 6.8-3.3 13.7-5.8 20.5l3.1-22.1.8-4.4c.7-3.6 1.6-6.6 6.5-6.5 2.9.1 5.8-1.1 9-1.8z"/><path fill="#392543" d="M323 193.4c.2-.4.3-.4 1.2-.4l5.8 1 7.9 14.7.1 27.8-.7.3c-.3-1.3-.8-2.6-.8-3.8 0-6.2 0-12.3-.2-19.1a7.1 7.1 0 0 1-.2-2.2c.3-5.9-3.6-9.4-7-13.2-3-3.4-5 1-7.6.5H320c1-1.8 2-3.5 3-5.6z"/><path fill="#DB9299" d="M249 280.6c-2.1.7-4.2 1-6.6 1.4-.4-2.4-.4-4.7 0-7.6 3.5 1.9 7.2 2.6 11 2.2 3-.3 6-1.2 9-1.8.4.6 1 1.1 1.2 2l-1.7.7c.4.2.7.3 1 .8l-.8 1.7c-3.2-.1-6.5-.3-9.8-.3-1 0-2.1.3-3.3.9z"/><path fill="#6E385D" d="M319.6 199h1.9c2.5.4 4.6-3.9 7.6-.5 3.4 3.8 7.3 7.3 7 13.2v1.9c-1.4-1.8-3-3.9-4-6.2-2-4.1-5.2-5.7-9.5-4.5-3.8 1-5.7-1.4-7.5-4.5 1.3 0 2.7.2 4.5.5z"/><path fill="#CD6681" d="M262.3 274.5c-3 1-6 1.8-9 2-3.7.5-7.4-.2-11-2.5-1-1-1.7-2.1-2-3.7 5.3-2.2 9.1 0 12.6 3.6 2.2-1.3 4.2-2.7 6.5-3.9l1.5 1.2 1.4 3.3z"/><path fill="#392543" d="M349.4 219a216 216 0 0 1-2.4-17c.5-2.2 1.1-3.5 1.8-4.6l.2.6-.4 1.4c5.1 3 3.3 7.3 2.5 11.6-.3 1.7.2 3.6.6 5.7-.5 1-1.2 1.6-2.3 2.3z"/><path fill="#4D3153" d="M281 173a1436 1436 0 0 1 21.8 11.8c-1 .3-2.4.8-3.3.4-7-3.2-14-6.6-21.2-10.1-.3-.3-.3-.5 0-1l1-1h1.7z"/><path fill="#422E4B" d="M261 270.8c-.5 0-1-.3-1.6-1.1-.4-.9-.5-1.3-.6-2-.5-1.3-1.1-2.2-1.6-3.4l-2.6-5.4c.3-.8.6-1.7 1.2-2.7 3.1 4.2 6.5 8.3 5.1 14.6z"/><path fill="#DFC7C9" d="M271.8 289.7c-1.7.3-3.4.3-5.5.4-.7-2.2-1-4.3-1.2-6.9 0-.6.3-.8.7-1.1 2.2 2.3 4 4.8 6 7.6z"/><path fill="#392543" d="M339.3 209.2c-.3-1-.3-1.7 0-2.8.4-.4.5-.4.7-.4l3 6.6c-.8.4-1.5.4-2.6.4-.5-1.2-.7-2.4-1.1-3.8z"/><path fill="#7B6C86" d="M275.6 312.7a50 50 0 0 1-.4-7.3c.2 2 .4 4.5.4 7.3z"/><path fill="#392543" d="M353.2 216c0-1.2.3-2.3.6-3.4l1 .1.2 4c-.5 0-1-.2-1.8-.6z"/><path fill="#DFC7C9" d="M262.5 280c-.2-.5 0-1 .7-1.8l1-.3 1 1.7c-.7.3-1.5.4-2.7.4z"/><path fill="#7B6C86" d="M275.5 301.8c-.3-.6-.3-1.5-.2-2.7.3.6.3 1.5.2 2.7z"/><path fill="#ECCFCC" d="M264.1 277.7c-.1.3-.3.3-.8.3l-1.4-.5 1.7-.5c.3 0 .5.5.5.7z"/><path fill="#4D3153" d="M374 265h-.7c-.2-.3 0-.5.4-1 .2-.1.3 0 .3.3v.7z"/><path fill="#FDA548" d="M390.2 82h7.8v.5c-5.4.5-10.9.8-16.2 1.6-3.8.6-7.5 2.8-11.1 2.7-15.7-.2-31.4-1.1-47.2-2.8.6-.3 1.2-1 1.8-1l26.8-1 30.3-1c2.4 0 4.9.6 7.8 1z"/><path fill="#DD3F6D" d="M337 119c5.5 3.2 5.7 7.6.6 11.2l-3.7 2.5c-.4.3-.8.4-.9 0l-.6-.9-.3.2c-6.4 6.5-7.1 6.7-11 1.7-.1-.8-.1-1.3.1-2-.5-2-1.2-4-2-6.2 0-.6 0-1 .2-1.5l1.2-2c-.5 0-1 0-1.6-.3l-1-3-1-4-2-2-1-1.2c.5-2.6 1.2-5 2-7.3 6.5-.8 10.3 3.4 13.9 7.8 1 1.1 1.6 2.5 2.6 4 .3.1.4.1.4.5 1.4 1 2.7 1.7 4 2.4z"/><path fill="#703256" d="M319.1 124.1v1.8a53 53 0 0 0 1.8 6v1.9c-.2 1 0 1.6-.4 2.2-1.4 0-2.4 0-3.5-.3-.7-1.1-1.2-2.4-2-2.6-8-1.7-6.1-8-5.9-13.3.2-3 1.3-6.1 1.9-9.2.2-1 0-2.1 0-2.5-4.6 2.3-9 4.5-13.2 6.3l.2-1.4.3-.2 4-4.6 13.2-4c-.3 2.4-1 4.7-1.5 7.6.6.7.9.9 1.2 1 .6.6 1.1 1 1.5 2 .3 1.8.8 3 1.3 4.2.3.8.7 1.6 1 3l.1 2.1z"/><path fill="#DEA562" d="M302 108.2a26 26 0 0 1-3.7 4.6c.9-1.5 2-3 3.6-4.6zM297.6 113c.3.4.3.7.2 1.5 0 .3.1.4-.1.5l-1.5 1.1-.3-.2.1-2.5c.5-.4.9-.4 1.6-.4z"/><path fill="#FB8E45" d="M208 85h-.1.1z"/><path fill="#FCC150" d="M247 170a84 84 0 0 0-8.8 1.1c-.9 2.2-1 4-1.6 5.9-1.4 1.1-2.4 2.3-3.6 3.2a13 13 0 0 1-4 2.3v-13.2l-1 .3s0 .3-.3.3c-1-1.4-1.9-2.6-2.7-4.1 0-1.5 0-2.7.3-4-.2-1-.6-2-1.1-3l.1-.8c5-.6 9.8-1.2 14.7-2 14.4-2.2 28.9-4.5 43.3-7 4.7-.7 9.3-1.7 14.3-2.5-.5 1-1.3 1.8-2 2.6-1.6 1.6-3.1 3.2-5 4.9l-4 2-2 1-1.8 1.1-1.2 1a44.9 44.9 0 0 0-2.5 7.3c-2 1.4-3.5 3-5.2 4.1-1.7 1.2-3.6 2.5-5.5 2.7-3 .4-6.2 0-9.5-.5-3.8-1.1-7.3-1.9-11-2.7z"/><path fill="#C64261" d="M225 166.1c.8 1.2 1.7 2.4 2.7 4.2 0 2.7 0 4.8-.3 7.1l-.7 28.5c-.4-.3-.6-.6-.7-1.4v-14.8l-.1-2.1c-3.4-.8-6.6-1.2-9.9-2l.1-1.9c.8-.4 1.3-.6 2.3-.7 3.1-.8 8.2 2.4 7.5-4.4v-9.5l-12.2 1.4.3 5.9v2.8c0 .3 0 .8-.3 1 0 1.4.1 2.6.3 4.1v1.7h-.4c-.7 1.1-1.4 2-1.4 3l-.2 35.1c0 .6-.8 1.1-1.1 1.6v-59.2c.7-1.9 1.4-3.2 2.5-4.6.4 0 .6.1.6.5-.1 2.8 0 5 3.2 4.6l7.7-.9z"/><path fill="#C64261" d="M224.1 157.7c.2.5.1.6 0 1.4 0 1.4 0 2.1-.4 2.9H214l-.3-.2a863 863 0 0 1 2-17.4l2.2-.6c.7 1.6 1.9 3.2 2 4.8.2 3.6.1 7 4.2 9.1z"/><path fill="#DEA562" d="M292 127.4c1-4 2.1-7.7 3.6-11.4.3-.1.5 0 .5.4 0 .8 0 1.1-.2 1.5l-.3.3c-3.2 8.8-1.2 17.3.5 25.8l-.2.1c-1-2-2.3-4-2.8-6.2-.7-3.3-.7-6.7-1.1-10.5z"/><path fill="#F8CC63" d="m290 154 4.5-5c.8-.7 1.6-1.5 2.4-2.6l.1-1c0-.3 0-.5.3-.4.7 0 1.1 0 1.6.4v3.8l-.1 1c-3 1.5-5.7 2.8-8.6 4l-.2-.2z"/><path fill="#DEA562" d="m297 145.2-1-.8c-.1-.3 0-.4.3-.4.6.3.7.5.7.9v.3z"/><path fill="#FDBD4F" d="M333 133h.7l13.9 3c.9.2 1.8.3 3 1.3l-7 2.3-.2 1.5 9 .6c5.5.2 11.2-.3 16.7.6 3.6.5 7.1 2.6 10.3 4.6 5.1 3.1 10.5 3 16.4 2.6.4 1.7.4 3.1.5 4.8.2 1 .3 1.9.1 2.8a82 82 0 0 0-1.5 11c-.2 2.9 0 5.8 0 9-2.9-.5-4.8-1.1-6.7-1-5 .2-8.6-1.8-12.5-5a49 49 0 0 0-14.8-7.8c-7.9-2.6-16-4.2-24.4-6.4-3.6-2.3-7-4.5-10.4-7a50 50 0 0 1 2.7-6l.6-.8 1-1.8.2-.1c.5-.3.6-.6.6-1l.3-.2c.5-.7.6-1.2.8-1.7l.3-.4c.3-1.8.4-3.3.5-4.8z"/><path fill="#CC4268" d="M424.8 153v3.7l-.4.8.4.5-.2 2c-.4 7-.6 13.5-.6 19.9 0 3.3.6 6.7 1 10v1.1c0 1.4 0 2.2-.3 3h-2l-2 2c-.4 0-.5 0-.8-.3-2-1.6-2-1.6-3.9 1.9l-.2-2.5c-.8 6.4-.7 12.8-.9 19.2 0 4.6-.5 9.2-1.2 13.7-.9-1.3-1.6-2.4-1.9-3.7-.4-1.7-.5-3.5-.8-5.7l.9-5v-8l-.9-8v-13c0-.7 0-1 .3-1.7s.4-1.3.5-2.3v-11c-.9-1-1.8-1.6-2.7-2.3l1.4.2c.1-1.2.4-2.3.3-3.5 0-.6-.7-1.3-.6-1.8l1.8-8.5c1-1.8 2-3.3 3-4.7l1.8.2c1 .1 1.6 0 2.2-.2.7 0 1.5 0 2.6.4 1.4 1.4 2.3 2.5 3.2 3.6z"/><path fill="#CE565C" d="M414.5 149c-.5 1.4-1.5 2.9-3 4.6-5.4.4-10.3.4-15.3.3v-4.4c6-.5 12-.5 18.3-.5zM425 152.6c-1-.7-2-1.8-3-3.2.7-.3 1.4-.3 2.5-.4.4 1 .4 2.1.4 3.6z"/><path fill="#FC9F47" d="M336.8 118.7c-1.2-.5-2.5-1.1-3.9-2.2 1.2.4 2.5 1.1 3.9 2.2z"/><path fill="#CE565C" d="M418.7 149c-.3.2-.8.3-1.6.2.3-.2.8-.2 1.6-.2z"/><path fill="#B990A3" d="M461.1 279.4c-5.6.4-11.4.5-18 .4L438 278l-8.8-2.6c-.4-2.8-.7-5 3.8-4 3 .5 6.1-.3 9.6-.5H454c-1.6 6.6 3 7 7.2 8.5z"/><path fill="#A8889B" d="M506.4 266c2.1.3 3.8.7 5.4 1.5-11.6 0-23.2-.2-35.3-.4l-5.5-.5v-.4l.7-.4 15.8.1h19z"/><path fill="#AB4870" d="M445 219.7c1.2.7 2.2 1 3.6 1.5 0 1-.1 2.9-.7 3-7.1 2-5.5 8.5-6.8 13.3-1.5 5.4-2.7 10.7-7.7 14-.4-17.7-.4-35-.4-52.3 0-1.8-.7-3.5-1-5.5.7-.8 1.4-1.3 2-1.8l6.6 2c2 4 5.4 6.9 5.3 11.8v6l-.8 3.4a146 146 0 0 0 0 4.6z"/><path fill="#D4607D" d="M416 198c1.9-3.9 1.9-3.9 4-1.9v61.7c0 1.8.7 3.5 1 5.5v1.6l-1.6.1c-3.2.3-4.7-.6-4.4-3.8.2-2.7 0-5.5 0-9.2 0-4.3 0-7.7.3-11.3.4-14.5.6-28.6.7-42.7z"/><path fill="#B75872" d="M434 191.8c-.6.6-1.3 1-2.3 2.2a31 31 0 0 0-.7 6v64c-.5 0-1 0-1.7-.5-.3-23.3-.3-46-.3-68.9h-1.8L426 264c-.2 0-.3 0-.8-.5-.2-23.5-.2-46.5-.2-69.5v-2.7c2.7-.4 5.4-.3 8.4-.2.5.1.6.5.6.7z"/><path fill="#CA6884" d="M426.4 264c0-23.1.4-46.3.8-69.4h1.8v68.9c-.8.5-1.5.5-2.6.5z"/><path fill="#CD6681" d="M421.3 265c-.3-.5-.3-1-.3-2.1V196c.4-.6.9-1.3 1.7-1.5.3 23.5.3 46.5.3 69.5l-1.7 1z"/><path fill="#CA6884" d="M431.2 264.2c-.2-21.5-.2-42.9-.2-64.2 0-1.8.3-3.6.7-5.7.6 1.4 1.2 3.1 1.3 4.9v52.3c0 3.9.1 7.3 0 10.7-.1.8-1 1.5-1.8 2z"/><path fill="#C45D76" d="M423.3 264c-.3-23-.3-46-.3-69.5.4-.5.9-.5 1.7-.5.3 23 .3 46 .3 69.5-.4.5-.9.5-1.7.5z"/><path fill="#CAA7B4" d="M428 279v7h-.5c-6.5 0-12.5 0-18.5-.2v-1.2l.2-2.8 6.2-2.8h12.7z"/><path fill="#A8889B" d="M428.5 286c-.5-1.4-.5-2.8-.4-4.7 3.2-1.2 6.3-2 9.6-3 1.7.3 3.2.8 5 1.5l4.6 2c-4.5-.4-4.5 2.4-4.4 5.7-4.7-.2-9.4-.8-14.4-1.5z"/><path fill="#CC8490" d="M428.1 278.5c-4 .4-8.1.4-13 .5-3.5-.1-6-.3-6.2-3.9 4.4-.7 8.8-1.4 13.6-2 2.2 1.6 3.9 3.4 5.6 5.4z"/><path fill="#B75872" d="M149 170.5c.3.3 1 1 1 1.7 0 22.2 0 44.4-1 66.6v-68.3z"/><path fill="#C04C74" d="M227 273c-2.7 0-5.3 0-8.4-.4V270H209c-2-3-4-6.1-5.8-9.9 3-1.5 6.4-1.5 5.8-6-.6-4.3-3.8-4.1-7-4h-7c-2.3-4.5-4.6-8.9-7-13.2-1-1.6-2.6-2.8-3.7-4.3-.9-1.2-1.4-2.6-2-3.9l4.8-.9c1 .2 1.5.2 2 .6 3.2 5.8 8.5 2.8 12.9 4-.6 7.8 3.4 12.7 8.9 17-.4 1-.9 1.7-.8 2.2.5 2.4 1.2 6.7 1.8 6.7 4.5 0 2.7-3.8 3.5-6.2 3 2.4 5.4 4.8 8 7.1 3.9 3.3 7.8 6.5 11.2 9.8l-7.6 4z"/><path fill="#CA6884" d="M195 250.5c2.3-.5 4.7-.5 7-.5 3.2 0 6.4-.2 7 4.2.6 4.4-2.8 4.4-5.8 5.5-9.4.2-8.1 1.8-8.2-9.2z"/><path fill="#CC8490" d="M208.6 270h10l-.4 2.6c-5.2 2.4-10.3 1.7-15.8.4l-8.6 1.2-.2-1.5c3.7-.6 7.4-1.2 11.2-2.2a12 12 0 0 1 3.8-.5z"/><path fill="#E5798C" d="M189 228h-1.5a6 6 0 0 1-.3-2.7c5-.6 10-1 15.5-1.1.5 0 .5.3.3.6l-.5.6.5.6v.3c-.4.7-.7 1.2-1.5 1.7H189m.4-1.5s.1-.1 0 0z"/><path fill="#D1486D" d="M210.6 225.8c.6-.6 1.4-1.1 1.4-1.7 0-11.7 0-23.4.2-35 0-1 .7-2 1.7-2.8l6.2 1-6 2.6 5.2 2.9-3.3.6v.6h10c0 3.3 0 6.7-.2 10.6-.5.8-.7 1-1.3 1.4h-9.3c-1.3 6-1.3 6 4.8 6 1.7 0 3.3 0 5 .4 0 3.5 0 6.6-.5 9.6h-7.4v1c2.6 0 5.2 0 7.8.2-.4.4-.7.6-1.4.8-9.4 0-9.4 0-9.8 6-1.8-.3-3.3-.7-4.4-1.2.4-1 .5-2 .7-2.8l.6-.2z"/><path fill="#CE565C" d="m188 196-1.4 1.6c-1.3-11.8-1.3-11.8 10.4-11.8h6.9l-.1 14.7c-.6.3-1 .1-1.7-.6l-.1-4.3-.5-6.4c-2.4.3-4.7 1-6.9.7-4.9-.7-7 1.3-6.6 6v.1z"/><path fill="#C64261" d="M209.5 226c.3.9.2 1.7-.6 2.8a6 6 0 0 1-3 0l-2-3 5.6.2z"/><path fill="#D1486D" d="M203.7 225.8a9 9 0 0 1 2 3.2 6.7 6.7 0 0 1-3.7 1.6V228l1-1.8c0-.3.5-.4.7-.4z"/><path fill="#C45D76" d="m203.1 225.7-.6-.3.4-.5c.2 0 .3.2.2.8z"/><path fill="#7B6C86" d="M504 252.4V236h2.1c.3 1 .8 2.1.8 3.2.1 4.2.2 8.3 0 12.5 0 1-1 1.9-1.6 2.8l-1.3-2.2zM489.4 243c-3.7-6.2 1.8-5.5 5.2-6.8.1 2 0 4-.4 6.8h-4.8z"/><path fill="#815075" d="M131.3 250.3c-.3-2.3-.3-4.4-.3-6.9 5.7-.4 11.4-.4 17.5-.4-.8 2.4-2.2 4.8-3.5 7.6-4.5.3-9 .1-13.7-.3z"/><path fill="#E06976" d="M440 178h-1.7c-.3-.5-.3-1-.4-2v-1.3l1.1-2.7c1.1 1 2.2 2.8 3.3 2.9 5.7.3 11.4.1 17.4.1-.2 1.2-.4 2.7-1 4.6-4.1-.3-8.3-2.2-11.3-1-3.1 1.2-5 .6-7.4-.6z"/><path fill="#CE565C" d="M425 189.5c-.4-2.9-1-6.3-1-9.6 0-6.4.2-12.8.6-19.6.3 9.4.4 19 .4 29.2z"/><path fill="#E97279" d="M439 171.7a22 22 0 0 1-1.2 3c-.2.3-.6.3-.6.3 0-3.8.1-7.6.5-11.7l1 7.3c.3.5.3.7.3 1.1z"/><path fill="#EA8388" d="M437.8 178.1c.2.3.2.8.2 1.6-.2-.3-.3-.8-.2-1.6z"/><path fill="#CE565C" d="M424.9 157.8c-.2 0-.4-.1-.5-.3l.3-.4c.2 0 .2.2.2.7z"/><path fill="#EA8388" d="M437.2 175.2c0-.2.4-.2.5-.2.2 0 .3.5.2.7-.3.2-.5 0-.7-.5z"/><path fill="#E5798C" d="M201 217h-11.8l-1-1 1.5-.1c-4-6.9 2-4.7 4.6-4.8 2.5 0 5 1 7.6 1.7-1.5 4.3-5.1 1.2-7.6 2.2-.4.2-.8.3-1.2 1h8.3l.4.4c-.1.2-.3.4-.8.6z"/><path fill="#D4607D" d="M202 196v3.7c-3.6.3-7.3.5-10.8.2-1.2-.2-2.1-2-3.2-3.5 0-.4 0-.4.5-.4H202z"/><path fill="#EA8388" d="M440 178.4c2.4.8 4.3 1.4 7.4.2 3-1.2 7.2.7 11.2 1.4-.6.7-1.7 1.8-2.7 1.9-4.8.2-9.5.2-14.3 0-.6 0-1.1-2-1.6-3.5z"/><path fill="#FDFDFD" d="m445 293 1.6-1.9 1 1-2.3 1h-.3z"/><path fill="#C9BAC5" d="M409 286h18.5c1.5 4.9-2 5.7-7 6.5 3.4.4 5.2.7 7.2 1.2-5.4.3-11 .3-17.2.3-.7-1-1-2.2-1.3-4l-.2-4z"/><path fill="#DFC7C9" d="M409 285.8v4c0 .3-.5.2-1.2.2H398c-1.2-3.3-3.5-3.4-6.7-2-.6-1.5-1-2.9-1.2-4.6 0-.4-.1-.4.3-.4 2 .3 4.5 0 5 .8 2 3.4 4.7 2 7.3 1.8l6.3-.6v.8z"/><path fill="#E3D9D9" d="M398 290.4c3-.4 6-.4 9.5-.4.7 6.8-4.5 3.2-7.4 4-2.6.6-3.2-1-2.2-3.6z"/><path fill="#D9AEB0" d="M384 292.7c-.1 0-.2-.2-.2-.6.2 0 .2.2.2.6z"/><path fill="#DFC7C9" d="m272.8 311.8-3.5.1-.5-4.5c5.3-.8 5.6-.6 4 4.4z"/><path fill="#CC8490" d="M227 273.4a38 38 0 0 1 7.9-4.3c.8.4 1 .7 1.1 1l-2 7.5a15 15 0 0 0-5.5 2.8c-3 2.1-7.9 1.6-12.2 1.9-.3-.3-.3-.7.2-1 2.6-.3 4.7-.4 6.8-.2 3 .2 4-1.2 3.6-4l.1-3.7z"/><path fill="#D9AEB0" d="M226.5 277c.8 2.9-.1 4.3-3.2 4h-6.8c-2.3-2.3-2-3.8 1.3-4h8.7z"/><path fill="#D8B6B3" d="M223 289c-1.7.5-3.8.9-5.9 1.2V289h6z"/><path fill="#D34A6F" d="M236.4 270.2c-.6-.4-.7-.7-1.2-1.1-4-3.4-8-6.6-11.7-9.9-2.7-2.3-5.2-4.7-8.1-7.5-.4-.8-.4-1.3 0-1.8 5.4-2.5 6-8.4 2-13.5 1.5-1.8 3-3.6 5-5.4.7 0 1.1 0 1.6.3v3.1c0 1.5 0 2.5-.3 3.8.3 1.9 1 3.5 1.3 5.1 1 6 6.8 10 13 8.7 0 5.2 2.5 7.5 7.8 7 2.6-.2 5.3 0 8.4 0 1.2 1.6 2.1 3.3 3 5.7.4 1.5 1 2.4 1.6 3.2 0 .5.2.9.4 1.7-2 1.6-4.1 3-6.3 4.3-3.5-3.6-7.3-5.8-12.8-3.9-1.3.2-2.3.2-3.7.2z"/><path fill="#E5798C" d="M445.5 217c-.4-.5-.4-.9-.4-1.5 4.3 0 8.5.5 12.7.9v.6h-12.3z"/><path fill="#DC446C" d="M238 251.6c-6.2 1.7-12-2.2-13-8.3-.3-1.6-1-3.2-1-5.3.3-1.6.2-2.8 0-4l.1-3-.1-7c.2-.2.5-.4.9-1v-17c.2-.3.4-.6.9-1 .3.3.5.6 1.2.9l.9.2v.4c.8 1 1.6 1.7 2.6 2.5 1 .3 1.8.6 2.6 1.2v1.3l.1 5.8v8.1l.2 7c.8 2.4 1.7 4.5 2.6 6.5 2.3 1.4 3.6 2.8 2.4 5.9-.8 1.8-.3 4.2-.4 6.8z"/><path fill="#DC4A6C" d="M247 170.5c3.6.3 7.1 1 10.8 2.6.2 3 0 5.2.1 7.3l.8 19.3c-1 3-2 6-3.3 9.2-.8-4.1-1.4-8.4-1.8-11.3-.8 3.6-1.7 8.7-3 13.8 0 .6-1.3 1-3.6 2.7v-43.6m6.2 20.5.3 1.2.3-.2c0-.4-.2-.8-.6-1z"/><path fill="#FEBB6E" d="M236.4 238.9c-1.3-2-2.2-4.1-2.7-6.5 4.7 1.2 3.2-2.2 3.2-3.8l.1-51.6c.2-1.8.3-3.7.8-5.7.3 20.5.3 41.3.2 62 0 1.8-.7 3.7-1.6 5.6z"/><path fill="#E05772" d="M415 241v10.5c-1 2-2.2 3.4-3.2 4.9-3.3 5-6.9 9-13.6 9.2-6.5.2-13 1.7-19.4 2.3-1.4 0-3-1.4-4.6-2.5-.2-.4-.1-.8 0-1 6.4-5.6 6.2-13 6.1-20.9l.8-1.5.3-.6c.3-.3.7-.4 1-.5v-2.1c-.1-1.3-.1-2.1.1-3.2-.4-3.8 3.2-8.4-2.4-10.9-.2-.7-.3-1.1 0-1.6l14.1-1.2c.6 0 1.2-.5 2-.8.2 0 .7-.1 1-.3 4.9-.8 9.3-1.3 13.8-1.8.3 1.8.4 3.6.8 5.3.3 1.3 1 2.4 2 4.1.6 4.5.9 8.6 1.2 12.6z"/><path fill="#703256" d="m382.1 241-.7.2c-1.3-5.6-2-11.3-3.5-16.9-1.2-4.5-3.2-4.8-7.4-2.7-1.6.8-3.6.7-5 .6 1.7-4.7 3.3-9 4.4-13.3.5-2 0-4 3-3.7.3.6.6.8 1 1.2l2 5 2.1 7 1.7 4.8.4 1.9 2.2 10.7v3.3l-.2 1.9z"/><path fill="#A53767" d="M372.9 205c-3-.2-2.5 2-3 3.9-1 4.4-2.7 8.6-4.5 13-.3-.7-.3-1.4-.4-2.5-1.3-4.8-2.6-9.2-3.6-14 7.8-.8 8.3-1.3 8-7.5.7.4 1.1.8 1.6 1.5l2.6 5.5-.7.1z"/><path fill="#703256" d="M380.8 242.1c.1.2 0 .5-.4 1-.1-.2 0-.5.4-1z"/><path fill="#D9AEB0" d="M409 284.6a34 34 0 0 1-6.3 1c-2.6.2-5.3 1.6-7.3-1.8-.5-.8-3-.5-5-.8 2.2-.6 5.2-2.3 7.3-1.6 4.9 1.6 6.6-.3 7.6-5 .8-.9 1.2-1.2 1.7-1.5.4 0 .9 0 1.6.2.4 3.6 3 3.8 6 3.9-1.2.8-2.8 1.6-5.4 2.8l-.2 2.8z"/><path fill="#CA6884" d="M399.7 273.2c.6 1.6.8 3.3 1.2 5.6-6.6.2-12.6.1-17.9-4.4 3.7-.4 7.3-.5 11-.6 1.8 0 3.5-.3 5.7-.6zM407 274.6c-.5.6-1 1-1.6 1.4-1.3-.7-2.3-1.5-3.4-2.6 2-1.5 3.9-2.1 5 1.2z"/><path fill="#F8CC63" d="m258.9 199.3-1-18.9.1-7c3.2-.3 6.4.2 9.4-.2 2-.2 3.8-1.5 5.5-2.7 1.7-1.2 3.2-2.7 5.1-3.8a35 35 0 0 1-1.4 6 29 29 0 0 0-15.4 19.2l-2.3 7.4z"/><path fill="#7C365B" d="M276.9 172.9c.3-2 .8-4 1.5-6.2 0-.3 0-.5.2-.7 1-2 1.8-4 3-5.7 2.6 0 5-.2 7.2 0L285 164l-.2.1c-.5.3-.7.6-.8 1.2 0 .2 0 .7-.3.7-4.7.6-4.6 3.9-4.7 7 0 .4-.3.6-.8.9l-1.3-1z"/><path fill="#D63C70" d="M349.4 198c-.4 0-.5-.4-.5-1-1.6-2.4-3.3-4.2-5-6.3-5-4-.3-7.2.5-10.7.2-.6.2-1 .2-1.3-.3.3-.6.7-1.2 1.1l-3.9 2.2a7.1 7.1 0 0 1-2.4-2.4c.4-1 .6-1.8 1.2-2.8 1.7-1.3 3.2-2.6 4.7-3.4 2.4.4 4.7.5 7.4.6l3.6 1 .2.2 10 8-.1.7c.6 3 1.3 5.6 1.6 8.3-2.5 1.3-4.6 2.5-6.7 3.8l-2.9 1.6v-7.3c-2.5 3-4.4 5.4-6.7 7.7z"/><path fill="#B83A6A" d="M359 196.4c2.1-1.7 4.2-2.9 7-4.1 1 .2 1.6.4 2.1 1l1 4.5c.6 6.3.1 6.8-7.7 7.2-1-2.7-1.7-5.4-2.4-8.6z"/><path fill="#633452" d="M344 191c1.6 1.8 3.3 3.6 4.8 5.7l-1.9 4.9a8 8 0 0 1-3.7.2 21 21 0 0 1-3.2-3.8v-.3l-1-1.7v-.3l-2-2-1-1a10 10 0 0 0-2-1.6l-.4 1 2.5 1.1.9 1.2v1.6l-6.6-2-6-1a47 47 0 0 1-3-6.6l7.5.6c-.5-1.9-.8-3.1-.7-4.7.6-.3.8-.2 1.1 0 4.3 3.8 8.5 7.2 13 10.6l1.7-2z"/><path fill="#6E385D" d="M340 198.4c.8.8 1.7 2 2.8 3.4-.4.5-1 .8-1.7 1l-1.1-4.4z"/><path fill="#452F51" d="M340 205.7c-.2.3-.3.3-.8.3-.6-.6-1-1.2-1.3-1.9l.7-.5 1.4 2z"/><path fill="#6E385D" d="M337 194c.7.4 1.3.9 2 1.7-.5.3-1 .3-1.7.3-.3-.4-.3-.9-.3-1.7v-.3zM339 196.3c.3.2.6.6 1 1.4-.3-.2-.7-.6-1-1.4z"/><path fill="#7C365B" d="m315 183-4-1.2c-3-2.3-5.5-4.6-8-6.8.3-1.7.6-3.4 1.3-5.6 2.5-1.2 4.5-2 8-3.3-3.6-2.3-6-3.7-8.3-5.5-.4-1.4-.7-2.5-.6-3.6 2.8-1 4.8-1.6 7 1.1 1.1 1.5 3.6 2 5.5 3.3l1.1 5c.7 1.1 1.4 1.9 2 3l-2.8 7 1 1c3.9-5 8.9-7 14.8-6.1 0 .2 0 .7-.4.7-5.1 3.7-9.8 7.3-14.6 11h-2z"/><path fill="#452F51" d="m304 161 8.3 5c-3.5 1.4-5.5 2.2-7.9 3-5.5-.2-10.6-.4-16.3-1l-3.2-1.2c-.3-.5-.5-.7-.9-.8 0 0 0-.5.2-.9.5-.5.7-.8.8-1.1h.4c6.2-2.4 12-5.1 18.6-3z"/><path fill="#633452" d="M302.6 175c2.9 2.2 5.3 4.5 8.1 6.8 0 .7-.4 1.8-.6 1.7-7.6-1.7-15.3-3-21.3-10l13.8 1.5zM317.3 183c4.5-3.7 9.2-7.3 14.6-10.8.8.7 1 1.3 1 2.1l-1.8.9c-.6.3-.8.6-1.2 1.1-.3.5-.5.7-1 .8-.5.4-.7.6-.9 1 0-.1 0 0-.4 0a56 56 0 0 0-4.6 4.9l-1.7 1-4-1z"/><path fill="#7C365B" d="m285 167 2.7 1c.5 4.7-4.9 2-6.4 5-.3 0-.3 0-.3-.4 1.3-2 2.7-3.9 4-5.6z"/><path fill="#633452" d="M315.1 183.2c.3-.2.8-.2 1.5-.2-.2.2-.8.3-1.5.2z"/><path fill="#703256" d="M323.4 183c1-1.7 2.5-3.3 4.5-4.7 3.7-.2 7-.8 10.1-1.3-.3.8-.5 1.6-1.2 2.8-2.1 3.7-5.2 1.7-7.6 2.3h-.9c-1.7.2-3.1.6-5 .9z"/><path fill="#6E385D" d="M284.9 166.8c-1.2 2-2.6 3.7-4 5.9-.4.3-.8.3-1.5.3-.3-3.1-.4-6.4 4.3-7 .7 0 1 .3 1.2.8z"/><path fill="#CD6681" d="M258.8 267.6a7.5 7.5 0 0 1-1.7-2.6c.6.5 1.2 1.4 1.7 2.6z"/><path fill="#8E3B5D" d="M333 132.8c0 1.8 0 3.3-.5 4.8l-2.9.2c-2.9 0-5.7.1-8.6-.1l-.1-1.7c0-.6-.2-1.1 0-1.9 4 4.6 4.8 4.4 11.2-2 0-.2.3-.3.3-.3l.6 1zM321.2 131.8c-.9-1.6-1.5-3.4-2-5.6.8 1.5 1.5 3.4 2 5.6zM318 118.6c-.5-.8-1-2-1.2-3.4.5.9.9 2 1.2 3.4zM319.4 124c-.3-.3-.4-.8-.4-1.6.5-.4 1-.5 1.6-.5l-1.2 2zM315 112.6c-.1 0-.4 0-.8-.5.2 0 .5.1.9.5z"/><path fill="#322846" d="M299 149v-3.8a21 21 0 0 1-3-13.3c.2-4.7 0-9.3 0-14h.3c.8-1 1.2-2 1.6-3v-.1l13-6.7c0 .4.3 1.5 0 2.5-.5 3.1-1.6 6.1-1.8 9.2-.2 5.3-2.2 11.6 6 13.3.7.2 1.2 1.5 1.5 2.6-1.7.3-3.1.1-4.3.5-1.2.4-2 1.4-3.1 2 1 1 1.9 2 2.8 3.2 2.1 3 4 5.8 1.7 9.5l-3.1.1c-4-.4-7.4-.7-10.8-1.3-.1-.5-.4-.7-.8-.7z"/><path fill="#633452" d="m312 141-2.8-2.7c1-.7 2-1.7 3-2.1 1.3-.4 2.7-.2 4.4-.2h4c.3.5.3 1 0 1.7-1.9.2-4-.9-4 2.3l-4.6 1z"/><path fill="#392543" d="M297.7 115c-.2.9-.6 1.9-1.4 2.9-.3-.4-.2-.7-.1-1.4.4-.7.8-1 1.5-1.5z"/><path fill="#FCC95A" d="M236.6 177c.4 17.2.4 34.4.3 51.6 0 1.6 1.5 5-3.1 3.5-.5-2.2-.6-4.2-.4-7a29 29 0 0 0-.1-5.1l.1-3c.1-2.4 0-4.1-.2-6l-.2-1.1c-1-1.7-2-2.8-3-4.3l-1-22.6c1.4-1 2.8-1.7 4-2.8 1.2-1 2.2-2.1 3.6-3.2z"/><path fill="#D4607D" d="M214 162.4c3-.4 6.2-.4 10-.4h1v3.8a60 60 0 0 1-7.8 1.2c-3.2.3-3.3-1.8-3.2-4.6z"/><path fill="#FEBB6E" d="m229 182.5.9 23.1c0 .5-.1.7-.5.6H228v-.6c0-9.8-.2-19.2-.3-28.5l.3-6.6.1-.9 1-.3v13.2z"/><path fill="#F8CC63" d="m281.3 160.1-2.8 5.9c.4-2.2 1-4.6 2.2-6.9.4 0 .5.1.5.3v.7zM286 156c1-.7 2.2-1.4 3.6-2 .4 0 .6.2.4.5-1.4.7-2.7 1.2-4 1.5z"/><path fill="#FDB34A" d="M225.3 161.8c-.2.2-.7.2-.9.1-.3-.7-.3-1.4-.3-2.5.6.4 1 1.3 1.2 2.4z"/><path fill="#F8CC63" d="m282 158 1.7-1c.3 0 .4 0 .2.3a6 6 0 0 1-1.7.9l-.2-.2z"/><path fill="#F8CC63" d="M284 157a8 8 0 0 1 1.6-1c.3 0 .4 0 .2.3l-1.7.8-.1-.1zM281 159c.1-.3.3-.6.8-.9.2 0 .3 0 .3.3-.3.5-.6.7-.9.8l-.1-.2z"/><path fill="#E05772" d="M226 193.6c-3.3.4-6.6.4-10 .4v-.6l3.3-.6-5.2-2.9 6-2.6c-1.3-.2-3.5-.5-5.8-1-.3-.3-.3-.3 0-.3h1.7c3.3.4 6.5.8 9.6 1.6 0 1.1.2 1.8.3 2.4v3.6z"/><path fill="#D1486D" d="m214 176-.3-5.5 12.3-1.4c0 2.6 0 4.8-.4 7.4-3.9-2.7-7.8-.9-11.6-.5z"/><path fill="#D4607D" d="M214 176.4c3.8-.8 7.7-2.6 11.6.6.3.5.3.9-.1 1.6-4.2.4-7.8.4-11.5.4v-2.6z"/><path fill="#D1486D" d="M214 179.2c3.7-.2 7.3-.2 11.5-.3 1 6.5-4 3.3-7.1 3.7a235 235 0 0 0-4.4-2.6v-.8z"/><path fill="#CE565C" d="M227.4 177.4c.3 9 .4 18.4.5 28.2 0 .5-.5.4-.7.4-.2-9.4 0-18.8.2-28.6z"/><path fill="#D4607D" d="M213.7 180.2a14 14 0 0 1 4.2 2.4c-.5.5-1 .7-2 1.1-1 .3-1.5.3-1.9.3-.2-1.2-.3-2.4-.3-3.8z"/><path fill="#D1486D" d="M226 189.7c-.2-.3-.4-1-.3-1.7.3.4.3.9.3 1.7zM214 184.3c.4-.3.9-.3 1.7-.3.3.4.3.9.3 1.7-.4.3-.9.3-1.7.3-.3-.4-.3-.9-.3-1.7z"/><path fill="#392543" d="M295.6 118.2c.4 4.4.6 9 .3 13.7-.2 4.7.4 9 3.2 13a4 4 0 0 1-1.8 0c-.3-.4-.4-.6-1-1-1.9-8.4-4-16.9-.7-25.7z"/><path fill="#8E3B5D" d="m281.2 159.4 1-1 1.7-1c.7-.5 1.2-.7 2-1.1l4.2-1.7c3-1.6 5.7-2.9 8.9-4.4.3-.3.7-.2.7-.2 3.5.3 7 .6 10.8 1.3 1.2 1.7 2.1 3 2.9 4.4l2.5 5.3c-1.9-1-4.4-1.4-5.6-2.9-2-2.7-4.1-2.1-7.3-1.1-5.2 1-9.6 2-14 3-2.4.1-4.8.3-7.4.3-.3-.2-.4-.6-.4-.9z"/><path fill="#DEA562" d="M299.8 149.7c0 .3-.5.2-.6.2-.2 0-.2-.5-.2-.7.4-.2.7 0 .8.5z"/><path fill="#FCC95A" d="M369.4 197.9c-.6-1.5-1-2.8-1.3-5-1.3-3.6-2.7-6.5-4-9.4v-.7c-1.4-5.7-5.1-7.6-10-7.8l-.3-.3c-1.2-.7-2.2-1-3-1.8a49.7 49.7 0 0 0-4.8-5v-.2l-1-.7-.2-.3c-2.7-2.1-5.2-4-7.8-5.7v-.4l-.2-3.6c8 2 16.2 3.7 24 6.3a49 49 0 0 1 15 7.9c3.8 3.1 7.4 5.1 12.4 4.9 1.9-.1 3.8.5 6.7 1 0-3.2-.2-6.1 0-9 .2-3.6.8-7.2 1.6-10.6.5 2 .5 3.8.5 5.8v3.2c0 4.5 0 8.5-.3 12.8 0 8.4.2 16.5.5 25v2l.7 2v2c0 .7 0 1.2-.2 1.9-.5 3.1-.6 6-.8 8.8h-1.1c-4.3-1.2-9.7 1.3-10.8-5.3l-.8-4.8c.5-.3.7-.5.8-1.2v-3l-.1-1-.8-1c-.5-1.5-.9-3.4-1.7-3.6-3.7-1-7.6-1.4-11.4-2l-1.6-1.2z"/><path fill="#E5798C" d="M397 166c0-.4 0-.9.3-1.7 1.1-.4 1.9-.5 2.6-.7v-.6H397l-.1-5.6-.6-3.1c4.9-.3 9.8-.3 15.2-.3-.2 2.8-.8 5.5-1.3 8.2 0 .5.6 1.2.6 1.8 0 1.2-.2 2.3-.3 3.5l-1.4-.2c1 .7 1.8 1.3 2.3 2.3-3 .4-5.4.1-7.9.5-3.4.4-5.5-.8-6.5-4z"/><path fill="#422E4B" d="M312 141.4c1.4-.7 2.8-1 4.9-1.1l11.8 3.8c-1 1.8-1.8 3.6-2.8 6-1.1.7-2 .9-3.2 1h-4.1l-4.6-.1v-.2c2-3.6.1-6.4-2-9.4z"/><path fill="#DC446C" d="m323 151.1 3-.6c3.5 2 6.9 4 10.5 6.4.4 1.2.4 2.2.2 3.6-2.6-4.1-6.9-3.1-10.7-3.8l-3-5.6z"/><path fill="#703256" d="M328.8 144a122 122 0 0 1-11.5-3.7c-.7-3.5 1.4-2.4 3.3-2.3l9-.2 2.7.1c.1.3 0 .3-.3.4-.4.7-.6 1.3-.7 1.9h-.3c-.4.4-.5.7-.6 1l-.4.2c-.5.7-.6 1.3-.8 1.9l-.4.6z"/><path fill="#8E3B5D" d="M331.5 140c0-.4 0-1 .5-1.7.1.5 0 1-.5 1.7zM329.4 143.1c0-.4.1-1 .6-1.7.1.5-.1 1-.6 1.7zM330.6 141.2c0-.3 0-.6.4-1 .2.4.1.7-.4 1z"/><path fill="#EA8388" d="M397.2 204c-.3-8.2-.5-16.3-.2-24.6 5.4.5 10 1 14.8 1.7-.1.5-.2 1-1 1.8l-12.2.1v2H411c0 4.1 0 8.2-.3 12.7l-13.5 6.3z"/><path fill="#DF7281" d="M411.8 180.6c-4.7-.1-9.4-.7-14.5-1.4-.3-4.2-.3-8.2-.3-12.7 1 2.8 3.1 4 6.5 3.6 2.5-.4 5-.1 8-.1.4 3.4.4 6.8.3 10.6zM397.2 204.3c4.4-2.3 8.8-4.3 13.5-6.3.7 2.4 1 4.8.7 7.6-5 .4-9.6.4-14.1.3l-.1-1.6z"/><path fill="#EA8388" d="M397.3 220.8c-.2-2.6 0-5.5.5-8.2l14 1.5-.8 4.5c-4.5 1-9 1.4-13.7 2.2z"/><path fill="#C55876" d="M420.7 196c.3 22 .3 44 .3 66.5-.3-1.2-1-3-1-4.7v-61.3c.2-.5.3-.5.7-.5z"/><path fill="#EA8388" d="M397.2 206.2c4.6-.2 9.2-.2 14.2-.2.5 1.4.5 2.8 0 4.6-4.8 0-9.1-.3-13.4-.6 0 0-.1-.5.4-.7 3.8-.3 7.1-.3 10.4-.3v-1h-10.9c-.2-.5-.5-1-.7-1.8z"/><path fill="#DF7281" d="M415.3 240.7c-.6-3.7-1-7.8-1.2-12.2.3-5 .7-9.6.8-14.2.2-6.4 0-12.8.9-19.2l.2 2.5c-.1 14.5-.3 28.6-.7 43zM398 210.3c4.3 0 8.6.3 13.4.7.5.7.5 1.5.5 2.7-4.6-.1-9.2-.5-13.9-1.4v-2zM411 184.7c-4.1.3-8.2.3-12.3.3l-.1-2h12c.5.5.4 1 .4 1.7z"/><path fill="#D14571" d="m222 231-4.6 5.4c4 5.1 3.4 11-2.4 13.3-1.8-.2-2.9-.4-4-.7-5.6-4-9.6-8.8-9-16.8V231l3.8-1.7c1-.3 1.7-.3 2.8-.3l5.5 1.2 7.9.8z"/><path fill="#C45D76" d="M202 230.6v1.1c-4.4-.5-9.7 2.5-13-3.3 4-.4 8-.4 12.5-.4.5.7.5 1.5.5 2.6z"/><path fill="#CA6884" d="M210.9 249.4c1.2-.1 2.3 0 3.8.5.3.5.3 1 .3 1.8-.4 2.8 1.4 6.6-3 6.6-.7 0-1.4-4.3-1.9-6.7-.1-.5.4-1.2.8-2.2z"/><path fill="#C45D76" d="M189.5 226.4s-.1 0 0 0z"/><path fill="#E5798C" d="M222.3 231c-2.7-.2-5.1-.4-7.9-.9-.3-6-.3-6 9.1-6.1.6 2.1.7 4.2.6 6.6-.6.4-1 .4-1.8.4z"/><path fill="#E05772" d="M224.5 206c.5 1.7.5 3.4.5 5.5-1.7.5-3.3.5-5 .5-6.1 0-6.1 0-4.8-6h9.3z"/><path fill="#DF7281" d="M224.5 222c.5 0 .5.5.5.7-2.7.2-5.3.2-7.9.2v-.9h7.4z"/><path fill="#C64261" d="M202 195.6c-4.4.3-8.7.4-13.5.4-.8-4.8 1.2-6.8 6.1-6.1 2.2.3 4.5-.4 7-.7 0 2.2.2 4.1.4 6.4z"/><path fill="#D14571" d="M224 234.4c.2.8.3 2 .3 3.4-.3-.9-.3-2-.3-3.4z"/><path fill="#FEBB6E" d="M230 206c1 1 2 2.2 3 3.6-.7 0-1.5-.3-2.5-1-.5-1-.6-1.7-.7-2.3 0 0 0-.2.2-.3zM233.2 220.4c.2 1 .4 2.6.3 4.3-.3-1.2-.3-2.5-.3-4.3z"/><path fill="#CE565C" d="M229.4 206.2c.5.7.6 1.4.8 2.4-.7-.4-1.5-1-2.3-2 .4-.4.8-.4 1.5-.4z"/><path fill="#FEBB6E" d="M233.2 211.5c.2 1.4.3 3.1.3 5.1-.3-1.4-.3-3-.3-5.1z"/><path fill="#E06976" d="M253.4 191c.2.2.3.6.4 1l-.3.2c-.1-.4-.2-.8-.1-1.3z"/><path fill="#DF7281" d="M385 216c1.1 6.3 6.5 3.8 10.5 5-.1.4-.7.8-1.3.9l-14 1.2a10 10 0 0 1-1.8-4.7c3 1 5.4 1 6.6-2.4zM382.5 235.6c-1-3.1-1.6-6.5-2.3-10.2 5.5 1.8 2 6.4 2.3 10.2zM382.3 240.9v-1.4c.1.2.2.7 0 1.4z"/><path fill="#E06976" d="M385 215.7c-1.2 3.7-3.5 3.7-6.6 2.3-1-2-1.7-4.1-2.4-6.6 0-.4 0-.5.5-.4h7.5a78 78 0 0 1 1 4.7z"/><path fill="#E97279" d="M385 207c0 .2 0 .3-.4 1-3.1.9-5.9 1.4-8.6 2.2V211c-.7-1.4-1.4-2.9-1.8-4.7.5-.3.7-.3 1.2 0 3.4.4 6.5.5 9.5.6z"/><path fill="#EA8388" d="M375.2 206.1h-1c-.7-.1-1-.3-1.2-.9-.1-.2.3-.2 1-.2h10c.4 0 .6.2.4.8l-9.2.3z"/><path fill="#E06976" d="M384 204.6c-3 .4-6.2.4-9.7.3a26.2 26.2 0 0 1-3.3-5.5c3.8.3 7.7.8 11.4 1.7.8.2 1.2 2 1.7 3.5z"/><path fill="#6E385D" d="M288.8 160.3c4.6-1.3 9-2.3 13.8-3.3.7 1 1 2.2 1.4 3.6-6.6-1.7-12.4 1-18.6 3.4.8-1.1 2-2.3 3.4-3.7zM284.8 164.1c0 .2 0 .5-.6.8-.1-.2 0-.5.6-.8z"/><path fill="#EB3E7A" d="M338.3 176.8c-3.5.7-6.7 1.3-10 1.5-.3-.3-.3-.3 0-.4.5-.3.7-.6.8-.9.3 0 .5-.2 1.1-.8l1.2-1 1.8-1c2.7-2.6 4.8-4.9 7.4-7.2h4.4l.1.2c.3.5.6.7 1 .8v.3l-2.4 3.8a171.4 171.4 0 0 1-5.4 4.8z"/><path fill="#B83A6A" d="M329.3 182.4c2.3-.9 5.4 1.1 7.3-2.3 1 .5 1.8 1.2 2.8 2.2-1.8 2.2-1.8 4 0 6.2 1 1.3 1.7 3 2.6 4.5l-12.7-10.6z"/><path fill="#703256" d="M342.2 192.9c-1-1.4-1.7-3-2.8-4.4-1.8-2.1-1.8-4 .4-6.2 1.1-1 2.2-1.7 3.7-2.4.4 0 .7.3.7.3-.6 3.3-5.4 6.5-.3 10.5-.4.9-.9 1.5-1.7 2.2z"/><path fill="#DC446C" d="m344 172 2-3.7c1.6 1.2 3.2 2.7 4.6 4.7-.4.5-.5.7-.5 1-2.4-.1-4.7-.2-7-.6-.2-.4-.1-.4.1-.5.5-.4.7-.6.7-1z"/><path fill="#C64261" d="M354.2 175.2c4.8 0 8.5 1.9 9.9 7.5a126 126 0 0 1-9.9-7.5zM364 184c1.4 2.4 2.8 5.3 4 8.6-.4.1-1-.1-1.7-.5-1-2.6-1.6-5.2-2.2-8.2zM350.4 174c-.3-.3-.2-.5.1-.7 1.1.3 2.1.7 3.3 1.4-.9 0-2-.3-3.4-.7z"/><path fill="#703256" d="m343.8 179.8.8-1.1c0 .4 0 .7-.2 1.3-.2.2-.5 0-.6-.2z"/><path fill="#6E385D" d="m336 193-2.4-1 .5-1 1.9 1.7v.3zM337 194c-.3 0-.6-.3-1-.8v-.2c.3 0 .6.3 1 .8v.2z"/><path fill="#EB3E7A" d="M326 157c3.8.4 8.1-.6 10.7 4 .3 0 .3 0 .3.3.7 2 1.3 3.7 1.6 5.5L332 171c-6-.6-11 1.4-14.7 6.4l-1.1-1c.9-2.2 1.8-4.4 3.1-7.1 1.2-1.4 2-2.4 3.2-3.3 3.2-2.4 7-4.4 3.5-9z"/><path fill="#B83A6A" d="M326 156.7c3.5 5-.3 7-3.8 9.2-2.2 0-3.7 0-5.2.2l-1-4.7c-1-2.1-1.7-4-2.6-5.7-.8-1.4-1.7-2.7-2.5-4.4.9-.3 1.6-.3 2.8-.4.4-.1.3 0 .5.3 1.8.2 3.3 0 4.8-.1h3.7c1.3 1.8 2.3 3.5 3.3 5.6z"/><path fill="#703256" d="M332 171.3c2.1-1.6 4.2-3 7-4.4l1.2.1c-2.2 2.3-4.3 4.6-6.8 7-.5-.5-.7-1-1.2-1.9-.2-.1-.2-.6-.2-.8z"/><path fill="#8E3B5D" d="M317 166.4c1.5-.4 3-.5 4.8-.5-.5 1-1.3 2-2.4 3-1-.6-1.7-1.4-2.4-2.5z"/><path fill="#703256" d="M331 175.2c.1.2-.2.5-.7.8 0-.2.2-.5.8-.8zM328.8 177.1c.2.2 0 .5-.6.8 0-.2.2-.4.6-.8z"/><path fill="#DC446C" d="M340.6 167c-.6 0-.8 0-1.3-.2a32 32 0 0 1-2.2-5.5 66 66 0 0 1 7.7 5.4c-1.1.3-2.5.3-4.2.3z"/><path fill="#DF7281" d="M397.9 208.3c3.6-.3 7.3-.3 10.9-.3v1h-10.4c-.5 0-.5-.5-.5-.7z"/><path fill="#C46566" d="M375.4 206.4c2.7-.3 5.7-.4 9.1-.4.5.1.5.3.5.7-3.1.2-6.2 0-9.6-.3z"/><path fill="#E06976" d="m376 210 8.6-1.8c.4.3.4.7 0 1.5-3.2.3-6 .3-8.6.2z"/><path fill="#EA8388" d="M376 210.2c2.7-.2 5.4-.2 8.5-.2.4.4.2.6-.3 1h-7.7c-.5 0-.5-.6-.5-.8z"/><path fill="#DF7281" d="M397 163.3c1-.3 2-.3 2.9-.3v.6l-2.6.4c-.3-.2-.3-.3-.3-.7z"/><path fill="#DC446C" d="M346 167.7c-.3.2-.6 0-.9-.5.2 0 .5.1.9.5z"/><path fill="#8E3B5D" d="M318.6 151c-1.1.2-2.6.4-4.4.3 1.2-.3 2.6-.3 4.4-.3z"/><path fill="#D63C70" d="M343.7 172c.2.3 0 .5-.4.8-.2-.2 0-.4.4-.7z"/></svg>