<svg xmlns="http://www.w3.org/2000/svg" xml:space="preserve" viewBox="0 0 1705 1710"><path fill="#FFF" d="M1 643V1h1705v1710H1V643m1037.8 1017c1.4-.3 2.8-.7 5-1 1.4-.3 2.8-.7 4.9-1 .7-.3 1.5-.7 3-1 1.5-.3 2.9-.7 5.1-1a660 660 0 0 0 98.4-31.4 1343 1343 0 0 0 83.7-38.4c21-10.5 41.4-22.7 61.4-35.2a676 676 0 0 0 85-63c17.5-15.1 34.7-30.5 51.4-46.4 10.8-10.3 20.9-21.4 30.7-32.7 14.6-16.7 29.2-33.5 42.8-51 27-34.5 50.8-71 71-109.9a1152 1152 0 0 0 38.3-81.7 675 675 0 0 0 34.2-105c4.2-17.5 8-35.1 11.3-52.8 3.2-18.3 5.8-36.6 8-55 2.1-18.6 4.5-37.2 4.8-55.9.6-39.8 1.3-79.7-3.7-119.5-2-14.9-3-30-5.4-44.8a676 676 0 0 0-9.7-48.6c-5.2-22-10.6-44.1-17-65.9a734.7 734.7 0 0 0-40-103.6 733.2 733.2 0 0 0-52.5-95 1175 1175 0 0 0-47.5-66.3 821.2 821.2 0 0 0-43-50.2 651.1 651.1 0 0 0-34.9-35c-14-13.2-28-26.5-42.9-38.7a816.2 816.2 0 0 0-185.7-115.9 790 790 0 0 0-103.1-38.3c-21.2-6.1-42.4-12.3-64-16.4-29-5.5-58.5-9.5-87.8-13.3-17.4-2.2-35-3.3-52.5-4-16.4-.6-32.8-.4-49.2 0-14.1.3-28.2.8-42.3 2-19 1.6-37.9 3.4-56.7 6a715.7 715.7 0 0 0-115.4 25c-23 7-46 14-68.2 23.2-28.6 11.7-56.6 25-84.1 38.9a743.8 743.8 0 0 0-59 34.2c-30.2 19-59 40.1-85.8 63.7a2208 2208 0 0 0-49.9 45c-8.7 8.2-16.8 17-25 25.9a799 799 0 0 0-51 61c-10.3 14.1-20.1 28.6-30 43-5 7.5-9.7 15.3-15.1 23.3-8.8 15.2-18.1 30.1-26.3 45.7A706.3 706.3 0 0 0 84 584.3c-7.7 23-15.3 46.3-21.8 69.8A674.6 674.6 0 0 0 41 769c-1.7 18.2-3.9 36.3-4.8 54.4-.8 15 0 30.2-.2 45.2-.3 25.5 1 50.8 4 76 1.7 14.5 2.6 29 5.4 43.3 5.3 28.1 10.5 56.3 18 84a961.4 961.4 0 0 0 26.5 82.3 654 654 0 0 0 49.6 105.4c14.2 24.2 28.7 48.2 44.5 71.3 13.2 19.3 28 37.4 43 55.3 14.7 17.6 30.2 34.5 46 51 10.8 11.3 22.3 22 34.1 32.2 17.7 15.3 35.4 30.5 54 44.8a779.6 779.6 0 0 0 176.8 102 714.5 714.5 0 0 0 56.3 21.4c22.7 7.4 45.7 13.8 68.8 19.6 18.6 4.7 37.5 8.4 56.4 11.6 18 3 36 5.2 54 7.1 17 1.8 34 3.5 51 3.8 37 .7 73.9.7 110.6-2.8 7.1-.7 14.2-1.6 21.2-2.6 12.8-1.7 25.6-3.4 38.3-5.5 9.9-1.6 19.7-3.9 30.3-5.9l7-1.1c2-.6 4.1-1.3 7-1.9z"/><path fill="#FEE6C0" d="M157 433c4.8-7.7 9.4-15.5 14.5-23 9.9-14.4 19.7-28.9 30.1-43a799 799 0 0 1 51-61c8.1-8.8 16.2-17.7 25-25.9a2208 2208 0 0 1 49.8-45 666.9 666.9 0 0 1 85.8-63.7c19.3-12 38.7-24 59-34.2 27.5-14 55.5-27.2 84-39 22.2-9.1 45.3-16 68.3-23.1a715.7 715.7 0 0 1 115.4-25 1023 1023 0 0 1 56.7-6c14-1.2 28.2-1.7 42.3-2 16.4-.4 32.8-.6 49.2 0 17.5.7 35.1 1.8 52.5 4 29.3 3.8 58.7 7.8 87.8 13.3 21.6 4 42.8 10.3 64 16.4a790 790 0 0 1 103 38.3 842.3 842.3 0 0 1 185.8 116c15 12.1 29 25.4 43 38.6a821.2 821.2 0 0 1 77.9 85.1 1175 1175 0 0 1 47.4 66.4 733.2 733.2 0 0 1 52.5 95c15.8 33.6 29.4 68 40 103.6 6.4 21.8 11.8 43.8 17 65.9 3.8 16 7 32.3 9.7 48.6 2.4 14.9 3.5 30 5.4 44.8 5 39.8 4.3 79.7 3.7 119.5-.3 18.7-2.7 37.3-4.8 56a906.8 906.8 0 0 1-8 54.9c-3.2 17.7-7.1 35.3-11.3 52.9a675 675 0 0 1-34.2 105 1152 1152 0 0 1-38.3 81.6 718.5 718.5 0 0 1-71 110 1199.6 1199.6 0 0 1-42.8 51c-9.8 11.2-19.9 22.3-30.7 32.6-16.7 16-34 31.3-51.3 46.5a676 676 0 0 1-85.1 62.9 746.5 746.5 0 0 1-61.4 35.2 1343 1343 0 0 1-83.7 38.4 607.8 607.8 0 0 1-98.9 31c-3-1-5.5-1.8-9.4-2.8 2.3-1.3 3.4-2.3 4.8-2.7 7-2.2 14.2-4.3 21.4-6.4.4-.2.6-.9 1-1 5.5-1.5 9.7-8.8 16.8-4 .6.4 2.2-1 3.4-1.5 4.5-2 9-5 13.8-6 5.5-1.2 9.6-7.1 16.1-4.6l.4-.3c2.5-4 6.5-3.2 10.3-3.3a20 20 0 0 0 6.2-1.2c4.5-1.7 8.9-3.6 13.1-5.8 3.4-1.7 6.6-4 10.2-6.2l7-.8c.7-.7 1.1-1.4 2-2 2.5-.5 4.9-1.7 6.6-1.1 5.6 1.8 8.3.7 9-5 .2-3.2 1.7-4 4.5-4 1.8.2 3.7 0 5.5.1 3.2.4 5.4-1 5.9-4s0-6.3 0-10.3c2.3 1.3 4.2 3 6.4 3.7 1.6.5 3.6-.3 5.4-.6l-3-4-1.7-2c4-2.5 7.5-4.6 11.8-1 .8.6 3.9 0 4.4-.9 1.6-2.9 4-3 6.8-3 2.2.2 4.4.1 6.6.1l.2-1.4-6-5 .9-1.7 4.3 1.5c1.3.4 3.2 1.6 4 1.1 3.6-2 6.8-4.7 10.2-7.1.8-.6 2-1.5 2.6-1.3 5.4 1.9 7.3-1.6 8.3-4.8l5.8-1.8-7.5-8c.5-2.1 2.5-1.9 5.1-.5l7.8 3.3-4.2-7.6 1-1c1.6.9 3 2 4.7 2.4 2 .6 4.6 1.6 6 .8 9-5.6 17.8-11.7 26.7-17.6v-1.4l-6.2-2c1.8-.9 3-2 3.6-1.7 6 2.8 8.9-2.8 13-4.8 3.4-1.6 6.3-4.2 9.4-6.3a32.3 32.3 0 0 0 13-14c.5-1 3.4-2 4.2-1.6 2.3 1.5 4 3.8 6 5.8l1 1.6 4.7-4.3-1.6-1.6-5.3-6.3c6.7-1.9 12.6-3.5 18.6-7 7.2-4.1 13.4-9 17.8-15.3 4.7-6.8 13.5-9.6 16.5-17.9a6 6 0 0 1 3.6-3.2c3.4-1 3.9-3.4 3-5.8-2.2-6 1.6-9.3 5.7-11 2.6-1.1 6.5.8 9.8 1.3 1.3.2 2.6.2 4 .3-.4-1.1-.4-2.5-1.1-3.3-2.4-2.7-4.4-5.4-2.5-9a13 13 0 0 1 11-7c-1.2 2-3.3 2.8-4.5 4.4-1.2 1.6-1.3 4-2 6 1.8.5 4.5 1.9 5 1.3 4.2-4.4 8-9.2 11.7-13.9 2-2.5 3.2-5.6 5.5-7.6 3-2.6 7.5-3.8 10.1-6.6 2.9-3.1 4.5-7.5 6.4-11.4.6-1.1.5-2.6.7-4.2 5.5 3 9.9 2.6 12.4-.8 2.8-3.9 5.7-7.7 8.4-11.8 1.2-1.8 2.2-4 2.7-6.1.7-3.2 1-6.4 1.5-10.1 5 .7 7.5-1.2 7.7-6.5 0-3.2 2-6.2 3.2-9.9l4.6 4.2 1.5-1-4-9.6 9.8-9.2-.3 4.6c5-5.5 8.8-11.2 9.2-18.5 0-1 2.3-2.1 3.7-3.1 1.9-1.4 4.2-2.4 5.8-4.1 1.8-2 2.6-5.1 4.7-6.6 3.2-2.3 5.1-4.5 3.5-8.6 1.8-.5 3.2-1 5-1.4l-1.2-2.7c-2.1-5.8-1.1-7.7 4.8-9.7.8-.3 1.5-1.1 2.3-1.7 6-4.9 8.5-12.3 11.6-16.8l-1.8-14.6c3.3 1.5 6 4.8 7.3 0a49.2 49.2 0 0 1 8-17c3.7-4.9 3-11.8 7.8-16.8 2.8-2.8 2-9 4.8-12 4.3-4.7 7-9.7 8.2-16 1-6.5 3.4-12.7 4-19.2.5-5.5 3-9.1 6.7-12.7 2.1-2 4-5.1 4.3-8 .5-6 3.5-12 .6-18.1 6.4-.9 5.2-7 7.4-10.4 3-5.1 4.7-11 6.8-16.8.5-1.6.3-3.5.4-5.3 0-1.5-.5-3.5.2-4.2 4.2-4.2 4.7-8.5 1.5-13.3-.7-1-1-2.2-1.6-3.5 6.8.2 7.8-.5 8.8-6.9.2-1.8.2-3.7 0-5.5-.3-4.2 1.3-6 7.3-3.7-1-4.4-1.2-7.7-2.8-10.2-1.6-2.7-1-4.2.2-6.7 1.9-3.7 3.6-7.8 4.3-11.8 1-5.2.8-10.6 1.1-15.9.2-2.8 1.3-5.9.5-8.2-3-8 0-15.2 2-22.5l3.5-12.2c1-3.3 1.3-7.4 3.5-9.5 4-3.8 5-7.9 4.5-13a42 42 0 0 1 .4-8.5c.7-.7 1.5-1.5 1.3-1.9-2.4-5.4-5.4-10.7-4.7-17.4 0-1.1 0-1.9.2-2.8.5-.7.6-1.2.8-2.2 0-1.1 0-1.9.3-2.8 1.4-2.8 2.5-5.3 3.7-8.3v-11c-.7-6.6-2-12.9-1.8-19 .1-9.4 1.2-18.7 2-28 0-.5.4-1 .4-1.4l-.6-19.8-1.6-.2-1.5 28.5h-2.2l-.7-9v-11c-.5-4.2-2.3-8.5-1.1-11.7 2.4-6.3.9-12.2.6-18.4-.3-4.8.3-9.8 1.1-14.6.9-5 2.8-9.9-.9-14.2-1.9-.5-4.4-1.4-4.5-2.5-.7-7.2-.6-14.4-1.2-21.5-.6-7.3-1.6-14.5-2.7-21.8-.1-1-1.3-1.9-1.8-2.9a29 29 0 0 1-1.5-4.4l-1-4-3-5c0-1.8 0-3.2.4-4.7 2.5-4 3.1-8 1.4-12.6-2.4-6.3-3.6-13-6-19.3-2.6-7.3-1.9-16.4-10.5-20.6 3.8-4.6 3.5-6.1-1.3-9.8 1-7.5-4.6-11.6-8-17.2l8.8-.8c-2.2-3.4-3.8-6.5-6-9-2.6-3.3-6.6-5.4-6.2-10.7.1-1.2-2-2.6-3.2-3.9l-1.4.4v8.7l-4 3.6 8.3 2.6c-.6 1.6-1.7 3.3-2 5.2-.2 2.1-.7 5.3.4 6.4 3.7 3.4 4 7 2.5 11.3-.1.3.3.8.5 1.4l4.7-3.2c-.1 3 .5 5.7-.5 6.8-2.5 2.6-1.7 5-.9 8.2l3 9 2 4.9c.4.8.7 1.2 1 2.1l2 11c-.5 5.7.7 10.3 4.1 14.5.8 1 .6 2.7.9 4.5l-1 6c1.4 1 2.7 1.8 4 3-.4 4.1-.7 7.9-.8 12 1 2.5 1.8 4.8 2.8 7 .8 1.6 2 3 3 5 .3 2 .6 3.6.7 5.3.5 4.2 1 8.5 1.3 12.8l1 12.9c2 5 3.2 9.4.3 14.4-1 1.8.1 4.8.4 7.2l1.4 11.4 1 7.2c.3 2.5.6 5 .6 7.7 0 5.6 0 11 .4 16.2.3 4.2 1.2 8.3 1.9 12.9v8c.3 3.1.7 5.9.7 8.8-1.3 1.7-2.4 3.2-3.5 4.3-1.4-23.4-2.4-46.3-4-69.1a618.3 618.3 0 0 0-16.4-102.1c-6.2-25-13.9-49.5-21-74.6-4.9-14.2-9.8-28-14.3-41.6 3.4 2.9 6.3 5.7 5.6 10.5-.1 1.2 1 3 2 3.7 3.2 2.4 4 5.4 4 9.1 0 2.8 1.1 5.6 1.7 8.4 2.4-5.1 4-9.7 5-14.4.3-1.8-1-3.9-1.9-5.8-.2-.7-1.5-1.2-1.4-1.8.6-7.5-6.5-10.4-9.5-15.7-2.4-4-5.3-7.8-8.2-12l4.3-2.6c2.4 2.2 4.1 3.9 6 5.9l1.5 3.5 1.6-1.5c-1-.8-2.1-1.6-3.2-2.8 3.3-6.9-.2-11.6-4.8-17.8l-2.5 5.5c-.5-12.2-1-13.4-8.2-15.3l3.6 7.1c-4.6 2-6-2-6.6-4-.7-2.5.5-5.6.8-7.3l-6.2-1.9c1.3-1.6 2.3-3.5 3.9-4.8 1.3-1 3.2-1.4 4.7-2l7.4 14.9 2.4-.7c-.3-2.2-.3-4.5-1-6.7-.4-1.5-2-2.6-2.7-4-7.5-14-15.3-27.8-22.2-42-2.4-5-6.9-8.4-8.6-14.3-2.2-7.8-7.3-14.8-11.4-22.1-2.6-4.7-5.8-9.2-8.3-14-1.5-2.9-2.8-2.6-4.9-.9-1.9 1.6-4 2.8-6.6 4.6-1-3.8-1.4-6 2-7 4-1.2 3.8-3.4 1.4-6.3-2.7-3.4-5-7.2-7.4-10.8-2-2.8-3.7-5.8-6.1-8-1-.8-3.7.8-5.7 1.1-.8.1-1.7-.3-4-.8l5.5-3c-1.5-10-12.2-13.8-15.5-23.3l-5 5.3c-2.4-2.7-3.2-4.8-.3-7.3 2.3-1.9 1.6-3.7-.5-5.7-2.6-2.5-4.8-5.4-7-8.2-1-1-1.3-2.7-2.3-3.2-4.5-2.2-9-4.3-8.6-10.9-1.9 1-2.8 2-3.8 2-5 .7-4.3 6.1-7.3 8.4l.8 2c5.6-1.1 4.4 4 5.8 6.7l4.7-.3c.2 3.4.3 6.4.1 9.3-14.7-16.9-28.7-34-43.8-50.3a801.7 801.7 0 0 0-237.4-174.2 792.8 792.8 0 0 0-287.6-76.1c-28-1.7-56.2-1.8-84.3-1.3a757.5 757.5 0 0 0-175.4 24.9A792.4 792.4 0 0 0 430.8 180a784.6 784.6 0 0 0-137.2 107.7c-11.9 11.7-23.3 23.8-35.1 35.4 3.2-6.6-2.8-7.2-5.5-10a48 48 0 0 1-17.9 23.5l-3-.5-22.5 29.5 1.2 2.9c-6.8 3.7-11 9.4-15.4 14.9-1.9 2.3-3.5 5-5.3 7.3l-4.5 5.3c-.2.3 0 .9-.1 1.4l4.6 1.2-1.7 4.5c-3-3.6-4.5-1.8-6 1-1.7 2.7-3.3 5.9-5.8 7.6-5.5 3.8-8.5 9.2-7.4 13.7l-9.7 13.2-2.5-5.8z"/><path fill="#FCE7C6" d="M1619 1116c3.3 6 .3 12.2-.2 18.2-.2 2.8-2.2 5.9-4.3 7.9a19.2 19.2 0 0 0-6.7 12.7c-.6 6.5-3 12.7-4 19.2-1.1 6.3-4 11.3-8.2 16-2.7 3-2 9.2-4.8 12-4.7 5-4.1 12-7.8 16.8-3.9 5.2-6.3 10.8-8 17-1.4 4.8-4 1.5-7.3 0l1.8 14.6c-3 4.5-5.5 12-11.6 16.8-.8.6-1.5 1.4-2.3 1.7-6 2-7 3.9-4.8 9.7l1.1 2.7-5 1.4c1.7 4.1-.2 6.3-3.4 8.6-2.1 1.5-2.9 4.6-4.7 6.6-1.6 1.7-4 2.7-5.8 4.1-1.4 1-3.6 2-3.7 3.1-.4 7.3-4.1 13-9.2 18.5l.3-4.6-9.9 9.2 4 9.7-1.4.9-4.6-4.2c-1.3 3.7-3.1 6.7-3.2 9.9-.2 5.3-2.6 7.2-7.7 6.5-.5 3.7-.8 7-1.5 10.1-.5 2.1-1.5 4.3-2.7 6.1-2.7 4-5.6 8-8.4 11.8-2.5 3.4-7 3.9-12.4.8-.2 1.6 0 3-.7 4.2-2 4-3.5 8.3-6.4 11.4-2.6 2.8-7 4-10.1 6.6-2.3 2-3.6 5.1-5.5 7.6-3.7 4.7-7.5 9.5-11.6 13.9-.6.6-3.3-.8-5-1.3.6-2 .7-4.4 1.9-6 1.2-1.6 3.3-2.4 4.5-4.3a13 13 0 0 0-11 7c-2 3.5.1 6.2 2.5 8.9.7.8.7 2.2 1 3.3l-3.9-.3c-3.3-.5-7.2-2.4-9.8-1.3-4.1 1.7-8 5-5.7 11 .9 2.4.4 4.9-3 5.8a6 6 0 0 0-3.6 3.2c-3 8.3-11.8 11-16.5 18a52.9 52.9 0 0 1-17.8 15.2c-6 3.5-12 5.1-18.6 7l5.3 6.3 1.6 1.6-4.8 4.3-.9-1.6c-2-2-3.7-4.3-6-5.8-.8-.5-3.7.6-4.2 1.7a32.3 32.3 0 0 1-13 14c-3.1 2-6 4.6-9.4 6.2-4.1 2-7 7.6-13 4.8-.6-.3-1.8.8-3.6 1.8l6.2 2v1.3c-8.9 6-17.7 12-26.8 17.6-1.3.8-4-.2-5.9-.8-1.6-.4-3.1-1.5-4.7-2.3l-1 .9 4.2 7.6c-3.3-1.4-5.6-2.2-7.8-3.3-2.6-1.4-4.6-1.6-5 .4l7.4 8.1-5.8 1.8c-1 3.2-2.9 6.7-8.3 4.8-.7-.2-1.8.7-2.6 1.3-3.4 2.4-6.6 5-10.1 7.1-.9.5-2.8-.7-4.1-1.1l-4.3-1.5-1 1.6 6.1 5.1-.2 1.4h-6.6c-2.8-.1-5.2 0-6.8 3-.5.8-3.6 1.4-4.4.7-4.3-3.5-7.8-1.4-11.8 1.1l1.7 2 3 4c-1.8.3-3.8 1.1-5.4.6-2.2-.7-4.1-2.4-6.3-3.7 0 4 .4 7.3-.1 10.3-.5 3-2.7 4.4-6 4-1.7-.2-3.6 0-5.4 0-2.8-.1-4.3.7-4.6 3.8-.6 5.8-3.3 7-8.9 5-1.7-.5-4.1.7-7 1.2-1 .7-1.5 1.4-2 2l-7 .9-7.2 2.1-1-1.2 7.9-10-.7-.8-19.7 10.5 1.7 4.9c-1.6.8-3.8 1.1-4.2 2-1.3 3.9-4 2.7-6.7 2.7-3.6 0-7.2.4-10.7 1.1-3 .6-5.7 2.5-8.5 2.6-2.8.1-5.7-1.3-8.5-2 1.5 6.1 1.4 6-5 9-2.9 1.5-5.3 2.4-8.1 0-1-.8-2.8-.6-4.3-1.1l-1.9-2.3-.9 1.4c1 .4 1.9.8 2.8 1.6-.2 1-.1 2-.5 2.2-6.7 3.4-12.8 8.6-21 8.2-1.3-.1-3 .3-3.8 1.1-4.3 4.7-10 5.4-15.8 5.8-3.8-5.9-13.8-7.6-19.8-2.2l14.7 2.5v1.6c-1.6.5-3.2 1-5.2 1.4h-6l-3.2 2.2c1 2 1.8 3.4 2.2 4.8-2.8.7-5.4 1.6-8 2.4l1.4 2.6c-9.8 2-19.6 4.3-29.5 6-12.7 2-25.5 3.7-38.3 5.4-7 1-14 1.9-21.2 2.6a963.7 963.7 0 0 1-110.5 2.8c-17-.3-34-2-51-3.8-18.1-2-36.2-4.1-54-7.1a725.7 725.7 0 0 1-56.5-11.6c-23.1-5.8-46.1-12.2-68.8-19.6a842.2 842.2 0 0 1-110.6-46.5 779.6 779.6 0 0 1-122.6-77 1203.3 1203.3 0 0 1-53.9-44.7 491.8 491.8 0 0 1-34-32.2 1078.7 1078.7 0 0 1-46-51c-15-17.9-29.9-36-43-55.3-15.9-23-30.4-47.1-44.6-71.3a654 654 0 0 1-49.6-105.4c-10-27-19.1-54.5-26.6-82.4-7.4-27.6-12.6-55.8-18-83.9-2.7-14.2-3.6-28.8-5.3-43.3-3-25.2-4.3-50.5-4-76 .1-15-.6-30.1.2-45.2 1-18.1 3-36.2 4.8-54.4 3.6-39 10.8-77.3 21.1-115 6.5-23.5 14-46.7 21.8-69.8A706.3 706.3 0 0 1 130 479c8.2-15.6 17.5-30.5 26.6-45.9 1 1.6 1.8 3.3 2.8 5.6l9.7-13.2c-1-4.5 1.9-10 7.4-13.7 2.5-1.7 4.1-4.9 5.7-7.6 1.6-2.8 3-4.6 6.1-1l1.7-4.5-4.6-1.2c0-.5-.1-1.1.1-1.4l4.5-5.3c1.8-2.4 3.4-5 5.3-7.3 4.4-5.5 8.6-11.2 15.4-14.9l-1.2-3c7.6-9.8 15-19.4 22.5-29.4l3 .5a48 48 0 0 0 18-23.5c2.6 2.8 8.6 3.4 5.3 10 .1.3 0 .2-.4 0-2 .6-4.3.8-5.3 2-3.4 4.2-6.5 8.8-9.4 13.4-1.9 3-4 4.9-7.2 3.7-1 1.4-1.7 3.3-2.7 3.5-4.7.9-4.5 3.4-2.2 7-5 2.7-10.3 4-11 11.2-.4 4-4.8 7.6-7.2 11.6-1.8 2.9-3.5 5.8-8.2 2.6 5 5.2-1.4 7.2-1.8 10.7-1.5-.3-3-1.2-4-.7a8 8 0 0 0-3.6 3.7c-.7 1.6-.2 3.7-.2 6l1.8.1V401.2c-.4.4-.6.6-1.3.9-.8 1-1.2 2-1.7 3h-.3c-1.2.2-2 .2-2.7.6-2 1.6-4.2 3.1-6 5-2 2.1-5.7 5.8-5.2 6.7 2.4 4-.3 6.4-1.7 9-1.7 3.3-4 6.2-6 9.2-5.8 8.8-11.3 17.8-17.6 26.3-2.8 3.7-4.1 6.8-2.5 11.1h-.4c-5.1 1.5-4.9 5.3-4.6 9h-.3c-.8.3-1.5.3-1.7.7-3.7 5.7-7.7 11.4-10.8 17.4-2.2 4.2-3.1 9-5 13.3-.7 1.6-2.4 2.7-4.2 4.6l-2.8 13-4.8-6.3c-2 3.1-1.8 5.6 0 8.3a9.5 9.5 0 0 1 1 4.2c-4.3 1.4-3.4 4.6-3.4 7.5-6.7 14.4-10.6 30.1-19.3 44.4l-2-9.8h-1.9c-.5 2.8-1.5 5.6-1.4 8.3 0 1 3 1.6 4.5 2.6.8.5 1.8 1.5 1.6 2-.2 1-1 2-2 2.6-1 .6-2.2.7-3.8 1 2.9 4.9 4 8.9-2.3 11-.7.2-1.3 1.7-1.2 2.6.2 3.5 1.8 6.7-1.7 10.3-2.4 2.4-2.1 7.3-3.2 11.5-7.6-3.7-6.4 3.4-7.8 6.4-1.9 4.2.7 7.2 6 8.2-1.5 2.3-2.3 5.2-4 5.9-3.3 1.3-2.4 3-1.9 5.4.4 2 .1 4.2-.4 6.1-.8 2.8-2.8 5.4-3 8.2-.8 8.2-5.7 15.4-4.7 24 .2 2.2-2.8 4.5-3.6 7-1 3.2-2.4 7.1-1.3 9.8 2 5.4 1.8 9.6-2.6 13.2 2.3 3.6.1 19.8-3.2 21.2-4.3 1.8-2.6 4.2-2.1 7.5l3.1-4.7c1.2 2.1 1.4 4 1.1 6-.5 3.5-1.3 7-1.9 10.5-1 6.2-1.8 12.5-2.7 18.7-5.3-.2-5.9.7-4.8 7.7 4.4.3 5 .8 4.4 5.9-.7 7.4-2 14.7-2.7 22-.3 4.5-1.4 9.3 2.8 13.2 0 1.8 0 3.2-.5 4.7-.8 3.1-.9 6.2-1.8 9.1-2.7 8.6-1.4 17-.2 25.6.8 6 3.2 13.2-3 18.7-.6.6 0 3 .6 4.4 2.8 6 5 12.1 4 19-.4 3 .6 6.3 1.2 9.4.7 3 1.7 5.9-1.8 9.1l-2.3-8.1-1.8-.2c-.7 3.9-3 8.5-1.6 11.3 1.8 3.8 3.3 8 5.5 11.3 2.6 4.2 1.9 6.7-.3 10.1-.6.8.4 3.8.9 3.8 4.5.3 4 3.5 4.2 6.5.1 2.6.7 5.2 1.3 7.7 1.1 5.1 2.7 10 3.5 15.2 1 6.8 1.5 13.7 2.2 20.6.1 1 .8 1.8 1 2.8 1.7 6.1 3.7 12.2 4.8 18.5 1.4 8 1.8 16.2 6.2 23.4 1 1.8 1.2 4 2 6 1 2.6-.6 6.7 3.8 8 0 .8 0 1.3-.2 2-1.5 3.3 1.4 9.7-6.5 6.9 3.9 6.8 7.2 13.3 11.3 19.3 4.5 6.7 7.3 13.6 5.9 21.1 1.6 1.8 3.4 3 4 4.6 2.1 5 4 10 5.5 15.1 2.6 8 4.3 16.2 7.5 23.8 3.4 8 8.1 15.3 12 22.4l-4.9 12.5 1.7.8 5.9-7.3c1 3.4 1.2 5.2 2 6.7 1.7 3.8 2.6 7-2 9.5-.8.4-.7 2.4-1 3.7l1.1.6c1.3-1.1 2.4-2.5 3.8-3.4 1.5-.8 3.3-1 5-1.4.1.2.2.6.1 1l3 4.2 3 6.8c1.3 2.6 2.8 4.8 4 7 6 10.7 11.8 21.6 17.9 32.3 3.9 6.8 8 13.4 12.3 20.5a731 731 0 0 0 72.6 99.3c14.5 16.7 30 32.4 45.3 48.9l7.7 7.6a797.5 797.5 0 0 0 778 191.5 790.7 790.7 0 0 0 98.4-36c38.9-17.2 76.6-36.9 111.9-60.6 23.2-15.6 45.7-32.5 68-49.5 14-10.8 27.1-22.7 40.4-34.5 6.5-5.8 12.3-12.4 18.4-18.7h.3c.4-.4.6-.7 1.1-1a18 18 0 0 0 3.4-2.6c14.6-15.9 29.6-31.4 43.6-47.7 12.2-14 23.3-29 34.7-43.8 1.1-1.4 1-3.9 1.8-5.8 2.1-1.1 4-2 5.6-3.3 1.3-1.1 2.3-2.5 3.9-3.8 5.3-3.4 7.7-8.2 8.7-14.3 1-1.8 2-3.2 3.3-4.7 4.6-1 8-2.6 8.3-8 0-1.7 2-3.5 3.4-5 2-2 4.2-3.9 1.9-7.4.3-1 .6-1.8 1.3-2.6 4.1-1 6.3-3.4 7.7-6.9a119 119 0 0 1 5.2-11.3c1.3-2.4 3.2-4.5 4.8-6.7 1.3 2 2.5 4 4 6 .6.8 1.6 1.2 2.5 1.8.5-1 1.6-2 1.3-2.7-.5-1.7-1.4-3.3-2.5-4.6-4.3-4.7-4.3-5.8.6-9.6 4-3 3.9-6.9 2.1-11.4l5-11.9c0-.2.1-.6.4-.7l3-1c1.7-1 4-1.8 4.3-3 1-4.7 4.2-9 2.3-14h.3c2-2.4 3.7-4.7 5.3-7 2.2-3.3 4.8-6.4 6.3-10 3.2-7.7 6-15.6 8.6-23.6 1.3-4.3 1.7-9 2.5-13.7.3-.8.6-1.2 1.3-1.7 6.1-1.6 6.7-3 6-8.8-.2-2.5 1-5.3 1.9-7.8.2-.6 1.5-1.1 2.3-1.1.5 0 1.1 1 1.4 1.6.6 1.5 1 3.1 1.5 4.7l2-.5c-.7-2.7-.5-6-2-8-2.3-2.6-2.8-4 0-6.2.9-.6 1.1-2.1 1.6-3.2l1.5-3.7 3.5 4m-556 521.5 4.5-3.3-21 4.6c3.5 3.3 6.4 4.1 9.8 2.3l6.7-3.6m437.5-296.6.7-4.5c-1.5-.2-3.2-.7-4.5-.2-.7.2-1.2 2.8-.7 3.6.6.9 2.5.8 4.5 1.1m-19.4 27.6c-.4.5-1 1-1 1.6-.2 1.1 0 2.3.1 3.4 1-.1 2.7 0 3-.5.9-1.4 1.1-3.2 1.6-4.8-1 0-2.1-.2-3.7.3m-7 2 3-4.5-.9-.5-5.7 5.2.4.9c.9-.2 1.8-.5 3.2-1.2m6.4-9.7-2.3 1.7 1.1 1.2c.5-.7 1-1.5 1.2-3z"/><path fill="#FEE6C2" d="M1048 1648c5.7-.7 11.4-1.4 15.7-6 .8-1 2.5-1.3 3.8-1.2 8.2.4 14.3-4.8 21-8.2.4-.2.3-1.2.5-2.2 1.5-.2 3.3-.4 4.3.4 2.8 2.4 5.2 1.5 8.1 0 6.4-3 6.5-2.9 5-9 2.8.7 5.7 2.1 8.5 2 2.8-.1 5.6-2 8.5-2.6 3.5-.7 7.1-1.1 10.7-1.1 2.7 0 5.4 1.2 6.7-2.6.4-1 2.6-1.3 4.2-2.1l-1.7-5 19.7-10.4.7.8-8 10 1.1 1.2 6.8-2c-2.8 2-6 4.3-9.4 6-4.2 2.2-8.6 4.1-13 5.8-2 .8-4.2 1-6.3 1.2-3.8.1-7.8-.6-10.3 3.3 0 .2-.3.3-.4.3-6.5-2.5-10.6 3.4-16.1 4.6-4.9 1-9.3 4-13.8 6-1.2.6-2.8 1.9-3.4 1.5-7.1-4.8-11.3 2.5-16.8 4-.4.1-.6.8-1 1l-21.4 6.4c-1.4.4-2.5 1.4-4.8 2.7 3.9 1 6.4 1.7 9 2.8-1.3.7-2.7 1-4.7 1.1-1.5.3-2.3.8-3.2 1.3-1.4.3-2.8.7-4.6.6-1-1.8-1.7-3.2-2.2-4.9l6.8-5.7m105.5-36.3-3-.3.1 1.4a5 5 0 0 0 2.9-1.1zM1031 1658l-2.6-4.8c.7-.5 1.8-1.3 3.3-1.8 2 .8 3.7 1.2 5.3 1.8v1.2l1 5.6c-2 .6-4.2 1.3-6.6 1.5-.4-1.4-.4-2.5-.4-3.5z"/><path fill="#FEE6C0" d="M1030.6 1658c.4 1 .4 2 .4 3.5a33 33 0 0 1-6.6 1.5c-.8-.9-1.3-1.7-1.7-2.6 2.5-.8 5-1.7 8-2.4zM1038.4 1660c-.7-1.7-1-3.5-1-5.6 1.5-.4 2.5-.4 3.6-.4l2 4.6a17 17 0 0 1-4.6 1.4zM1048.3 1658c.6-.5 1.4-1 2.5-1.3-.6.6-1.4 1-2.5 1.3z"/><path fill="#F6911F" d="M52.9 838c0-1.4.1-2.8.4-5 1-14.2 1.3-27.9 2.7-41.4 2.1-20.6 4.2-41.3 7.7-61.7 3.7-22.2 8.2-44.4 13.6-66.2 5-20.1 11.7-39.8 17.7-59.3 1.8.8 3.5 1.6 5.2 1.6l442.8 1c18.7 0 37.3-1 56-1l237.9 1c7 0 13.9-.8 20.9-1h752.1c7 24.8 14.7 49.3 20.9 74.3a618.3 618.3 0 0 1 16.4 102c1.6 23 2.6 45.8 3.9 69.6V877.5l-1.9 38.8v2l-.2 3c0 .8 0 1.3-.2 2l-1.8 20c0 .8 0 1.2-.3 2-.7 3.8-1.2 7.2-2.2 10.7H764.8c-1.9 0-3.8-1-5.7-1.7 3.4-3.6 6.7-7 10.2-10.3.6-.2.8-.5 1.3-.8l.7-.4c.8-.5 1.3-1 1.8-1.7h.3l1.3-1 1.7-1 12.6-8.2h.3l-.7.1-15.8 5.8h-.3l-1.7 1h-.3c-.7.3-1.2.7-1.6 1.1h-.3c-1.2.6-2 1.2-2.8 2 0 0 0-.2-.3-.1l-2.7 2h-.3c-1.4 1-2.6 2-3.6 3 0 .1 0 0-.4 0-.8.7-1.3 1.3-1.7 2 0 0 0-.2-.3-.1l-1.5.5c-.5.4-.7.7-.9 1h-.2c-.9.5-1.4 1.1-2.2 1.9-.5.3-.7.6-1 1-.5.3-.6.6-1 1l-1 1c-3.7 2.8-6.5 1.7-9.2-1-1-.9-2.4-1.3-3.6-2v-.3a9 9 0 0 0-2.5-1.7 78 78 0 0 0-26-17.5c7.6 8 14.5 15.1 21.5 22.8-2 .8-4 1.6-6 1.6H66a38 38 0 0 1-7-.5c-2-26-4.4-51.6-5.9-77.2-.8-13.4-.3-26.9-.3-40.3m665.3-87-14.7 7.9-11-8-.3.7 11.5 13 15.4-13.8s0 .2-.9.2M474 822l-.2-.1.7.7 17.5 18.3 20.5-19.4c-7.8 1.3-14.3 7-20.4 13.8-1.4-1.5-2.3-3-3.7-3.9-4.7-3.2-9.5-6.2-14.4-9.4m131 18.1.4.6 17.6 18.4 20.8-19.6a31.7 31.7 0 0 0-16.5 9.6c-3.1 3.5-4.7 4-8.4.3-3.8-3.9-9.1-6.2-14-9.3m339.7 103.5c-7-7.2-14-14.5-23.2-17.8l24.4 27c6.8-12 17-20.9 29.1-27.8-2 .2-3.8.6-5.6 1.2a62.6 62.6 0 0 0-24.7 17.4m-202-66.6c-4.6 4-9.2 8-14 12.4a62 62 0 0 0-23.3-18.3l24.5 27.1c7-11.6 17-20.8 29.3-27.4l-.7-1.2-15.8 7.4m-179.3 37.4 11.3 14.3a78.9 78.9 0 0 1 29.2-28.2 49.4 49.4 0 0 0-29.6 19.2 61.7 61.7 0 0 0-23.2-18.4l12.3 13.1m299-122.4c-2 2.7-3.2.5-4.7-.8l-13.3-11-.7 1 16.5 18.6 20.6-19.7c-7 1.8-13 5.7-18.5 11.9M541.8 690.7l-6-3.8-.3.6 11.3 12.8 14.8-14.2-.4-.7-14.8 9.5a500 500 0 0 0-4.6-4.2z"/><path fill="#F05A28" d="M1609.8 605.7c-240.7.3-481.5.3-722.3.3h-29.7c-7 .2-14 1-21 1L599 606c-18.7 0-37.3 1-56 1l-442.8-1c-1.7 0-3.4-.8-5.1-2 7.6-21 14.8-41.3 23.2-61.3C125 526.8 133 511.5 141 496h570.8l3.3-.3c-2.6-3-4.3-5.7-6.7-7.6a77 77 0 0 0-36.7-15.2c-1.7-.3-3.6-1.8-4.7-3.2-3.1-4-5.2-9-8.9-12.4-12-11-25.9-12-40.8-5.7-.4-.4-1.1-1-1.4-1.7a112.4 112.4 0 0 0-26.2-34.5 55.2 55.2 0 0 0-22.7-12.2c-5.6-1.8-11.2-4.3-17-5-8.5-1.1-17.2-.8-25.8-1.3-2-.1-4.4-.8-5.7-2.1-7.2-7.5-13.9-15.6-21.3-22.8a128.5 128.5 0 0 0-33.8-22.3 145.8 145.8 0 0 0-110.2-6 149 149 0 0 0-49.7 29c-1 1-3 1.7-4.2 1.5a127 127 0 0 0-42.2-4.4 113.4 113.4 0 0 0-40.4 10.9c-1.3.6-3 .2-4.5 0 10.2-13 20.4-25.8 30.6-38.5l15.5-18.8.2.1c11.7-11.9 23.1-24 35-35.7 41.7-41 87.5-76.9 137.2-107.7a792.4 792.4 0 0 1 330-114.8 722 722 0 0 1 64.7-4.3c28.1-.5 56.3-.4 84.3 1.3a792.8 792.8 0 0 1 426.2 161c35.5 27 68.5 56.8 98.8 89.3 15.1 16.2 29 33.4 43.9 50.3.3.1.2.1.3.5 2.7 3.4 5.3 6.6 8 9.7v.3c5.3 7.7 10.8 15 16 22.5 9.1 13 18 26.2 27 39.6l.3.8c.2.5.4.6.7.7v.3a845.6 845.6 0 0 1 48.7 91.3c5.2 11.4 10.2 23 15.2 34.8l.3.6 14.6 41.7M1040.5 345h240.4c1.7 0 3.4.2 5-.2 3.2-.8 5.3-2.4 3-6-1.7-2.7-3.3-5.5-5.4-7.7a64.4 64.4 0 0 0-44.9-19.1c-2.2-.2-4.7-.4-6.5-1.6-3.1-2-5.8-4.9-8.6-7.5-8.8-8-19.5-9.2-30.6-8.2-3.1.3-5.3.2-7.3-2.5a78.8 78.8 0 0 0-84.4-30.9c-2 .5-5 0-6.3-1.2a92.5 92.5 0 0 0-40.1-20.9 99.3 99.3 0 0 0-98.2 29.2c-4.6 5-8 9.9-17.1 9a52.3 52.3 0 0 0-45 19.9 23 23 0 0 1-13 7.7c-5.7 1.4-10.7 5.5-16.3 7.7a28.1 28.1 0 0 0-15.8 14.2 4 4 0 0 1-2.5 2c-6.2 1.1-10.5 5.3-14.6 9.5-1.5 1.5-2.2 3.9-3.6 6.6h211.8z"/><path fill="#FCE7C6" d="M1595.5 564c-.3 0-.6-.4-.5-1l-4.1-19.9c-.1-.6-.7-1-1-1.7-4-7.4-8.1-14.9-12-22.4-2-4-3.1-8.5-5.7-12-2.1-2.9-2.4-4.4.2-7 2.7-2.8 2.2-5.3-.7-7.4l-3.4 5.5-17.9-33 5.6.4c-1-5.6-4.3-2.6-6.6-2-1.4-4.3-.6-5.5 4-8-.8-2.2-2-4.3-2.4-6.5-1-6.8-3.3-10-9.4-11.6 3.4 6.4 7.9 12.2 3.7 21-1.7-3.6-4-6.2-4-8.8-.2-7.1-5.4-9.6-10.3-12.6v-.2l-.7-.7s-.3-.4-.3-1c-.5-3-.2-5.7-1.4-7.4-4.3-6.6-9.1-12.8-13.7-19.3-1.7-2.5-3.2-5.2-4.9-7.8-1.5-2.2-3.2-4.3-4.7-6.6-1-1.3-1.5-2.7-2.2-4l3.7-2-.4-1.5-6.7.8c-1.3-2-2.8-5-4.9-7.5-2.3-2.5-5.3-4.5-8-6.7 0 0 .2 0 .2-.4-1-5-2.7-8.9-8-9.7l-.5-9.4-4.7.3c-1.4-2.7-.2-7.8-5.8-6.7-.1 0-1-2-.8-2 3-2.3 2.4-7.7 7.3-8.4 1 0 2-1 3.8-2-.4 6.6 4.1 8.7 8.6 10.9 1 .5 1.4 2.2 2.2 3.2 2.3 2.8 4.5 5.7 7 8.2 2.2 2 2.9 3.8.6 5.7-2.9 2.5-2.1 4.6.2 7.3l5-5.3c3.4 9.5 14.1 13.2 15.6 23.3l-5.5 3c2.3.5 3.2 1 4 .8 2-.3 4.8-1.9 5.7-1.1 2.4 2.2 4.2 5.2 6 8 2.6 3.6 4.8 7.4 7.5 10.8 2.4 3 2.7 5-1.3 6.3-3.5 1-3 3.2-2.1 7 2.6-1.8 4.7-3 6.6-4.6 2.1-1.7 3.4-2 4.9 1 2.5 4.7 5.7 9.2 8.3 13.9 4 7.3 9.2 14.3 11.4 22.1 1.7 6 6.2 9.2 8.6 14.3 6.9 14.2 14.7 28 22.2 42 .8 1.4 2.3 2.5 2.7 4 .7 2.2.7 4.5 1 6.7l-2.4.7-7.4-15c-1.5.7-3.4 1-4.7 2-1.6 1.4-2.6 3.3-3.9 5l6.2 1.8c-.3 1.7-1.5 4.8-.8 7.4.6 2 2 6 6.6 4l-3.6-7.2c7.1 2 7.7 3.1 8.2 15.3l2.5-5.5c4.6 6.2 8.1 11 4.8 17.8a60.6 60.6 0 0 1-5.9-5l-4.3 2.6c2.9 4.1 5.8 7.8 8.2 11.9 3 5.3 10.1 8.2 9.5 15.7 0 .6 1.2 1.1 1.4 1.8.8 1.9 2.2 4 1.9 5.8-1 4.7-2.6 9.3-5 14.4-.6-2.8-1.7-5.6-1.7-8.4 0-3.7-.8-6.7-4-9-1-.8-2.1-2.6-2-3.8.7-4.8-2.2-7.6-5.6-10.5m-32.5-83.6 2 4.7c3.4-8.8 1.1-14.9-5.2-15.8 1.2 3.6 2.2 7 3.2 11m-32-70.4-10 5.4 3.7 3.3c2.5-2.1 4.6-3.7 6.4-5.6.6-.6.5-2 0-3m-13.4-11.6c-4.5-.5-2.3 2.2-2.2 3.8l1.4.6c.4-1.3.9-2.6.8-4.4m-11-18.7-2.4.1.5 1.7c.6-.4 1.3-.7 1.9-1.8m62.4 108.5 1.5.8v-2.3c-.5.3-1 .6-1.5 1.5z"/><path fill="#FFE6C3" d="M1649 923c0-.4 0-.9.4-1.7.2-1.4 0-2.3-.2-3.3 0-.4 0-.9.3-1.8 1.2-2.3 2-4.2 2.4-6.2.6-2.6.8-5.3 1.5-8 3.3-2 3.8-13.8 1-15.8-.3-.3-1-.2-1.4-.6 1.3-3.5 1.5-6.4-1.8-8.6v-1.8c.5-.7.4-1 0-1.2v-21.6c1.1-2 2.2-3.5 3.8-5 2.3 1.2 4.1 2.5 5.9 3.7l1.4-.7c-.8-4-1.3-7.9-2.4-11.7-.4-1.7-1.9-3-2.9-4.6l-3 3.9c0-2.4 0-4.8.4-7.7.8-2.3 1.6-4 1.5-5.9-.1-5.1-.6-10.3-.6-15.4.8-.7 1.2-1.4 2.1-2 4.1.3 4-2.3 3.4-4.6-.5-2.4-1.7-4.6-3.1-8.2-.3 3.5-.5 5.7-1 7.8l-2-.1-2.7-.9-.9-7.4-1-7.2-1.4-11.4c-.3-2.4-1.4-5.4-.4-7.2 2.9-5 1.6-9.4 0-14.4 2.1 1.3 3.9 2.8 5.6 4.4.7-1.9.4-3.3.1-4.8-1-5-2.4-10-2.7-15-.2-5.1.7-10.2 1.2-16h-7.5c-1-1.6-2.2-3-3-4.7-1-2.1-1.8-4.4-2.4-7l3.4-3.8 4-5.5c1 1.4 2 2.9 2.6 4.7-1.2 1.7-2 3-3 4.2l1.2.8 3.2-.7 1.5 4c.5 1 1.7 1.9 1.8 3 1 7.2 2 14.4 2.7 21.7.6 7.1.5 14.3 1.2 21.5.1 1.1 2.6 2 4.5 2.5 3.7 4.3 1.8 9.2 1 14.2-1 4.8-1.5 9.8-1.2 14.6.3 6.2 1.8 12-.6 18.4-1.2 3.2.6 7.5.7 11.8a380 380 0 0 0-5.2 11l5.6.3.7 8.6h2.2l1.5-28.5 1.6.2.6 19.8c0 .4-.5.9-.5 1.4-.7 9.3-1.8 18.6-2 28 0 6.1 1.2 12.4 1.6 18.9a65 65 0 0 1-8.7-2.9c-1.5 3.6-3.5 6.6-1 11.2 2.8 4.7 6.5 2.8 10 3.3-1.2 2.5-2.3 5-4 7.7-5.2.9-7 4.1-8 8.2-.3 1.4-.5 3.4-1.4 3.8-5.2 2.4-1.6 5.8-2.5 10l4.4-3.7c.5.4 1 .4 1 .7 4 9.7 3 19.3-.9 28.8-1.2 3-2.9 6-4.6 8.9a220 220 0 0 1-8 12.2c.5-3.2 0-6.7 1.5-8.5 4.7-5.5 1-10.8.5-16.1 0-.5 0-.9.4-1.8a28.2 28.2 0 0 0 1.6-20.2m5.1-146.1c1 .2 2.8.8 3 .5 2-3.5 3.7-7 5.4-10.4l-7.3-1.4c-3.3 3.1-2.1 6.9-1 11.3m1.7 97.5-1-1.8c-.3.5-.9 1.3-.7 1.5.3.4 1 .6 1.7.3m.5-87.8-1.2 2.6 1.3.3c0-.8.2-1.6-.1-3m1.4 31.9v1.2h.5c0-.4 0-.8-.5-1.2z"/><path fill="#FCE7C6" d="M1645 970c2.7-4.2 5.4-8.3 8-12.6 1.7-2.9 3.4-5.8 4.6-9 4-9.4 5-19 1-28.7-.1-.3-.6-.3-1.1-.7l-4.4 3.6c.9-4-2.7-7.5 2.5-9.9.9-.4 1.1-2.4 1.4-3.8 1-4 2.8-7.3 7.7-8 .3.9.3 1.6 0 2.8a12 12 0 0 0-.7 2.3c0 .8 0 1.5-.3 2.9-1.4 6-3.7 11.5 2.7 15.4.7.4.4 2.4.6 3.7 0 2.8-.2 5.7 0 8.5.5 5-.5 9.1-4.5 13-2.2 2-2.5 6.1-3.5 9.4l-3.4 12.2c-2 7.3-5 14.5-2.1 22.5.8 2.3-.3 5.4-.5 8.2-.3 5.3-.2 10.7-1 15.9-.8 4-2.5 8-4.4 11.8-1.3 2.5-1.8 4-.2 6.7 1.6 2.5 1.7 5.8 2.8 10.2-6-2.3-7.6-.5-7.2 3.7a24 24 0 0 1-.1 5.5c-1 6.4-2 7.1-8.8 6.9.6 1.3 1 2.5 1.6 3.5 3.2 4.8 2.7 9.1-1.5 13.3-.7.7-.1 2.7-.2 4.2-.1 1.8.1 3.7-.4 5.3-2 5.7-3.8 11.7-6.8 16.8-2.2 3.5-1 9.5-7.4 10-1.1-2.3-1.9-4-2.5-6-1-2.8-2.4-5.6 1.4-8 4.2-2.5 5.2-10 2.8-13 .8-3.6 1.2-6.4 2-9.1.4-1.7 1.4-3.2 2.3-4.8.4-.8 1.3-1.5 1.5-2.4l2.1-14.7a54.5 54.5 0 0 1 9.3-26.8c1.2-1.5.6-4.5.6-6.9.1-3.1-1.1-8.4.2-9.1 4.2-2.3 3.1-4.2 1.4-7.1-.3-.6-.4-2 0-2.3 4.5-4.9-.5-12.6 5.2-17.1.3-.3.2-1.3.2-2l-.9-16.3z"/><path fill="#FFE6C3" d="M1630 659c-.3-.5-.6-1-.8-2 1.6-2.2 3.1-3.8 5-5.8l-2.5-3.5-4.7 4.3c-1-2.8-2-5.5-2.6-8.6 1.7.6 3.2 1.6 5.2 2.9l1.4-12.3c4.8 3.3 5 4.8 1.3 9.4 8.6 4.2 7.9 13.3 10.6 20.6 2.3 6.3 3.5 13 5.9 19.3 1.7 4.6 1.1 8.5-1.5 12.3-4.8-4.8-5.4.4-7.3 2.4-1.3-.8-2.6-1.5-3.6-2.7 2.5-2.2 6.1-4 .6-6.3-.3-1.4 0-3.2-.9-4.1a17.2 17.2 0 0 1-3.8-14.6c4.2-2.4 2.5-5.8 2.6-8.5.2-5-.6-5.3-4.9-2.8m12 10.4c-.5-.7-1.3-2-1.5-1.8-2.4 1-3.3 8.2-.3 11 .7-3.3 1.3-6 1.8-9.2z"/><path fill="#FCE7C6" d="m1631 633.6-1.4 12.7c-2-1.3-3.5-2.3-5.2-3.2-1.2-2.8-2-5.3.5-8 1-1 .4-3.6.5-6.7l-4.7 3.2c-.2-.6-.6-1-.5-1.4 1.4-4.3 1.2-7.9-2.5-11.3-1.1-1.1-.6-4.3-.3-6.4.2-1.9 1.3-3.6 2-5.2l-8.3-2.6 4-3.6v-8.7l1.3-.4c1.1 1.3 3.3 2.7 3.2 4-.4 5.2 3.6 7.3 6.3 10.5 2.1 2.6 3.7 5.7 5.9 9l-8.9 1c3.5 5.5 9.1 9.6 8.1 17zM1645 722.4c2.1-.4 4.2-.4 7.5-.4-.5 5.8-1.4 10.9-1.2 16 .3 5 1.7 10 2.7 15 .3 1.5.6 2.9-.1 4.8a90 90 0 0 0-5.6-4.8c-.6-4.2-1-8.4-1.3-12.5l-1.3-12.8c-.1-1.7-.4-3.3-.7-5.3zM1669 892.5c-3.5 0-7.2 1.9-10-2.8-2.5-4.6-.5-7.6 1-11.2l8.7 3.4c.3 3.5.3 6.8.3 10.6zM1651.7 801.3c1.1 0 2 .2 3 1 .3 2.6.3 4.7.3 6.7.3 5.1.8 10.3 1 15.4 0 1.8-.8 3.6-1.6 5.5-1-4-2-8.2-2.3-12.4-.5-5.3-.5-10.6-.4-16.2zM1654 838.4c1-1.7 2-3 3-4.3 1 1.5 2.5 3 3 4.6 1 3.8 1.5 7.8 2.3 11.7l-1.4.7-5.6-3.9c-.6-3-1-5.7-1.3-8.8zM1640 698.4c1.9-2.4 2.5-7.6 7-2.7v4.9a52.6 52.6 0 0 1-4 5.9c-1 1.2-2.1 2.3-3.6 3.5 0-3.7.2-7.5.6-11.6zM1630 659.4c4.3-2.9 5-2.6 5 2.4-.2 2.7 1.5 6.1-2.7 8a80 80 0 0 1-2.3-10.4z"/><path fill="#FFE6C3" d="M1667.4 928c-.6-1.3-.3-3.3-1-3.7-6.4-4-4.1-9.4-2.7-15-.4 6 2.6 11.3 5 16.7.2.4-.6 1.2-1.3 2z"/><path fill="#FCE7C6" d="M1663 832.5c-1.4.4-2.9.4-5.6.2 1.8-4 3.4-7.3 5.2-10.6.4 3.3.4 6.6.4 10.4zM1627 652.4c1.4-1.7 2.8-3 4.7-4.7l2.5 3.5a175 175 0 0 0-5 5.5c-.9-1.1-1.5-2.5-2.2-4.3zM1651 709.6c-1 .6-2.2.8-3.2 1l-1.1-.7c.9-1.3 1.7-2.5 3-3.9.6 1 1 2.2 1.3 3.6zM1637 689.4c5.5 1.9 1.9 3.7-.6 5.6 0-1.8.2-3.5.6-5.6zM1603 549.4c1 .4 2.1 1.2 3.2 2l-1.6 1.5-1.6-3.5z"/><path fill="#FEE6C2" d="M1171.3 1609c.2-.6.6-1.3 1.4-2-.2.6-.6 1.3-1.4 2z"/><path fill="#FFE6C3" d="M1664.2 905.8c0-.4 0-1 .5-1.8.1.6 0 1.1-.5 1.8z"/><path fill="#FFC766" d="M759 954.6c2 .5 4 1.4 5.9 1.4H1639c1.7 0 3.4 0 5.5.4.2 2.7 0 5-.5 7.3-2.8 17.8-5.1 35.7-8.7 53.3a853.8 853.8 0 0 1-13.4 55c-4.6 16.8-10 33.3-15.3 49.9-2.4 7.7-5 15.4-7.7 23l-1.2 2-16.6 39.5-6.1 14.6-.3.1-6.1 12.8a59.6 59.6 0 0 0-3.5 5.2s0 .4-.6.6c-45.3.3-90.2.3-135 .2-2.2 0-4.3-1.2-6.7-2.2-7.5-31.9-14.8-63.5-22-95-.7-3.6-2-5.5-6-6-4.7-.4-9.4-1.9-14.1-2.6-2.7-.5-3.7-1.5-3.6-4.3a92 92 0 0 0 0-12.4c-.2-1.6-1.4-3.9-2.7-4.5-10.3-4.7-20.6-9.1-31.3-13.8-.8 1.8-1.5 3.2-2 4.7l-14.3 36.2a31394.1 31394.1 0 0 1-37.8 95l-.2.2c-.8 1.4-1.3 2.6-2.3 3.8H1115.7c-1-.8-1.8-1.4-2.7-2.4-2-2.5-4-4.6-6.1-7-.8-1-1.4-1.8-2-3l-11-10.9-.9-1.1a337.3 337.3 0 0 0-17-16c-1.4-1.4-2.7-2.5-4-3.6l-.2-.3c-2.7-2-5.2-3.9-8-5.7a50.6 50.6 0 0 0-6-5c-.3 0-.7 0-.8-.4-1-1-2-1.8-3.3-2.6-.2 0-.6 0-.7-.4a7.8 7.8 0 0 0-2.3-1.6 44.6 44.6 0 0 0-7-5c-15.9-8.7-30.9-18.2-46.9-25.8a308.7 308.7 0 0 0-44.6-16.7c-13.6-4-27.7-6.6-41.8-8.4-16.4-2.2-33-3-49.5-4-7-.4-14 .3-21 1-12.4 1.2-25 2.1-37.4 4.4a313.7 313.7 0 0 0-66.2 19.6c-20 8.5-39.2 18.8-57.6 31l-7.2 5.8-3.8 2.2-7 5.9h-1c-1.2 1-2 2-3 3l-4 3c-1.9 1.7-3.4 3.3-5.1 5l-3 2-3 3.1-26.9 27.1-3 4c-1 1-1.9 2-3 2.9-2.8.3-5 .8-7.4.8h-70.2c-3.5 0-7-.5-10.3-.8v-.2c-.2-.9-.6-1.3-1.2-2-8.3-19.8-16.5-39.3-24.2-58.9-1.5-3.8-3.4-4.5-7-4-12.5 2-25 3.5-37.6 5.2-50.7 7-101.4 14-152.2 20.8-5.7.7-9.6 3-13.2 7.4-8.4 10.5-17.4 20.5-26.4 30.8-.5.4-.7.7-.9 1 0-.1.2 0-.2 0-4.1.2-7.9.7-11.6.7H145.4c-2.4 0-4.9-.7-7.3-1-1-2-2-4.1-3-6.9-1.1-1.8-2-3-3-4.2v-1l-1.1-3.1-2-3.1-.1-1.9c-.6-.8-1.2-1.3-1.8-2.2-1.1-3.2-2-6-3.3-8.7A739.7 739.7 0 0 1 85.4 1084c-1.2-4.1-3-8-4.4-12v-2c-1.4-5.7-2.8-10.7-3.9-15.7-4.3-20.5-8.8-41-12.7-61.6-2.2-12.2-3.5-24.5-5.3-36.8l7 .1h656.7c2 0 4-.8 6.4-1.4 5.2 6 10.2 12.3 14.8 18.2l15-18.2z"/><path fill="#17283A" d="M1413 1427c-6 6.3-12 12.9-18.4 18.7-13.3 11.8-26.4 23.7-40.4 34.5-22.3 17-44.8 33.9-68 49.5a733.7 733.7 0 0 1-112 60.7 790.7 790.7 0 0 1-224.2 61.8 799.4 799.4 0 0 1-652.1-217.4c-2.5-2.5-5-4.9-7.4-7.9 2.2-.7 4.1-.9 6.1-.9h398.5l5.5-.3.8-1.2c-13.6-6.8-19-18.1-18-32.5a10 10 0 0 0 2.8-1.1c-1-4.2 2.3-6 4.5-8.6 1.6-1.8 1.9-4.6 3.4-6.5 2.2-2.8 4.6-6.7 7.7-7.4 6.8-1.7 14-2.1 21.2-2.2 2.5 0 5.2 2.1 7.5 3.8a28 28 0 0 1 6.6 6.3c3.4 5 8.4 9 8 16 0 2.6 1.9 5.2 2.7 8-1.3 12.2-9.8 18.6-18.6 25.3 2.4.9 4.5 1.3 6.5 1.4h32.5c2.2 0 4.9 2 6.9-1.4h94.6c16 0 32 .1 48.3.4 1.8.4 3.3 1 4.7 1h55.8c1 0 2-.4 3.2-.6-.3-.6-.3-.8-.5-.9l-1.7-.8c-9-5-16.2-11.8-18-22.3-1-5-.4-10.3-.1-15.4a121 121 0 0 0 6.6-2.7c-1.1-4-.6-6.3 3-8.9 3.1-2.1 5.7-3.7 9.3-3.6l1.4-4.4h9.3l.6-1.8c3.3 1.2 6.2 2.4 9.2 3 .4.1 1.4-3 2.6-4.6 11.3 4.2 19 11.7 21.4 23.3 3.2 16.7-2.8 29.7-18 38.6a19 19 0 0 0 6.3 1l162.5.1h237.5m-680.2-19.8c1.4-3.5 3.7-6.9 4-10.5 1-14-10.8-24.5-24.9-22.6-9 1.2-14.3 7-17 15.3-2.4 7.6 0 14.2 4.8 19.8a21.2 21.2 0 0 0 33-2m280-4.1c.7-3.2 2-6.5 1.7-9.7-1.1-11-10.5-21.2-23.3-19.4-8.6 1.1-14.8 5.2-18 13.5-2.9 8-1.8 16 4 21.7a21.7 21.7 0 0 0 35.7-6.1z"/><path fill="#1E314A" d="M683 1392c-.5 14.4 4.8 25.7 18.4 32.5l-.8 1.2-5.5.3H296.6c-2 0-4 .2-6.2.6-15.4-15.9-31-31.6-45.5-48.3-27-30.8-51-64-72-99.3 10.8-.4 21.3-.2 31.8-.6a11 11 0 0 0 7-3.3c6.7-7.4 13-15.2 19.4-22.8l27.2-33s-.1-.2.1-.2c.5-.3.7-.6.9-1 8.7-10.2 17.7-20.2 26.1-30.7 3.6-4.4 7.5-6.7 13.2-7.4 50.8-6.8 101.5-13.8 152.2-20.8l37.6-5.1c3.6-.6 5.5 0 7 4 7.7 19.5 15.9 39 24.2 59l1.3 2-.1.4c7.3 18.5 14.7 36.6 22.2 54.6.5 1.3 2.3 2.8 3.7 2.9 5.8.5 11.6.6 17.8.9 3 .1 5.5.4 8 .2 4.7-.3 7 1.6 8.8 6.3 10.8 28.8 22.2 57.3 32.8 86.2 2.8 7.6 6 13 15 11.7.6 0 1.2.4 2 .9a36.5 36.5 0 0 0 7 .6c1.4 1 2.7 2 4.1 2.1 4.2.2 7.6 1.2 10.6 5 1.9 2.3 6 3.1 9.4 4 2.3.6 5 0 7.5.1 3.6.4 6.1-.6 6.7-4.7l6.6 1.7z"/><path fill="#1E3149" d="M1413 1427h-399.9c-2 0-4-.3-6.3-1.1 15.2-8.9 21.2-21.9 18-38.6-2.3-11.6-10-19-21.4-23.6 1.3-2.1 3-3.9 4.6-5.6a40.4 40.4 0 0 1 25.4 36.9c3.1 0 5.9.1 8.7 0 7.9-.4 10.9-3 12.6-10.7.3-1.6.3-3.3.3-5V1332c0-7.5.4-7.9 8-7.9h160c5.5 0 8.1-2.5 8.8-8.1h.3l1-1.6 19.1-21.4c4.1-4.5 9.6-8.6 11.9-14 8.2-19 15.3-38.5 22.9-58 .1-.3 0-.7.4-1 .7-1.7 1.2-3.3 1.7-4.9h.1c.5-.3.5-.6.5-.9l37.1-94 14.2-36.3 2.1-4.7c10.7 4.7 21 9 31.3 13.8 1.3.6 2.5 2.9 2.6 4.5a92 92 0 0 1 .1 12.4c-.1 2.8 1 3.8 3.6 4.3 4.7.7 9.4 2.2 14.2 2.7 4 .4 5.2 2.3 6 5.8 7.1 31.6 14.4 63.2 21.9 95.5 3.1 13.7 6 26.6 9.1 39.5.4 1.4 2.3 3.2 3.7 3.5 12.8 2.7 25.7 5.3 38.6 7.6 3.3.6 4.8 2 5.8 5 5.7 17.5 11.6 35 17.5 52.4-.4 2-.3 4.4-1.4 5.8-11.4 14.7-22.5 29.7-34.7 43.8-14 16.3-29 31.8-43.6 47.7-1 1-2 1.7-3.6 2.7a3 3 0 0 0-1.2 1z"/><path fill="#E6441E" d="M212.2 381c1.6 0 3.3.3 4.6-.3 12.8-6.4 26.2-9.6 40.4-11a127 127 0 0 1 42.2 4.5c1.2.2 3.2-.5 4.2-1.4A149 149 0 0 1 414 336.3c17.2 1.4 33.9 5.7 49.5 13.4 12.3 6 24 12.7 33.8 22.3 7.4 7.2 14 15.3 21.3 22.8 1.3 1.3 3.7 2 5.7 2.1 8.6.5 17.3.2 25.8 1.3 5.8.7 11.4 3.2 17 5a55.2 55.2 0 0 1 22.7 12.2 112.4 112.4 0 0 1 26.2 34.5c.3.7 1 1.3 1.4 1.7 15-6.4 28.7-5.3 40.8 5.7 3.7 3.3 5.8 8.3 9 12.4 1 1.4 2.9 3 4.6 3.2a77 77 0 0 1 36.7 15.2c2.4 1.9 4 4.6 6.7 7.6l-3.3.3c-190.1 0-380.2 0-570.7-.4a132.9 132.9 0 0 1 6.1-13.8c1.8-3 3.2-6 4.7-8.8l.3-.2c4.8-8 9-15.9 13.8-23.5 9.2-14.8 18.6-29.5 28-44.2l.2-.2c.8-1 1.3-2 1.8-2.9l1.1-1 15-20z"/><path fill="#F9DBAC" d="M1497.9 1326c-6.3-17.4-12.2-34.8-18-52.3-1-3-2.4-4.4-5.7-5-12.9-2.3-25.8-4.9-38.6-7.6-1.4-.3-3.3-2-3.7-3.5a1594 1594 0 0 1-8.9-39.2c2.2.3 4.3 1.5 6.5 1.5h135a98.9 98.9 0 0 1-4.8 11.9L1541 1264l-7 13c-.3.8-.6 1.5-1.3 2.7L1519 1300c-1 1.5-1.8 3-3.2 4.8l-8.8 14.2c-1.2 1.3-2.2 2.7-3.5 3.8-1.6 1.2-3.5 2.2-5.6 3.3z"/><path fill="#F9DBAB" d="M258 1219.2c-8.8 11-17.8 22-27 33-6.3 7.7-12.6 15.5-19.3 22.9a11 11 0 0 1-7 3.3c-10.5.4-21 .2-32 .2-4.6-6.7-8.8-13.3-12.7-20.1l-17.8-32.3c-1.3-2.2-2.8-4.4-4.1-7 2.4 0 4.9.7 7.3.7h100.9c3.7 0 7.5-.5 11.6-.7z"/><path fill="#FEE6C0" d="M146.7 482c-1.8 4.4-3.9 8.8-6 13.6-7.6 16-15.7 31.2-22.4 47.1-8.4 20-15.6 40.4-23.4 61-6 20.2-12.6 39.9-17.6 60-5.4 21.8-10 44-13.6 66.2-3.5 20.4-5.6 41-7.7 61.7-1.4 13.5-1.7 27.2-2.8 41-4.4-3.1-3.3-8-3-12.3.6-7.4 2-14.7 2.7-22.1.6-5.1 0-5.6-4.4-5.9-1-7-.5-7.9 4.8-7.7.9-6.2 1.7-12.5 2.7-18.7l2-10.5c.2-2 0-3.9-1.2-6l-3.1 4.7c-.5-3.3-2.2-5.7 2.1-7.5 3.3-1.4 5.5-17.6 3.2-21.2 4.4-3.6 4.6-7.8 2.6-13.2-1-2.7.3-6.6 1.3-9.8.8-2.5 3.8-4.8 3.6-7-1-8.6 3.9-15.8 4.6-24 .3-2.8 2.3-5.4 3.1-8.2.5-2 .8-4.1.4-6-.5-2.5-1.4-4.2 2-5.5 1.6-.7 2.4-3.6 3.9-6-5.3-1-7.9-4-6-8.1 1.4-3 .2-10.1 7.8-6.4 1-4.2.8-9.1 3.2-11.5 3.5-3.6 1.9-6.8 1.7-10.3 0-.9.5-2.4 1.2-2.6 6.4-2.1 5.2-6.1 2.3-11 1.6-.3 2.9-.4 3.9-1 .9-.5 1.7-1.6 2-2.5 0-.6-1-1.6-1.7-2.1-1.5-1-4.5-1.7-4.5-2.6-.1-2.7.9-5.5 1.4-8.3h1.9l2 9.8c8.7-14.3 12.6-30 19.3-44.4 0-2.9-.9-6.1 3.4-7.5.1 0-.2-3-1-4.2-1.8-2.7-2-5.2 0-8.3l4.8 6.2L125 518c1.8-1.9 3.5-3 4.2-4.6 1.9-4.3 2.8-9.1 5-13.3 3.1-6 7.1-11.7 10.8-17.4.2-.4.9-.4 1.7-.6M80 634.6c-3.6 2-1.7 4 0 6.5 2.3-2.4 3.1-4.4 0-6.5zM59 955.5c1.9 12.7 3.2 25 5.4 37.2 4 20.6 8.4 41.1 12.7 61.6 1 5 2.5 10 3.8 15.3-4.4-.6-2.8-4.7-3.9-7.3-.7-2-.9-4.2-1.9-6-4.4-7.2-4.8-15.4-6.2-23.4-1.1-6.3-3-12.4-4.7-18.5-.3-1-1-1.9-1-2.8-.8-6.9-1.2-13.8-2.3-20.6-.8-5.1-2.4-10.1-3.5-15.2-.6-2.5-1.2-5-1.3-7.7-.2-3 .3-6.2-4.2-6.5-.5 0-1.5-3-1-3.8 2.3-3.4 3-6 .4-10-2.2-3.5-3.7-7.6-5.5-11.4-1.4-2.8.9-7.4 1.6-11.3l1.8.2 2.3 8.1c3.5-3.2 2.5-6.1 1.8-9.1-.6-3-1.6-6.3-1.2-9.3 1-7-1.2-13-4-19-.6-1.4-1.2-4-.5-4.5 6-5.5 3.7-12.6 2.9-18.7-1.2-8.7-2.5-17 .2-25.6 1-2.9 1-6 1.8-9.1.4 13.3 0 26.8.7 40.2 1.5 25.6 3.8 51.2 5.8 77.2zM1599.3 1145c2.2-7.7 4.9-15.4 7.3-23.1 5.2-16.6 10.7-33 15.3-49.8 5-18.2 9.6-36.6 13.4-55 3.6-17.7 5.9-35.6 8.7-53.4l1-7.3c.5-3.9 1-7.3 1.7-11.1.7 5 4.5 10.3-.2 15.8-1.5 1.8-1 5.3-1.4 8.5l.8 16.8c0 .6.1 1.6-.2 1.9-5.7 4.5-.7 12.2-5.3 17-.3.5-.2 1.8.1 2.4 1.7 2.9 2.8 4.8-1.4 7-1.3.8 0 6-.2 9.2 0 2.4.6 5.4-.6 6.9-6.2 8-7.9 17.3-9.3 26.8l-2.1 14.7c-.2.9-1.1 1.6-1.5 2.4-.9 1.6-1.9 3.1-2.3 4.8-.8 2.7-1.2 5.5-2 9 2.4 3 1.4 10.6-2.8 13.2-3.8 2.3-2.4 5-1.4 8 .6 1.8 1.4 3.6 2.1 5.9-1-.7-2-1.8-3.5-3.6l-1.5 3.7c-.5 1-.7 2.6-1.5 3.2-3 2.2-2.4 3.6-.2 6.3 1.6 1.9 1.4 5.2 2 8l-2 .4c-.4-1.6-.8-3.2-1.4-4.7-.3-.7-1-1.7-1.4-1.6-.8 0-2.1.5-2.3 1-.8 2.6-2.1 5.4-1.8 8 .6 5.7 0 7-6 8.7zM80.7 1072.3c1.8 3.7 3.5 7.6 4.7 11.7 10 35.6 23.2 70 38.4 103.8 1.2 2.7 2.2 5.5 3.3 9a6.3 6.3 0 0 0 1.8 2.2l.1 2a12 12 0 0 0 2 3c.3.8.7 1.6 1 2.7-1.7.8-3.5 1-5 2-1.4.8-2.5 2.2-3.8 3.3l-1.2-.6c.4-1.3.3-3.3 1-3.7 4.7-2.4 3.8-5.7 2-9.5-.7-1.5-1-3.3-2-6.7l-5.8 7.3-1.7-.8 4.9-12.5c-3.9-7-8.6-14.4-12-22.4-3.2-7.6-5-15.9-7.5-23.8-1.6-5-3.4-10.2-5.4-15.1-.7-1.7-2.5-2.8-4.1-4.6 1.4-7.5-1.4-14.4-6-21-4-6-7.3-12.6-11.2-19.4 7.9 2.8 5-3.6 6.5-7zM212.3 380.7c-5 6.9-9.8 13.4-15 20-.3-.5-.3-1.2-.2-2.4 0-.4 0-.3-.1-.3l-1.8-.2c0-2.2-.5-4.3.2-5.9a8 8 0 0 1 3.6-3.7c1-.5 2.5.4 4 .7.4-3.5 6.8-5.5 1.8-10.7 4.7 3.2 6.4.3 8.2-2.6 2.4-4 6.8-7.6 7.2-11.6.7-7.2 6-8.5 11-11.1-2.3-3.7-2.5-6.2 2.2-7.1 1-.2 1.7-2.1 2.7-3.5 3.3 1.2 5.3-.7 7.2-3.7 2.9-4.6 6-9.2 9.4-13.5 1-1.1 3.2-1.3 5.3-1.8-4.8 6.4-10 12.6-15 19a3758.1 3758.1 0 0 0-30.7 38.4zM193.7 405c-9 14.8-18.4 29.5-27.6 44.3-4.8 7.6-9 15.6-13.8 23.5-2-4-.6-7.2 2.2-10.9 6.3-8.5 11.8-17.5 17.6-26.3 2-3 4.3-6 6-9.1 1.4-2.7 4.1-5.2 1.7-9.1-.5-.9 3.2-4.6 5.2-6.7 1.8-1.9 4-3.4 6-5 .6-.4 1.5-.4 2.7-.7z"/><path fill="#FEE6C1" d="M1534.3 1277c2-4.3 4.2-8.7 6.6-13 6.1-10.6 12.3-21.1 18.8-31.8 2 4 2.2 7.8-1.8 10.8-4.9 3.8-5 4.9-.6 9.6 1.1 1.3 2 3 2.5 4.6.3.6-.8 1.7-1.3 2.7-.9-.6-2-1-2.5-1.8-1.5-2-2.7-4-4-6-1.6 2.2-3.5 4.3-4.8 6.7a119 119 0 0 0-5.2 11.3c-1.4 3.5-3.6 6-7.7 6.9z"/><path fill="#FEE6C0" d="M1575.3 1201a3107.8 3107.8 0 0 1 22.4-53.7c-.5 4.2-.9 8.8-2.2 13.1-2.6 8-5.4 16-8.6 23.7-1.5 3.5-4.1 6.6-6.3 9.9a71.7 71.7 0 0 1-5.3 7z"/><path fill="#FFE6C3" d="M1041.2 1653.7c-1.3.3-2.3.3-3.8.3-.4 0-.4-.5-.2-1 .5-.9.6-1.4.8-2l4.8-1.4v-1.6l-14.7-2.5c6-5.4 16-3.7 19.8 2.2-2.1 2.1-4.3 4-6.7 6z"/><path fill="#FEE6C1" d="M1519.4 1300c4-6.6 8.5-13.3 13.2-20 2.7 3.1.5 5-1.5 7-1.4 1.5-3.4 3.3-3.4 5-.2 5.4-3.7 7-8.3 8z"/><path fill="#FDE7C2" d="m1062.6 1637.7-6.3 3.4c-3.4 1.8-6.3 1-9.8-2.3l21-4.6-4.9 3.5z"/><path fill="#FEE6C0" d="M1568.9 1213.8c1.8-4.1 3.6-8.3 5.8-12.7 2.2 5-1 9.2-2 13.8-.3 1.3-2.6 2-4.3 2.7 0-1.5.2-2.6.5-3.8zM1507.4 1319c2.4-4.6 5.2-9.1 8.3-13.9-.6 5.7-3 10.5-8.3 13.9z"/><path fill="#FEE6C2" d="M1500.1 1341c-1.6-.4-3.5-.3-4-1.2-.6-.8 0-3.4.6-3.6 1.3-.5 3 0 4.5.2-.2 1.5-.5 3-1 4.6z"/><path fill="#FCE8C1" d="M1481.4 1368.2c1.3-.2 2.4 0 3.4 0-.5 1.6-.7 3.4-1.6 4.8-.3.6-2 .4-3 .5 0-1.1-.3-2.3-.2-3.4.1-.6.7-1.1 1.4-1.9z"/><path fill="#FDE6C1" d="m1473.8 1370.7-3 .9-.3-.9 5.7-5.2 1 .5c-1 1.5-2 3-3.4 4.7z"/><path fill="#FEE6C0" d="M151.6 473a66.6 66.6 0 0 1-4.3 8.9c-.6-3.6-.8-7.4 4.3-8.9z"/><path fill="#F9DBAC" d="M1568.6 1214c0 1-.3 2.1-.6 3.6-.7.7-1.5 1-2.6 1.4.8-1.6 1.8-3.3 3.2-5z"/><path fill="#FEE6C0" d="M1037.6 1651c.2.6 0 1.1-.4 1.8-1.8-.2-3.4-.6-5.1-1.4 1.6-.4 3.3-.4 5.5-.4z"/><path fill="#FDE6C1" d="M1480.6 1361c-.4 1.1-.8 1.9-1.3 2.6l-1-1.2c.7-.6 1.5-1.2 2.3-1.4z"/><path fill="#FEE6C2" d="M1089 1629.7a9 9 0 0 1-2.8-1l1-1.3 1.8 2.3z"/><path fill="#F9DBAB" d="M132.1 1208.2c1 .8 1.9 2 2.8 3.5-.9-.8-1.8-2-2.8-3.5z"/><path fill="#FEE6C0" d="M195.7 402c0 1-.6 1.9-1.4 3 .2-1 .6-1.9 1.4-3z"/><path fill="#17283A" d="M1413.3 1427c0-.2.1-.5.6-.9 0 .2-.2.5-.6.9z"/><path fill="#FCE7C6" d="M1153.5 1612a9 9 0 0 1-2.9.8v-1.4c1 0 2 .2 2.9.6z"/><path fill="#2A2924" d="M759 954.3c-5 6.4-10 12.4-15 18.5-4.6-6-9.6-12.2-14.8-18.6l-21.9-22.6c9.9 4.8 19 9.4 26.3 17.7 1 1 1.7 1.4 2.3 1.9v.2l8.1 9.8c1.7-2 3.1-3.6 4.9-5.4 1.2-1.3 2.2-2.6 3.1-3.8l.2-.1.8-1h.2l.9-1.1.1-.6h.1l1-.2c.7-.5 1-1 1.4-1.4 0 0 .2.2.4.1.7-.6 1.2-1.3 1.7-2 0 0 .1.2.4.1 1.4-1 2.5-2 3.7-3l.3.1c1-.7 1.8-1.4 2.6-2.2 0 0 0 .3.4.2l2.7-2h.4l1.5-1.2.4.1c.7-.3 1.2-.7 1.6-1h.4l4.4-.7-1.5 3c-.4.3-.8.7-1.7 1l-1.3 1h-.3c-.8.6-1.3 1.2-1.8 1.8 0 0-.2.2-.7.3-.7.3-1 .6-1.2.8l-10 10.3z"/><path fill="#3D2A14" d="M945 943.5a59.2 59.2 0 0 1 24.2-17.4c1.8-.6 3.6-1 5.6-1.2a74.8 74.8 0 0 0-29.1 27.8l-24.4-27c9.3 3.3 16.2 10.6 23.6 17.8z"/><path fill="#3E2A15" d="m742.8 876.7 15.5-7.2.7 1.2a75.1 75.1 0 0 0-29.3 27.4L705.2 871a62 62 0 0 1 23.2 18.3l14.4-12.6z"/><path fill="#3C2B14" d="M563 914c-4.2-4.4-8.2-8.6-12-12.8a61.7 61.7 0 0 1 23 18.4c8.1-9.6 17.2-17 29.7-19.2a78.9 78.9 0 0 0-29.2 28.2L563 914.1z"/><path fill="#492B0E" d="M605 840c4.7 3 10 5.4 13.8 9.3 3.7 3.7 5.3 3.2 8.4-.3a31.7 31.7 0 0 1 16.5-9.6L622.9 859a2418 2418 0 0 1-17.7-18.7l-.2-.3z"/><path fill="#482B0D" d="M474 822c4.8 3.1 9.6 6.1 14.3 9.3 1.4 1 2.3 2.4 3.7 4 6-7 12.6-12.6 20.4-14L492 840.9l-17.7-18.5-.2-.2z"/><path fill="#472C0E" d="M862.4 791.6a36.6 36.6 0 0 1 18.2-11.6L860 799.7l-16.5-18.6.7-1c4.5 3.7 9 7.3 13.3 11 1.5 1.3 2.6 3.5 4.9.5z"/><path fill="#582E07" d="M542 691c1.8 1.5 3.2 2.9 4.4 4l14.8-9.6.4.7-14.8 14.2-11.3-12.8.3-.6 6.3 4z"/><path fill="#573007" d="m719 751-15.3 13.5-11.5-13 .3-.6 11 8 15.1-7.9h.4z"/><path fill="#FEE6C0" d="M1651.1 877.5c3.4 1.7 3.2 4.6 2 8.5l-.1 16c-.3 2.7-.5 5.4-1 8-.5 2-1.3 3.9-2.4 5.9.3-12.6.9-25.3 1.5-38.4z"/><path fill="#472D10" d="M776.4 939c0-.7.5-1.5 1.2-2.9l-4.5.7c4.8-2 10-3.9 15.5-5.8h.3c-4 2.6-8 5.3-12.5 8z"/><path fill="#D4A462" d="m748.5 955.9-4.5 5.3a391 391 0 0 1-8-9.8c1 .4 2.5.8 3.5 1.7 2.7 2.7 5.5 3.8 9.2 1 .4 0 .5 0 .4.4l-.6 1.4z"/><path fill="#FEE6C0" d="M1648.8 923.3c2 6.4 2 13-1.3 19.6 0-6.4.6-12.8 1.3-19.6zM1649.1 918.4c.3.6.5 1.5.3 2.5-.3-.7-.3-1.4-.3-2.5z"/><path fill="#472D10" d="M762.5 942.8c-.8 1-2 2-3.4 3 .8-1 2-2 3.4-3zM765.5 940.8c-.5.7-1.2 1.4-2.4 2 .5-.7 1.3-1.3 2.4-2zM768.6 938.9c-.5.6-1.3 1.3-2.5 2 .5-.8 1.3-1.4 2.5-2zM771.3 942.8c.2-.5.7-1.1 1.5-1.7-.2.6-.7 1.2-1.5 1.7z"/><path fill="#D4A462" d="M735.9 950.8c-.6-.1-1.3-.6-2-1.3.6.1 1.3.5 2 1.3z"/><path fill="#472D10" d="M758.5 945.9c-.2.5-.7 1.2-1.5 1.8.2-.6.7-1.2 1.5-1.8z"/><path fill="#D4A462" d="M753.9 949.1c.3 0 .2.5 0 .7l-1 1.2H752c.5-.7 1-1.3 1.9-1.9z"/><path fill="#472D10" d="M756.5 947.7c-.1.4-.5.8-1.1 1-.2-.3-.2-.5-.1-.6l1.2-.4zM772.5 936.8c-.1.3-.6.7-1.4 1 .2-.4.7-.7 1.4-1zM770.5 937.8c-.1.3-.6.7-1.3 1 .1-.3.6-.7 1.3-1zM789 931l.3-.1h-.3z"/><path fill="#D4A462" d="M751 952c0-.3.2-.6.7-1 .2 0 .3 0 .3.3v.7h-.2a3 3 0 0 1-.7 0h-.1zM750 953c0-.3.2-.6.8-.9.2-.1.2 0 .2.2-.2.6-.5.8-.9.8h-.1zM749 954c0-.3.3-.6.8-.9.2 0 .3 0 .2.3-.2.5-.5.7-.8.8l-.1-.1zM755 948.2c.2 0 .2.2 0 .6 0 .3-.4.4-.7.4 0-.3.2-.6.7-1z"/><path fill="#472D10" d="M769.3 944c0-.2.3-.5.8-.8 0 .3-.2.6-.8.8zM773.4 941.1c0-.2.2-.5.7-.8 0 .2-.2.5-.7.8z"/><path fill="#573007" d="m719 751 .1-.2v.1c-.1.1 0 .1 0 .1z"/><path fill="#482B0D" d="m474 822-.3-.2s.2 0 .2.2z"/><path fill="#492B0E" d="M605 840s-.1 0 0 0z"/><path fill="#FEE6C0" d="M1651.2 874.3c.4 0 .5.2.2.6-.2 0-.3-.4-.2-.6z"/><path fill="#E6441E" d="M1040 345H828.7c1.4-2.7 2-5.1 3.6-6.6 4.1-4.2 8.4-8.4 14.6-9.5a4 4 0 0 0 2.5-2c3.4-6.9 8.7-11.3 15.8-14.2 5.6-2.2 10.6-6.3 16.3-7.7a23 23 0 0 0 13-7.7 52.3 52.3 0 0 1 45-19.8c9 .8 12.5-4.2 17-9a99.3 99.3 0 0 1 98.3-29.3 92.5 92.5 0 0 1 40 20.9c1.5 1.2 4.4 1.7 6.4 1.2a78.8 78.8 0 0 1 84.4 30.9c2 2.7 4.2 2.8 7.3 2.5 11.1-1 21.8.3 30.6 8.2 2.8 2.6 5.5 5.4 8.6 7.5 1.8 1.2 4.3 1.4 6.5 1.6a64.4 64.4 0 0 1 44.9 19c2.1 2.3 3.7 5.1 5.4 7.8 2.3 3.6.2 5.2-3 6-1.6.4-3.3.2-5 .2H1040z"/><path fill="#FEE6C0" d="M1531 437.3c4.9 2.7 10.1 5.2 10.3 12.3 0 2.6 2.3 5.2 4 8.8 4.2-8.8-.3-14.6-3.7-21 6.1 1.6 8.4 4.8 9.4 11.6.4 2.2 1.6 4.3 2.5 6.5-4.7 2.5-5.5 3.7-4 8 2.2-.6 5.4-3.6 6.5 2l-5.6-.3 17.9 33 3.4-5.6c3 2 3.4 4.6.7 7.4-2.6 2.6-2.3 4.1-.2 7 2.6 3.5 3.7 8 5.7 12 3.9 7.5 8 15 12 22.4.3.6.9 1.1 1 1.7l4 19.6c-5-11.1-10-22.7-15.2-34.1a845.6 845.6 0 0 0-48.7-91.3zM1487 373.4c2.5 1.9 5.5 3.9 7.8 6.4 2.1 2.4 3.6 5.4 5 7.5l6.6-.8.4 1.5-3.7 2c.7 1.3 1.3 2.7 2.2 4 1.5 2.3 3.2 4.4 4.7 6.6 1.7 2.6 3.2 5.3 5 7.8 4.5 6.5 9.3 12.7 13.6 19.3 1.2 1.7 1 4.4 1.3 7-9-12.6-17.8-25.8-26.9-38.8-5.2-7.5-10.7-14.8-16-22.5zM1479 363.4c5.3.4 7 4.3 8 9.3-2.7-2.7-5.3-5.9-8-9.3zM1530.3 436.3c.2-.1.4 0 .6.5-.2.1-.4 0-.6-.5z"/><path fill="#FEE6C0" d="M1563 480c-1-3.7-2-7-3.2-10.6 6.3 1 8.6 7 5.2 15.8l-2-5.2zM1531.4 410c.2 1.2.3 2.5-.3 3.1-1.8 2-4 3.5-6.4 5.6l-3.7-3.3c3.9-2 7-3.7 10.4-5.3zM1518 398.7c-.2 1.6-.7 3-1.1 4.2l-1.4-.6c0-1.6-2.3-4.3 2.5-3.6zM1506.7 380.2c-.6.7-1.3 1-2 1.4 0-.6-.2-1.1-.4-1.7.8 0 1.6 0 2.4.3zM1569 488c.6-.6 1-.9 1.6-1.2v2.3c-.5-.3-1-.5-1.5-1.1z"/><path fill="#FCE7C6" d="M1654 776.5c-1-4-2.1-7.8 1.2-11l7.3 1.5c-1.7 3.3-3.4 7-5.4 10.4-.2.3-2-.3-3-.9zM1653.4 902c-.4-5-.4-10.1-.4-15.6.5-.4 1.1-.5 1.5-.2 2.7 2 2.2 13.8-1.1 15.8zM1657 802l.7-7.8c1.4 3.6 2.6 5.8 3.1 8.2.5 2.3.7 4.9-3.4 4.2-.4-1.8-.4-3.2-.4-4.6z"/><path fill="#FEE6C0" d="M1656.7 802c.3 1.4.3 2.8.3 4.6a6 6 0 0 1-1.7 2.4c-.3-2-.3-4-.3-6.6.4-.4.9-.4 1.7-.4z"/><path fill="#FCE7C6" d="M1655.9 874.7c-.7 0-1.4-.2-1.7-.6-.2-.2.4-1 .7-1.5l1 2zM1656.6 786.8l-.1 2.7c-.5 0-.9-.2-1.3-.3.4-.9.8-1.8 1.4-2.4z"/><path fill="#FEE6C0" d="M1658 818.4c.3.4.3.8.3 1.2h-.5c0-.4 0-.8.2-1.2z"/><path fill="#FCE7C6" d="M1642 669.7c-.5 3-1 5.6-1.8 9-3-3-2.1-10.2.3-11.1.2-.1 1 1.1 1.6 2.1z"/><path fill="#FEE7C5" d="m637.8 1383.5-.5-.1c-2.3-.3-4.3-.4-6.3-.5-.7-.2-1.3-.7-1.9-.6-9 1.2-12.2-4.1-15-11.7-10.6-28.9-22-57.4-32.8-86.2-1.7-4.7-4.1-6.6-8.9-6.3-2.4.2-5 0-7.6-.5 4.6-1 7.8-3.2 10.5-7.7 7.2-12.4 15-24.4 22.8-36.5 3.3-5 7.3-9.6 11-14.3a19 19 0 0 1 3-3c1.4-1.5 2.2-2.7 3-4a1415.7 1415.7 0 0 1 29.9-30c.8-.8 1.5-1.4 3-2.1a39 39 0 0 0 5-5c1-1 2.2-2 4-3 1.4-1 2.2-2 3-3h1c2.8-2 4.9-4 7-6 1-.6 2.2-1.3 4-2 2.7-2 4.9-4 7-6 18.1-12.1 37.2-22.4 57.3-31 21.3-9 43.5-15.3 66.2-19.5 12.3-2.3 25-3.2 37.5-4.5 6.9-.6 14-1.3 20.9-.9 16.5 1 33.1 1.8 49.5 4 14 1.8 28.2 4.4 41.8 8.4 15.2 4.5 30.3 10 44.6 16.7 16 7.6 31 17 46.9 26.1l5.3 3.7c.5.3 1 .6 1.7 1.3 1 .8 1.7 1.2 2.4 1.6a44.6 44.6 0 0 0 4.7 3.4 136.4 136.4 0 0 0 6 5c2.9 2.2 5.5 4 8.2 5.7v.4a100 100 0 0 1 9.7 8.8 426 426 0 0 0 12.3 11.9c3.7 4 7.3 7.5 11 11 .5.7 1.1 1.5 1.9 3 2.2 2.6 4.2 4.7 6.2 6.9l2.6 2.3c1.7 1.5 3 2.6 4.3 4 4.8 7.8 9.2 15.4 14.5 22.3 9.3 12.1 16 25.6 22.3 39.3 4.7 9.9 8.3 20.3 12.6 30.4 1.5 3.6 3.6 6 8.4 5.9 16.2-.5 32.3-.2 48.3.1-2.6.7-5 1.2-7.5 1.2H1055v-84.4c0-13.5-8.9-22.5-22.5-22.6h-12.4v-12.7c4 0 7.6.2 11.2 0 1.3-.1 2.5-1.4 3.7-2-1.2-.7-2.4-1.7-3.6-1.7-9.1-.2-18.3-.1-27.5-.1H976c18-1.6 36-1.3 53.8-4.8v-1.7l-20.5-2.5 6.8-8.3c-3.3 0-5.5-.5-7 .2-3 1.3-5.6 3.5-8.5 5-2.1 1.2-4.4 2.5-6.6 2.4-26.8-.6-53.6-1.9-80.4-2-44.3-.2-88.6.1-133 .6-21.7.3-43.5 1.4-65.3 2.4-7 .3-14 1.4-20.9 2.2v2.4l46.8 3.6c-1.8.5-3.6.5-5.5.5h-47c-1.2.1-2.5 1.3-3.8 2 1.3.6 2.6 1.7 4 1.8 3.5.2 7.1 0 10.7 0v12.7c-5.5 0-10.8-.1-16.1 0-11.7.3-20.6 7.8-21.6 18.8-2.4 26.3-4.6 52.7-6.9 79l-6.1 71-11-.8z"/><path fill="#F8DBAB" d="M608.6 1219c-3.2 4.8-7.2 9.4-10.5 14.4-7.8 12-15.6 24.1-22.8 36.5a14.2 14.2 0 0 1-11 7.6c-6 0-11.8 0-17.6-.5-1.4-.1-3.2-1.6-3.7-3-7.5-18-14.9-36-22.3-54.5 3.5 0 7 .4 10.4.4h70.2c2.3 0 4.6-.5 7.3-.8z"/><path fill="#FDDDA2" d="M1120 1223c-1.3-1-2.6-2.2-4-3.6 53.7-.3 107.5-.3 161.3-.4 3 0 5.9 0 9.3.3.4.5.5.7.5.9 0 0 0 .4-.5.6-5.5.5-10.5 1.1-15.4 1.2h-145.5c-2 0-3.8.7-5.7 1zM1105 1206.7a155 155 0 0 1-11-10.4 155 155 0 0 1 11 10.4zM1093 1194.6c-3.6-3-7.3-6.5-11-10.2 3.6 3 7.3 6.5 11 10.2zM1071.8 1174.7a65.7 65.7 0 0 1-7.8-5.4c2.6 1.5 5.1 3.3 7.8 5.4z"/><path fill="#F8DBAB" d="M678.7 1155.1a52 52 0 0 1-6.5 5.8c1.8-2 4-3.9 6.5-5.8z"/><path fill="#FDDDA2" d="M1113 1216.6c-2-1.8-4-3.9-6-6.3 2 1.7 4 3.8 6 6.3z"/><path fill="#F8DBAB" d="M667.7 1163c-1.8 2-4 4-6.4 6 1.8-2 3.9-4 6.4-6z"/><path fill="#FDDDA2" d="M1063 1168.6c-1.6-1-3.3-2.5-5-4.2 1.6 1 3.3 2.4 5 4.2z"/><path fill="#F8DBAB" d="M652.6 1175a29 29 0 0 1-4.4 5 29 29 0 0 1 4.4-5z"/><path fill="#FDDDA2" d="M1048.9 1157.7a26 26 0 0 1-4.9-3.3 26 26 0 0 1 4.9 3.3zM1076 1178.6c-1.3-.7-2.6-1.8-4-3.2 1.3.7 2.6 1.8 4 3.2z"/><path fill="#F8DBAB" d="M614.7 1212.2c-.4 1.2-1.2 2.4-2.3 3.8.4-1.2 1.2-2.5 2.3-3.8zM659.7 1169c-.5 1-1.3 2-2.4 3 .4-1 1.2-2 2.4-3zM644.7 1182c-.5 1-1.3 2-2.4 3 .4-1 1.2-2 2.4-3z"/><path fill="#FDDDA2" d="M1057 1163.6c-1-.4-2-1.1-3-2.2 1 .4 2 1.1 3 2.2z"/><path fill="#F8DAAB" d="M1287.4 1220c-.3 0-.4-.2-.4-.7a20 20 0 0 1 1.8-4c-.2 1.3-.7 2.9-1.4 4.7z"/><path fill="#F9DBAB" d="M131 1203.7a7.2 7.2 0 0 1-2-2.4c.7.4 1.3 1.2 2 2.4z"/><path fill="#FDDDA2" d="M1053 1160.6c-.6 0-1.3-.5-2-1.2.6 0 1.3.5 2 1.2z"/><path fill="#F9DBAB" d="M128.9 1198.7c-.6-.2-1.2-.7-1.8-1.5.6.2 1.2.7 1.8 1.5z"/><path fill="#F8DBAB" d="M520.9 1218.9c-.4-.2-.7-.7-1-1.5.3.2.7.6 1 1.5z"/><path fill="#F8DAAB" d="M1289.5 1214.3c.2.1.2.4-.2.7-.2-.2-.1-.4.2-.7z"/><path fill="#F9DBAB" d="M259 1218.2c0 .3-.1.6-.6 1-.1-.3 0-.6.6-1z"/><path fill="#192939" d="M638 1383.8c3.4 0 7 .2 10.9.5l6.1-71c2.3-26.3 4.5-52.7 6.9-79 1-11 9.9-18.5 21.6-18.8h16v-12.7c-3.5 0-7 .2-10.7 0-1.3-.1-2.6-1.2-3.9-1.8 1.3-.7 2.6-1.9 3.9-2h47c1.8 0 3.6 0 5.4-.5l-46.7-3.6v-2.4c6.9-.8 13.8-2 20.8-2.2 21.8-1 43.6-2.1 65.4-2.4 44.3-.5 88.6-.8 133-.6 26.7.1 53.5 1.4 80.3 2 2.2 0 4.5-1.2 6.6-2.3 2.9-1.6 5.4-3.8 8.4-5.1 1.6-.7 3.8-.2 7.1-.2l-6.8 8.3 20.5 2.5v1.7c-17.7 3.5-35.8 3.2-53.8 4.8h55.4c1.2 0 2.4 1.1 3.6 1.7-1.2.7-2.4 2-3.7 2-3.6.3-7.2.1-11.2.1v12.7h12.4c13.6.1 22.5 9 22.5 22.6v84.5h11.1l152.5-.1c2.4 0 4.9-.5 7.8-1.3l5.4-5.3c-.7 5.6-3.3 8-8.9 8l-160 .1c-7.5 0-7.9.4-7.9 7.9v47.4c0 1.7 0 3.4-.3 5-1.7 7.7-4.7 10.3-12.6 10.7-2.8.1-5.6 0-8.7 0a40.4 40.4 0 0 0-25.4-36.9 90 90 0 0 0-5 5.6c-.8 2-1.8 5-2.2 5-3-.7-5.9-1.9-9.2-3l-.6 1.7h-9.3l-1.4 4.4c-3.6-.1-6.2 1.5-9.2 3.6-3.7 2.6-4.2 4.9-3 8.9-2.2.9-4.3 1.8-7 2.7-1.5-.6-2.3-1.2-2.7-1.8 2-1.6 4.5-2.7 5.4-4.6a32.2 32.2 0 0 1 32.3-18c4.7.6 6.4-2.5 9.2-4.9-17.1-10.4-43.8 4.4-51 28.2l-2 9.1H756c-4.2-24.2-16.4-37.7-36-39.8a41 41 0 0 0-44 31.8l7.5 1.2.7-2.4a32.6 32.6 0 0 1 63.8 8.2c0 1.3.8 2.5 1 4l-1 2c-1-2.5-3-5.1-2.8-7.6.3-7-4.7-11.1-8.1-16a28 28 0 0 0-6.6-6.4c-2.3-1.7-5-3.8-7.5-3.8-7.1.1-14.4.5-21.2 2.2-3 .7-5.5 4.6-7.7 7.4-1.5 1.9-1.8 4.7-3.4 6.5-2.2 2.5-5.4 4.4-4.5 8.6 0 .2-1.6.7-2.8 1.1-2.5-.5-4.6-1-7-1.7-.6 4.1-3.1 5-6.7 4.7-2.5-.2-5.2.5-7.5-.1-3.3-.9-7.5-1.7-9.4-4-3-3.8-6.4-4.8-10.6-5-1.4 0-2.7-1.1-4.2-2m363.5-139.4h-32.7v50.5h54.3c5.7 0 8.7-3.4 8.7-9.4v-31.4c0-6.7-3-9.6-9.8-9.7-6.5-.1-13 0-20.5 0m-62 0H912c-7.7 0-10.1 2.6-10.2 10.2v30c0 7.8 2.6 10.3 10.6 10.3h48l4.2-.3v-50.2h-25.1m-123.5 33v17.5h54.5c5.8 0 8.6-3.2 8.7-9.3v-31c0-7.5-2.6-10.1-10.2-10.2h-53v33m-3.8 10v-43c-18.7 0-36.7-.2-54.7 0-5.5 0-8.3 3.4-8.3 9.1v31c0 7.7 2.7 10.4 10.5 10.4h52.5v-7.6m-102.7-43-25.5.1c-4.6 0-8.4 1.9-9 6.8a843 843 0 0 0-3 34.8c-.3 5.5 2.9 8.8 8.4 8.9h39c5.2-.1 8.4-3.3 8.4-8.5v-33.4c0-5.1-2.8-8.1-7.9-8.6-3.1-.2-6.3 0-10.4 0m287.2-41.7h-11.9v12.4h31v-12.4h-19M732 1215.6c.9-.8 2.5-1.6 2.6-2.5.4-3.3.2-6.6.2-10h-31v12.5H732m148-.1h30.1v-12.3h-31c0 4.1 0 8 .8 12.3m41.6-12.7h-7.1v12.5h31.1v-12.5h-24m51.8 12.8h7.1V1203h-30.8v12.5h23.7m-226.8 0h23v-12.4h-30.8v12.4h7.8m33 0h25V1203h-30.5v12.3l5.6.2m59.7-12.7H809v12.4h31c0-4 0-7.9-.7-12.4m4.6 6.5v5.9h31v-12.1h-31v6.2z"/><path fill="#F9E4C6" d="M749.1 1397.7c-.3-1.2-1-2.4-1-3.7a32.6 32.6 0 0 0-63.8-8.2l-.8 2.4-7.6-1.2a41 41 0 0 1 44.1-31.8c19.6 2.1 31.8 15.6 36 39.8 59.3 0 118.6 0 178.5.4a668 668 0 0 1-17 30.4l-47.8-.2c-31.4 0-62.8 0-94.8-.3-9-9.3-17.4-18.5-25.8-27.6z"/><path fill="#1D3149" d="M732.7 1407.6a21.2 21.2 0 0 1-32.9 1.6c-4.7-5.6-7.2-12.2-4.8-19.8 2.7-8.4 8-14.1 17-15.3a21.3 21.3 0 0 1 24.8 22.6c-.2 3.6-2.5 7-4.1 10.9zM1012.7 1403.4a21.7 21.7 0 0 1-35.5 5.8c-5.8-5.8-6.9-13.6-4-21.7 3.2-8.3 9.4-12.4 18-13.5 12.8-1.8 22.2 8.4 23.3 19.4.3 3.2-1 6.5-1.8 10z"/><path fill="#1F3149" d="M918 1426c5.4-10.2 11.2-20.2 17-30.6 5.7-.4 11.5-.4 17.3-.4.7-3.2 1.3-6 2.2-9 1.4-.6 2.5-.7 3.5-.7l2.7 1.7c.4 5.1-.2 10.4.7 15.4 2 10.5 9 17.3 18 22.3l1.8.8c.2.1.2.3.5.9-1.2.2-2.2.6-3.2.6h-55.8c-1.4 0-2.9-.6-4.7-1z"/><path fill="#203248" d="M749 1398c8.5 8.8 17 18 25.5 27.4-1.4 3.5-4.1 1.6-6.3 1.6h-32.5c-2 0-4-.5-6.5-1.4 8.8-6.7 17.3-13.1 18.6-25.2l1.2-2.4m21.4 26.5s.1 0 0 0z"/><path fill="#192939" d="M631.2 1383.2c1.8-.2 3.8 0 6.1.3-1.7.2-3.8 0-6.1-.3z"/><path fill="#F8DAAB" d="m1231.8 1315.9-5.2 5c-16.5 0-32.6-.2-48.8.3-4.8.1-7-2.3-8.4-5.9-4.3-10-8-20.5-12.6-30.4-6.4-13.7-13-27.2-22.3-39.3-5.3-6.9-9.7-14.5-14.5-22.2 1.9-.7 3.8-1.4 5.7-1.4h145.5c5 0 9.9-.7 15.2-1-7 19.4-14.1 38.9-22.3 58-2.3 5.3-7.8 9.4-11.9 14l-19.4 21.5-1 1.4z"/><path fill="#192939" d="M1232 1315.8c0-.2.2-.6.6-1 .1.2 0 .5-.5 1z"/><path fill="#FCE7C6" d="M80.3 634.5c2.8 2.2 2 4.2-.2 6.6-1.8-2.5-3.7-4.5.2-6.6zM197 398h.1-.1z"/><path fill="#472D10" d="M749 954.5c.5-.4.8-.6 1-1.1.5-.3.8-.5 1-1 .1-.3.6-.3.8-.4-.7 1.2-1.7 2.5-3 3.8-.1-.3 0-.7.3-1.3zM753.2 950.9c0-.2.1-.5.6-.9 0 .2-.2.5-.6.9zM752.2 951.9c-.2.1-.2-.4-.2-.6 0-.3.5-.4.7-.4 0 .3 0 .6-.5 1z"/><path fill="#F9E3C4" d="M1002 1244.5h20c6.8 0 9.8 3 9.8 9.7v31.4c0 6-3 9.3-8.7 9.4h-54.3v-50.5h33.2z"/><path fill="#FBE4C5" d="M940 1244.5h24.6v50.2l-4.3.3h-48c-8 0-10.5-2.5-10.5-10.3v-30c0-7.6 2.5-10.2 10.2-10.2h28z"/><path fill="#FBE5C5" d="M816 1277v-32.5h53c7.6 0 10.1 2.7 10.2 10.3v31c0 6-3 9.1-8.7 9.2H816v-18zM812.2 1288v7h-52.6c-7.7 0-10.4-2.7-10.4-10.4v-31c0-5.7 2.8-9 8.3-9 18-.3 36-.1 54.7-.1v43.4z"/><path fill="#FAE4C5" d="M710 1244.5c3.6 0 6.8-.2 10 0 5 .5 7.8 3.5 7.8 8.6v33.4c0 5.2-3.2 8.4-8.4 8.5h-39c-5.5-.1-8.7-3.4-8.3-9a843 843 0 0 1 3-34.7c.5-5 4.3-6.8 9-6.8H710z"/><path fill="#EEE0C8" d="m958.4 1385.2-3.8.3c6.9-23.4 33.6-38.2 50.7-27.8-2.8 2.4-4.5 5.5-9.2 5a32.2 32.2 0 0 0-32.3 18c-1 1.8-3.3 2.9-5.4 4.5z"/><path fill="#F0DEC3" d="M997.2 1202.8h18.6v12.4h-31v-12.4h12.4z"/><path fill="#EFDCC2" d="M731.6 1215.6h-27.8v-12.4h31c0 3.3.3 6.6 0 10-.2.8-1.8 1.6-3.2 2.4z"/><path fill="#F0DEC3" d="M879.6 1215.2c-.4-4-.4-7.9-.4-12h31v12.3c-10 0-20.1 0-30.6-.3zM922 1202.8h23.6v12.5h-31.1v-12.5h7.6z"/><path fill="#EFDDC2" d="M972.9 1215.6h-23.2V1203h30.8v12.5H973z"/><path fill="#F2DFC4" d="M746.2 1215.6h-7.4v-12.4h30.9v12.4h-23.5z"/><path fill="#F3E0C5" d="m779.2 1215.6-5.1-.2V1203h30.6v12.5h-25.5zM839.7 1203.3c.3 4.1.3 8 .3 12h-30.9V1203c10 0 20.2 0 30.6.4z"/><path fill="#F3E1C5" d="M844 1209v-5.8h31v12h-31v-6.3z"/><path fill="#17283A" d="M770.5 1424.4z"/></svg>